{
  "asset": {
    "generator": "Khronos glTF Blender I/O v5.2.40",
    "version": "2.0"
  },
  "scene": 0,
  "scenes": [
    {
      "name": "Scene",
      "nodes": [
        8
      ]
    }
  ],
  "nodes": [
    {
      "mesh": 0,
      "name": "Barrel"
    },
    {
      "mesh": 1,
      "name": "Bolt"
    },
    {
      "mesh": 2,
      "name": "FlipFlap"
    },
    {
      "mesh": 3,
      "name": "IronSight"
    },
    {
      "mesh": 4,
      "name": "Magazine"
    },
    {
      "mesh": 5,
      "name": "Scope"
    },
    {
      "mesh": 6,
      "name": "Stock"
    },
    {
      "mesh": 7,
      "name": "Trigger"
    },
    {
      "children": [
        0,
        1,
        2,
        3,
        4,
        5,
        6,
        7
      ],
      "name": "3dmodels-cc0 display"
    }
  ],
  "materials": [
    {
      "doubleSided": true,
      "name": "Candidate sniper 3dmodels-cc0 main",
      "normalTexture": {
        "index": 0
      },
      "pbrMetallicRoughness": {
        "baseColorTexture": {
          "index": 1
        },
        "metallicRoughnessTexture": {
          "index": 2
        }
      },
      "occlusionTexture": {
        "index": 2,
        "strength": 1
      }
    }
  ],
  "meshes": [
    {
      "name": "Barrel.001",
      "primitives": [
        {
          "attributes": {
            "POSITION": 0,
            "NORMAL": 1,
            "TEXCOORD_0": 2
          },
          "indices": 3,
          "material": 0
        }
      ]
    },
    {
      "name": "Bolt.001",
      "primitives": [
        {
          "attributes": {
            "POSITION": 4,
            "NORMAL": 5,
            "TEXCOORD_0": 6
          },
          "indices": 7,
          "material": 0
        }
      ]
    },
    {
      "name": "FlipFlap.001",
      "primitives": [
        {
          "attributes": {
            "POSITION": 8,
            "NORMAL": 9,
            "TEXCOORD_0": 10
          },
          "indices": 11,
          "material": 0
        }
      ]
    },
    {
      "name": "IronSight.001",
      "primitives": [
        {
          "attributes": {
            "POSITION": 12,
            "NORMAL": 13,
            "TEXCOORD_0": 14
          },
          "indices": 15,
          "material": 0
        }
      ]
    },
    {
      "name": "Magazine.001",
      "primitives": [
        {
          "attributes": {
            "POSITION": 16,
            "NORMAL": 17,
            "TEXCOORD_0": 18
          },
          "indices": 19,
          "material": 0
        }
      ]
    },
    {
      "name": "Scope.001",
      "primitives": [
        {
          "attributes": {
            "POSITION": 20,
            "NORMAL": 21,
            "TEXCOORD_0": 22
          },
          "indices": 23,
          "material": 0
        }
      ]
    },
    {
      "name": "Stock.001",
      "primitives": [
        {
          "attributes": {
            "POSITION": 24,
            "NORMAL": 25,
            "TEXCOORD_0": 26
          },
          "indices": 27,
          "material": 0
        }
      ]
    },
    {
      "name": "Trigger.001",
      "primitives": [
        {
          "attributes": {
            "POSITION": 28,
            "NORMAL": 29,
            "TEXCOORD_0": 30
          },
          "indices": 31,
          "material": 0
        }
      ]
    }
  ],
  "textures": [
    {
      "sampler": 0,
      "source": 0
    },
    {
      "sampler": 0,
      "source": 1
    },
    {
      "sampler": 0,
      "source": 2
    }
  ],
  "images": [
    {
      "mimeType": "image/png",
      "name": "main-normal",
      "uri": "main-normal.png"
    },
    {
      "mimeType": "image/png",
      "name": "main-albedo",
      "uri": "main-albedo.png"
    },
    {
      "mimeType": "image/png",
      "name": "main-orm",
      "uri": "main-orm.png"
    }
  ],
  "accessors": [
    {
      "bufferView": 0,
      "componentType": 5126,
      "count": 1080,
      "max": [
        -0.035231322050094604,
        0.2944006621837616,
        0.02227337285876274
      ],
      "min": [
        -0.8244538307189941,
        0.05753074586391449,
        -0.006832066457718611
      ],
      "type": "VEC3"
    },
    {
      "bufferView": 1,
      "componentType": 5126,
      "count": 1080,
      "type": "VEC3"
    },
    {
      "bufferView": 2,
      "componentType": 5126,
      "count": 1080,
      "type": "VEC2"
    },
    {
      "bufferView": 3,
      "componentType": 5123,
      "count": 3336,
      "type": "SCALAR"
    },
    {
      "bufferView": 4,
      "componentType": 5126,
      "count": 324,
      "max": [
        -0.024593070149421692,
        0.17633618414402008,
        0.016231732442975044
      ],
      "min": [
        -0.18854442238807678,
        0.09710875153541565,
        -0.028016168624162674
      ],
      "type": "VEC3"
    },
    {
      "bufferView": 5,
      "componentType": 5126,
      "count": 324,
      "type": "VEC3"
    },
    {
      "bufferView": 6,
      "componentType": 5126,
      "count": 324,
      "type": "VEC2"
    },
    {
      "bufferView": 7,
      "componentType": 5123,
      "count": 1176,
      "type": "SCALAR"
    },
    {
      "bufferView": 8,
      "componentType": 5126,
      "count": 158,
      "max": [
        -0.47217875719070435,
        0.20289672911167145,
        0.022891318425536156
      ],
      "min": [
        -0.48210787773132324,
        0.1808539479970932,
        -0.009285666048526764
      ],
      "type": "VEC3"
    },
    {
      "bufferView": 9,
      "componentType": 5126,
      "count": 158,
      "type": "VEC3"
    },
    {
      "bufferView": 10,
      "componentType": 5126,
      "count": 158,
      "type": "VEC2"
    },
    {
      "bufferView": 11,
      "componentType": 5123,
      "count": 666,
      "type": "SCALAR"
    },
    {
      "bufferView": 12,
      "componentType": 5126,
      "count": 176,
      "max": [
        -0.7537421584129333,
        0.31183165311813354,
        0.013774959370493889
      ],
      "min": [
        -0.8167758584022522,
        0.2784857153892517,
        -0.00015698233619332314
      ],
      "type": "VEC3"
    },
    {
      "bufferView": 13,
      "componentType": 5126,
      "count": 176,
      "type": "VEC3"
    },
    {
      "bufferView": 14,
      "componentType": 5126,
      "count": 176,
      "type": "VEC2"
    },
    {
      "bufferView": 15,
      "componentType": 5123,
      "count": 438,
      "type": "SCALAR"
    },
    {
      "bufferView": 16,
      "componentType": 5126,
      "count": 345,
      "max": [
        -0.13246044516563416,
        0.13349826633930206,
        0.014166895300149918
      ],
      "min": [
        -0.21953198313713074,
        0.037727318704128265,
        -0.000552610494196415
      ],
      "type": "VEC3"
    },
    {
      "bufferView": 17,
      "componentType": 5126,
      "count": 345,
      "type": "VEC3"
    },
    {
      "bufferView": 18,
      "componentType": 5126,
      "count": 345,
      "type": "VEC2"
    },
    {
      "bufferView": 19,
      "componentType": 5123,
      "count": 864,
      "type": "SCALAR"
    },
    {
      "bufferView": 20,
      "componentType": 5126,
      "count": 1109,
      "max": [
        0.03256136178970337,
        0.2513144016265869,
        0.029311826452612877
      ],
      "min": [
        -0.303066611289978,
        0.15002034604549408,
        -0.015741901472210884
      ],
      "type": "VEC3"
    },
    {
      "bufferView": 21,
      "componentType": 5126,
      "count": 1109,
      "type": "VEC3"
    },
    {
      "bufferView": 22,
      "componentType": 5126,
      "count": 1109,
      "type": "VEC2"
    },
    {
      "bufferView": 23,
      "componentType": 5123,
      "count": 3348,
      "type": "SCALAR"
    },
    {
      "bufferView": 24,
      "componentType": 5126,
      "count": 1098,
      "max": [
        0.3058708608150482,
        0.2177983820438385,
        0.02185281738638878
      ],
      "min": [
        -0.4758754074573517,
        -0.08835941553115845,
        -0.008291823789477348
      ],
      "type": "VEC3"
    },
    {
      "bufferView": 25,
      "componentType": 5126,
      "count": 1098,
      "type": "VEC3"
    },
    {
      "bufferView": 26,
      "componentType": 5126,
      "count": 1098,
      "type": "VEC2"
    },
    {
      "bufferView": 27,
      "componentType": 5123,
      "count": 4392,
      "type": "SCALAR"
    },
    {
      "bufferView": 28,
      "componentType": 5126,
      "count": 81,
      "max": [
        -0.058480653911828995,
        0.10501977056264877,
        0.007339910604059696
      ],
      "min": [
        -0.0818338543176651,
        0.06784170866012573,
        0.0023355488665401936
      ],
      "type": "VEC3"
    },
    {
      "bufferView": 29,
      "componentType": 5126,
      "count": 81,
      "type": "VEC3"
    },
    {
      "bufferView": 30,
      "componentType": 5126,
      "count": 81,
      "type": "VEC2"
    },
    {
      "bufferView": 31,
      "componentType": 5123,
      "count": 204,
      "type": "SCALAR"
    }
  ],
  "bufferViews": [
    {
      "buffer": 0,
      "byteLength": 12960,
      "byteOffset": 0,
      "target": 34962
    },
    {
      "buffer": 0,
      "byteLength": 12960,
      "byteOffset": 12960,
      "target": 34962
    },
    {
      "buffer": 0,
      "byteLength": 8640,
      "byteOffset": 25920,
      "target": 34962
    },
    {
      "buffer": 0,
      "byteLength": 6672,
      "byteOffset": 34560,
      "target": 34963
    },
    {
      "buffer": 0,
      "byteLength": 3888,
      "byteOffset": 41232,
      "target": 34962
    },
    {
      "buffer": 0,
      "byteLength": 3888,
      "byteOffset": 45120,
      "target": 34962
    },
    {
      "buffer": 0,
      "byteLength": 2592,
      "byteOffset": 49008,
      "target": 34962
    },
    {
      "buffer": 0,
      "byteLength": 2352,
      "byteOffset": 51600,
      "target": 34963
    },
    {
      "buffer": 0,
      "byteLength": 1896,
      "byteOffset": 53952,
      "target": 34962
    },
    {
      "buffer": 0,
      "byteLength": 1896,
      "byteOffset": 55848,
      "target": 34962
    },
    {
      "buffer": 0,
      "byteLength": 1264,
      "byteOffset": 57744,
      "target": 34962
    },
    {
      "buffer": 0,
      "byteLength": 1332,
      "byteOffset": 59008,
      "target": 34963
    },
    {
      "buffer": 0,
      "byteLength": 2112,
      "byteOffset": 60340,
      "target": 34962
    },
    {
      "buffer": 0,
      "byteLength": 2112,
      "byteOffset": 62452,
      "target": 34962
    },
    {
      "buffer": 0,
      "byteLength": 1408,
      "byteOffset": 64564,
      "target": 34962
    },
    {
      "buffer": 0,
      "byteLength": 876,
      "byteOffset": 65972,
      "target": 34963
    },
    {
      "buffer": 0,
      "byteLength": 4140,
      "byteOffset": 66848,
      "target": 34962
    },
    {
      "buffer": 0,
      "byteLength": 4140,
      "byteOffset": 70988,
      "target": 34962
    },
    {
      "buffer": 0,
      "byteLength": 2760,
      "byteOffset": 75128,
      "target": 34962
    },
    {
      "buffer": 0,
      "byteLength": 1728,
      "byteOffset": 77888,
      "target": 34963
    },
    {
      "buffer": 0,
      "byteLength": 13308,
      "byteOffset": 79616,
      "target": 34962
    },
    {
      "buffer": 0,
      "byteLength": 13308,
      "byteOffset": 92924,
      "target": 34962
    },
    {
      "buffer": 0,
      "byteLength": 8872,
      "byteOffset": 106232,
      "target": 34962
    },
    {
      "buffer": 0,
      "byteLength": 6696,
      "byteOffset": 115104,
      "target": 34963
    },
    {
      "buffer": 0,
      "byteLength": 13176,
      "byteOffset": 121800,
      "target": 34962
    },
    {
      "buffer": 0,
      "byteLength": 13176,
      "byteOffset": 134976,
      "target": 34962
    },
    {
      "buffer": 0,
      "byteLength": 8784,
      "byteOffset": 148152,
      "target": 34962
    },
    {
      "buffer": 0,
      "byteLength": 8784,
      "byteOffset": 156936,
      "target": 34963
    },
    {
      "buffer": 0,
      "byteLength": 972,
      "byteOffset": 165720,
      "target": 34962
    },
    {
      "buffer": 0,
      "byteLength": 972,
      "byteOffset": 166692,
      "target": 34962
    },
    {
      "buffer": 0,
      "byteLength": 648,
      "byteOffset": 167664,
      "target": 34962
    },
    {
      "buffer": 0,
      "byteLength": 408,
      "byteOffset": 168312,
      "target": 34963
    }
  ],
  "samplers": [
    {
      "magFilter": 9729,
      "minFilter": 9987
    }
  ],
  "buffers": [
    {
      "byteLength": 168720,
      "uri": "3dmodels-cc0.bin"
    }
  ]
}
