{
  "asset": {
    "generator": "Terminator tools/build-range-assets.mjs with glTF-Transform 4.5.0 and three.js",
    "version": "2.0"
  },
  "accessors": [
    {
      "name": "Range firing line POSITION",
      "type": "VEC3",
      "componentType": 5126,
      "count": 24,
      "max": [
        0.05000000074505806,
        0.007499999832361937,
        9
      ],
      "min": [
        -0.05000000074505806,
        -0.007499999832361937,
        -9
      ],
      "bufferView": 0,
      "byteOffset": 0
    },
    {
      "name": "Range firing line NORMAL",
      "type": "VEC3",
      "componentType": 5126,
      "count": 24,
      "bufferView": 0,
      "byteOffset": 12
    },
    {
      "name": "Range firing line TEXCOORD_0",
      "type": "VEC2",
      "componentType": 5126,
      "count": 24,
      "bufferView": 0,
      "byteOffset": 24
    },
    {
      "name": "Range firing line indices",
      "type": "SCALAR",
      "componentType": 5123,
      "count": 36,
      "bufferView": 1,
      "byteOffset": 0
    }
  ],
  "bufferViews": [
    {
      "buffer": 0,
      "byteOffset": 0,
      "byteLength": 768,
      "byteStride": 32,
      "target": 34962
    },
    {
      "buffer": 0,
      "byteOffset": 768,
      "byteLength": 72,
      "target": 34963
    }
  ],
  "buffers": [
    {
      "name": "Range Firing Line Asset geometry",
      "uri": "firing-line.bin",
      "byteLength": 840
    }
  ],
  "materials": [
    {
      "name": "Range firing line",
      "pbrMetallicRoughness": {
        "baseColorFactor": [
          0.46778379610254284,
          0.17788841597328695,
          0.02121901037134225,
          1
        ],
        "roughnessFactor": 0.7,
        "metallicFactor": 0.24
      }
    }
  ],
  "meshes": [
    {
      "name": "Range firing line",
      "primitives": [
        {
          "attributes": {
            "POSITION": 0,
            "NORMAL": 1,
            "TEXCOORD_0": 2
          },
          "mode": 4,
          "material": 0,
          "indices": 3
        }
      ]
    }
  ],
  "nodes": [
    {
      "name": "Range Firing Line Asset",
      "extras": {
        "rangeFixtureAsset": "firing-line"
      },
      "children": [
        1
      ]
    },
    {
      "name": "Range firing line",
      "mesh": 0
    }
  ],
  "scenes": [
    {
      "name": "Range Firing Line Asset",
      "nodes": [
        0
      ]
    }
  ]
}
