{
  "asset": {
    "generator": "Khronos glTF Blender I/O v5.2.40",
    "version": "2.0"
  },
  "scene": 0,
  "scenes": [
    {
      "name": "Scene",
      "nodes": [
        2
      ]
    }
  ],
  "nodes": [
    {
      "mesh": 0,
      "name": "Grenade"
    },
    {
      "mesh": 1,
      "name": "Pin"
    },
    {
      "children": [
        0,
        1
      ],
      "name": "3dmodels-cc0 display"
    }
  ],
  "materials": [
    {
      "doubleSided": true,
      "name": "Candidate grenade 3dmodels-cc0 main",
      "normalTexture": {
        "index": 0
      },
      "pbrMetallicRoughness": {
        "baseColorTexture": {
          "index": 1
        },
        "metallicRoughnessTexture": {
          "index": 2
        }
      },
      "occlusionTexture": {
        "index": 2,
        "strength": 1
      }
    }
  ],
  "meshes": [
    {
      "name": "Mesh.002",
      "primitives": [
        {
          "attributes": {
            "POSITION": 0,
            "NORMAL": 1,
            "TEXCOORD_0": 2
          },
          "indices": 3,
          "material": 0
        }
      ]
    },
    {
      "name": "Mesh.003",
      "primitives": [
        {
          "attributes": {
            "POSITION": 4,
            "NORMAL": 5,
            "TEXCOORD_0": 6
          },
          "indices": 7,
          "material": 0
        }
      ]
    }
  ],
  "textures": [
    {
      "sampler": 0,
      "source": 0
    },
    {
      "sampler": 0,
      "source": 1
    },
    {
      "sampler": 0,
      "source": 2
    }
  ],
  "images": [
    {
      "mimeType": "image/png",
      "name": "main-normal",
      "uri": "main-normal.png"
    },
    {
      "mimeType": "image/png",
      "name": "main-albedo",
      "uri": "main-albedo.png"
    },
    {
      "mimeType": "image/png",
      "name": "main-orm",
      "uri": "main-orm.png"
    }
  ],
  "accessors": [
    {
      "bufferView": 0,
      "componentType": 5126,
      "count": 2509,
      "max": [
        0.03071034699678421,
        0.057500001043081284,
        0.0358673594892025
      ],
      "min": [
        -0.03071034699678421,
        -0.057499997317790985,
        -0.0358673594892025
      ],
      "type": "VEC3"
    },
    {
      "bufferView": 1,
      "componentType": 5126,
      "count": 2509,
      "type": "VEC3"
    },
    {
      "bufferView": 2,
      "componentType": 5126,
      "count": 2509,
      "type": "VEC2"
    },
    {
      "bufferView": 3,
      "componentType": 5123,
      "count": 8454,
      "type": "SCALAR"
    },
    {
      "bufferView": 4,
      "componentType": 5126,
      "count": 575,
      "max": [
        0.020346684381365776,
        0.050818685442209244,
        0.003187397727742791
      ],
      "min": [
        -0.01061619445681572,
        0.017585862427949905,
        -0.029773425310850143
      ],
      "type": "VEC3"
    },
    {
      "bufferView": 5,
      "componentType": 5126,
      "count": 575,
      "type": "VEC3"
    },
    {
      "bufferView": 6,
      "componentType": 5126,
      "count": 575,
      "type": "VEC2"
    },
    {
      "bufferView": 7,
      "componentType": 5123,
      "count": 2472,
      "type": "SCALAR"
    }
  ],
  "bufferViews": [
    {
      "buffer": 0,
      "byteLength": 30108,
      "byteOffset": 0,
      "target": 34962
    },
    {
      "buffer": 0,
      "byteLength": 30108,
      "byteOffset": 30108,
      "target": 34962
    },
    {
      "buffer": 0,
      "byteLength": 20072,
      "byteOffset": 60216,
      "target": 34962
    },
    {
      "buffer": 0,
      "byteLength": 16908,
      "byteOffset": 80288,
      "target": 34963
    },
    {
      "buffer": 0,
      "byteLength": 6900,
      "byteOffset": 97196,
      "target": 34962
    },
    {
      "buffer": 0,
      "byteLength": 6900,
      "byteOffset": 104096,
      "target": 34962
    },
    {
      "buffer": 0,
      "byteLength": 4600,
      "byteOffset": 110996,
      "target": 34962
    },
    {
      "buffer": 0,
      "byteLength": 4944,
      "byteOffset": 115596,
      "target": 34963
    }
  ],
  "samplers": [
    {
      "magFilter": 9729,
      "minFilter": 9987
    }
  ],
  "buffers": [
    {
      "byteLength": 120540,
      "uri": "3dmodels-cc0.bin"
    }
  ]
}
