{
  "asset": {
    "generator": "Terminator tools/build-map-assets.mjs with glTF-Transform 4.5.0 and three.js",
    "version": "2.0"
  },
  "accessors": [
    {
      "name": "Rubble bank concrete POSITION",
      "type": "VEC3",
      "componentType": 5126,
      "count": 1116,
      "max": [
        1.5,
        0.3935174345970154,
        1
      ],
      "min": [
        -1.5,
        -0.5,
        -1
      ],
      "bufferView": 0,
      "byteOffset": 0
    },
    {
      "name": "Rubble bank concrete NORMAL",
      "type": "VEC3",
      "componentType": 5126,
      "count": 1116,
      "bufferView": 0,
      "byteOffset": 12
    },
    {
      "name": "Rubble bank concrete TEXCOORD_0",
      "type": "VEC2",
      "componentType": 5126,
      "count": 1116,
      "bufferView": 0,
      "byteOffset": 24
    },
    {
      "name": "Rubble bank rust POSITION",
      "type": "VEC3",
      "componentType": 5126,
      "count": 432,
      "max": [
        1.2074275016784668,
        0.4528462886810303,
        0.40567198395729065
      ],
      "min": [
        -0.3689364790916443,
        -0.13062071800231934,
        -0.8019076585769653
      ],
      "bufferView": 1,
      "byteOffset": 0
    },
    {
      "name": "Rubble bank rust NORMAL",
      "type": "VEC3",
      "componentType": 5126,
      "count": 432,
      "bufferView": 1,
      "byteOffset": 12
    },
    {
      "name": "Rubble bank rust TEXCOORD_0",
      "type": "VEC2",
      "componentType": 5126,
      "count": 432,
      "bufferView": 1,
      "byteOffset": 24
    }
  ],
  "bufferViews": [
    {
      "buffer": 0,
      "byteOffset": 0,
      "byteLength": 35712,
      "byteStride": 32,
      "target": 34962
    },
    {
      "buffer": 0,
      "byteOffset": 35712,
      "byteLength": 13824,
      "byteStride": 32,
      "target": 34962
    }
  ],
  "samplers": [
    {
      "wrapS": 10497,
      "wrapT": 10497
    }
  ],
  "textures": [
    {
      "source": 0,
      "sampler": 0
    },
    {
      "source": 1,
      "sampler": 0
    },
    {
      "source": 2,
      "sampler": 0
    },
    {
      "source": 3,
      "sampler": 0
    },
    {
      "source": 4,
      "sampler": 0
    },
    {
      "source": 5,
      "sampler": 0
    }
  ],
  "images": [
    {
      "name": "concrete_wall_007_diff_1k.jpg",
      "mimeType": "image/jpeg",
      "uri": "/kite3d/assets/textures/map/concrete_wall_007_diff_1k.jpg"
    },
    {
      "name": "concrete_wall_007_nor_gl_1k.jpg",
      "mimeType": "image/jpeg",
      "uri": "/kite3d/assets/textures/map/concrete_wall_007_nor_gl_1k.jpg"
    },
    {
      "name": "concrete_wall_007_arm_1k.jpg",
      "mimeType": "image/jpeg",
      "uri": "/kite3d/assets/textures/map/concrete_wall_007_arm_1k.jpg"
    },
    {
      "name": "rusty_metal_02_diff_1k.jpg",
      "mimeType": "image/jpeg",
      "uri": "/kite3d/assets/textures/map/rusty_metal_02_diff_1k.jpg"
    },
    {
      "name": "rusty_metal_02_nor_gl_1k.jpg",
      "mimeType": "image/jpeg",
      "uri": "/kite3d/assets/textures/map/rusty_metal_02_nor_gl_1k.jpg"
    },
    {
      "name": "rusty_metal_02_arm_1k.jpg",
      "mimeType": "image/jpeg",
      "uri": "/kite3d/assets/textures/map/rusty_metal_02_arm_1k.jpg"
    }
  ],
  "buffers": [
    {
      "name": "Map piece geometry",
      "uri": "rubble-3x1x2-1qfgh79.bin",
      "byteLength": 49536
    }
  ],
  "materials": [
    {
      "name": "Map concrete",
      "pbrMetallicRoughness": {
        "baseColorFactor": [
          0.56,
          0.59,
          0.59,
          1
        ],
        "roughnessFactor": 0.9,
        "metallicFactor": 0,
        "baseColorTexture": {
          "index": 0
        },
        "metallicRoughnessTexture": {
          "index": 2
        }
      },
      "normalTexture": {
        "index": 1
      },
      "occlusionTexture": {
        "index": 2
      }
    },
    {
      "name": "Map rust",
      "pbrMetallicRoughness": {
        "baseColorFactor": [
          0.48,
          0.3,
          0.18,
          1
        ],
        "roughnessFactor": 0.92,
        "metallicFactor": 0.42,
        "baseColorTexture": {
          "index": 3
        },
        "metallicRoughnessTexture": {
          "index": 5
        }
      },
      "normalTexture": {
        "index": 4
      },
      "occlusionTexture": {
        "index": 5
      }
    }
  ],
  "meshes": [
    {
      "name": "Rubble bank concrete",
      "primitives": [
        {
          "attributes": {
            "POSITION": 0,
            "NORMAL": 1,
            "TEXCOORD_0": 2
          },
          "mode": 4,
          "material": 0
        }
      ]
    },
    {
      "name": "Rubble bank rust",
      "primitives": [
        {
          "attributes": {
            "POSITION": 3,
            "NORMAL": 4,
            "TEXCOORD_0": 5
          },
          "mode": 4,
          "material": 1
        }
      ]
    }
  ],
  "nodes": [
    {
      "name": "Rubble bank asset",
      "extras": {
        "mapPieceAsset": true
      },
      "children": [
        1,
        2
      ]
    },
    {
      "name": "Rubble bank concrete",
      "extras": {
        "material": "concrete"
      },
      "mesh": 0
    },
    {
      "name": "Rubble bank rust",
      "extras": {
        "material": "rust"
      },
      "mesh": 1
    }
  ],
  "scenes": [
    {
      "name": "Rubble 3x1x2 1qfgh79",
      "nodes": [
        0
      ]
    }
  ]
}
