{
  "asset": {
    "generator": "Khronos glTF Blender I/O v5.2.40",
    "version": "2.0"
  },
  "scene": 0,
  "scenes": [
    {
      "name": "Scene",
      "nodes": [
        4
      ]
    }
  ],
  "nodes": [
    {
      "mesh": 0,
      "name": "Ejection_Port"
    },
    {
      "mesh": 1,
      "name": "Fore_Stock"
    },
    {
      "mesh": 2,
      "name": "Shotgun"
    },
    {
      "mesh": 3,
      "name": "Trigger"
    },
    {
      "children": [
        0,
        1,
        2,
        3
      ],
      "name": "3dmodels-cc0 display"
    }
  ],
  "materials": [
    {
      "doubleSided": true,
      "name": "Candidate shotgun 3dmodels-cc0 main",
      "normalTexture": {
        "index": 0
      },
      "pbrMetallicRoughness": {
        "baseColorTexture": {
          "index": 1
        },
        "metallicRoughnessTexture": {
          "index": 2
        }
      },
      "occlusionTexture": {
        "index": 2,
        "strength": 1
      }
    }
  ],
  "meshes": [
    {
      "name": "Mesh.004",
      "primitives": [
        {
          "attributes": {
            "POSITION": 0,
            "NORMAL": 1,
            "TEXCOORD_0": 2
          },
          "indices": 3,
          "material": 0
        }
      ]
    },
    {
      "name": "Mesh.005",
      "primitives": [
        {
          "attributes": {
            "POSITION": 4,
            "NORMAL": 5,
            "TEXCOORD_0": 6
          },
          "indices": 7,
          "material": 0
        }
      ]
    },
    {
      "name": "Mesh.007",
      "primitives": [
        {
          "attributes": {
            "POSITION": 8,
            "NORMAL": 9,
            "TEXCOORD_0": 10
          },
          "indices": 11,
          "material": 0
        }
      ]
    },
    {
      "name": "Mesh.006",
      "primitives": [
        {
          "attributes": {
            "POSITION": 12,
            "NORMAL": 13,
            "TEXCOORD_0": 14
          },
          "indices": 15,
          "material": 0
        }
      ]
    }
  ],
  "textures": [
    {
      "sampler": 0,
      "source": 0
    },
    {
      "sampler": 0,
      "source": 1
    },
    {
      "sampler": 0,
      "source": 2
    }
  ],
  "images": [
    {
      "mimeType": "image/png",
      "name": "main-normal",
      "uri": "main-normal.png"
    },
    {
      "mimeType": "image/png",
      "name": "main-albedo",
      "uri": "main-albedo.png"
    },
    {
      "mimeType": "image/png",
      "name": "main-orm",
      "uri": "main-orm.png"
    }
  ],
  "accessors": [
    {
      "bufferView": 0,
      "componentType": 5126,
      "count": 48,
      "max": [
        -0.11932767927646637,
        0.13300985097885132,
        -0.012083232402801514
      ],
      "min": [
        -0.18600408732891083,
        0.11422564834356308,
        -0.013269742019474506
      ],
      "type": "VEC3"
    },
    {
      "bufferView": 1,
      "componentType": 5126,
      "count": 48,
      "type": "VEC3"
    },
    {
      "bufferView": 2,
      "componentType": 5126,
      "count": 48,
      "type": "VEC2"
    },
    {
      "bufferView": 3,
      "componentType": 5123,
      "count": 108,
      "type": "SCALAR"
    },
    {
      "bufferView": 4,
      "componentType": 5126,
      "count": 136,
      "max": [
        -0.3448502719402313,
        0.11509424448013306,
        0.02418903261423111
      ],
      "min": [
        -0.5028666257858276,
        0.06671620905399323,
        -0.02418903261423111
      ],
      "type": "VEC3"
    },
    {
      "bufferView": 5,
      "componentType": 5126,
      "count": 136,
      "type": "VEC3"
    },
    {
      "bufferView": 6,
      "componentType": 5126,
      "count": 136,
      "type": "VEC2"
    },
    {
      "bufferView": 7,
      "componentType": 5123,
      "count": 384,
      "type": "SCALAR"
    },
    {
      "bufferView": 8,
      "componentType": 5126,
      "count": 1383,
      "max": [
        0.3255000710487366,
        0.14514115452766418,
        0.01788521744310856
      ],
      "min": [
        -0.7245000004768372,
        -0.0622033029794693,
        -0.017885245382785797
      ],
      "type": "VEC3"
    },
    {
      "bufferView": 9,
      "componentType": 5126,
      "count": 1383,
      "type": "VEC3"
    },
    {
      "bufferView": 10,
      "componentType": 5126,
      "count": 1383,
      "type": "VEC2"
    },
    {
      "bufferView": 11,
      "componentType": 5123,
      "count": 4596,
      "type": "SCALAR"
    },
    {
      "bufferView": 12,
      "componentType": 5126,
      "count": 64,
      "max": [
        -0.031111815944314003,
        0.07792077213525772,
        0.0014255617279559374
      ],
      "min": [
        -0.05172527953982353,
        0.04912017285823822,
        -0.0014255049172788858
      ],
      "type": "VEC3"
    },
    {
      "bufferView": 13,
      "componentType": 5126,
      "count": 64,
      "type": "VEC3"
    },
    {
      "bufferView": 14,
      "componentType": 5126,
      "count": 64,
      "type": "VEC2"
    },
    {
      "bufferView": 15,
      "componentType": 5123,
      "count": 132,
      "type": "SCALAR"
    }
  ],
  "bufferViews": [
    {
      "buffer": 0,
      "byteLength": 576,
      "byteOffset": 0,
      "target": 34962
    },
    {
      "buffer": 0,
      "byteLength": 576,
      "byteOffset": 576,
      "target": 34962
    },
    {
      "buffer": 0,
      "byteLength": 384,
      "byteOffset": 1152,
      "target": 34962
    },
    {
      "buffer": 0,
      "byteLength": 216,
      "byteOffset": 1536,
      "target": 34963
    },
    {
      "buffer": 0,
      "byteLength": 1632,
      "byteOffset": 1752,
      "target": 34962
    },
    {
      "buffer": 0,
      "byteLength": 1632,
      "byteOffset": 3384,
      "target": 34962
    },
    {
      "buffer": 0,
      "byteLength": 1088,
      "byteOffset": 5016,
      "target": 34962
    },
    {
      "buffer": 0,
      "byteLength": 768,
      "byteOffset": 6104,
      "target": 34963
    },
    {
      "buffer": 0,
      "byteLength": 16596,
      "byteOffset": 6872,
      "target": 34962
    },
    {
      "buffer": 0,
      "byteLength": 16596,
      "byteOffset": 23468,
      "target": 34962
    },
    {
      "buffer": 0,
      "byteLength": 11064,
      "byteOffset": 40064,
      "target": 34962
    },
    {
      "buffer": 0,
      "byteLength": 9192,
      "byteOffset": 51128,
      "target": 34963
    },
    {
      "buffer": 0,
      "byteLength": 768,
      "byteOffset": 60320,
      "target": 34962
    },
    {
      "buffer": 0,
      "byteLength": 768,
      "byteOffset": 61088,
      "target": 34962
    },
    {
      "buffer": 0,
      "byteLength": 512,
      "byteOffset": 61856,
      "target": 34962
    },
    {
      "buffer": 0,
      "byteLength": 264,
      "byteOffset": 62368,
      "target": 34963
    }
  ],
  "samplers": [
    {
      "magFilter": 9729,
      "minFilter": 9987
    }
  ],
  "buffers": [
    {
      "byteLength": 62632,
      "uri": "3dmodels-cc0.bin"
    }
  ]
}
