{
  "asset": {
    "generator": "Terminator tools/build-map-assets.mjs with glTF-Transform 4.5.0 and three.js",
    "version": "2.0"
  },
  "accessors": [
    {
      "name": "Fractured flank block POSITION",
      "type": "VEC3",
      "componentType": 5126,
      "count": 24,
      "max": [
        0.32083332538604736,
        0.36250001192092896,
        0.5
      ],
      "min": [
        -0.32083332538604736,
        -0.36250001192092896,
        -0.5
      ],
      "bufferView": 0,
      "byteOffset": 0
    },
    {
      "name": "Fractured flank block NORMAL",
      "type": "VEC3",
      "componentType": 5126,
      "count": 24,
      "bufferView": 0,
      "byteOffset": 12
    },
    {
      "name": "Fractured flank block TEXCOORD_0",
      "type": "VEC2",
      "componentType": 5126,
      "count": 24,
      "bufferView": 0,
      "byteOffset": 24
    },
    {
      "name": "Fractured flank block indices",
      "type": "SCALAR",
      "componentType": 5123,
      "count": 36,
      "bufferView": 1,
      "byteOffset": 0
    },
    {
      "name": "Fractured flank block indices",
      "type": "SCALAR",
      "componentType": 5123,
      "count": 36,
      "bufferView": 1,
      "byteOffset": 72
    },
    {
      "name": "Fractured flank block indices",
      "type": "SCALAR",
      "componentType": 5123,
      "count": 36,
      "bufferView": 1,
      "byteOffset": 144
    },
    {
      "name": "Fractured flank block indices",
      "type": "SCALAR",
      "componentType": 5123,
      "count": 36,
      "bufferView": 1,
      "byteOffset": 216
    },
    {
      "name": "Fractured flank block indices",
      "type": "SCALAR",
      "componentType": 5123,
      "count": 36,
      "bufferView": 1,
      "byteOffset": 288
    },
    {
      "name": "Fractured flank block indices",
      "type": "SCALAR",
      "componentType": 5123,
      "count": 36,
      "bufferView": 1,
      "byteOffset": 360
    },
    {
      "name": "Fractured flank block indices",
      "type": "SCALAR",
      "componentType": 5123,
      "count": 36,
      "bufferView": 1,
      "byteOffset": 432
    },
    {
      "name": "Fractured flank block indices",
      "type": "SCALAR",
      "componentType": 5123,
      "count": 36,
      "bufferView": 1,
      "byteOffset": 504
    },
    {
      "name": "Fractured flank block indices",
      "type": "SCALAR",
      "componentType": 5123,
      "count": 36,
      "bufferView": 1,
      "byteOffset": 576
    },
    {
      "name": "Fractured flank block indices",
      "type": "SCALAR",
      "componentType": 5123,
      "count": 36,
      "bufferView": 1,
      "byteOffset": 648
    },
    {
      "name": "Fractured flank block indices",
      "type": "SCALAR",
      "componentType": 5123,
      "count": 36,
      "bufferView": 1,
      "byteOffset": 720
    },
    {
      "name": "Fractured flank block indices",
      "type": "SCALAR",
      "componentType": 5123,
      "count": 36,
      "bufferView": 1,
      "byteOffset": 792
    },
    {
      "name": "Fractured flank block indices",
      "type": "SCALAR",
      "componentType": 5123,
      "count": 36,
      "bufferView": 1,
      "byteOffset": 864
    },
    {
      "name": "Fractured flank block indices",
      "type": "SCALAR",
      "componentType": 5123,
      "count": 36,
      "bufferView": 1,
      "byteOffset": 936
    },
    {
      "name": "Fractured flank block indices",
      "type": "SCALAR",
      "componentType": 5123,
      "count": 36,
      "bufferView": 1,
      "byteOffset": 1008
    },
    {
      "name": "Fractured flank block indices",
      "type": "SCALAR",
      "componentType": 5123,
      "count": 36,
      "bufferView": 1,
      "byteOffset": 1080
    },
    {
      "name": "Fractured flank block indices",
      "type": "SCALAR",
      "componentType": 5123,
      "count": 36,
      "bufferView": 1,
      "byteOffset": 1152
    },
    {
      "name": "Fractured flank block indices",
      "type": "SCALAR",
      "componentType": 5123,
      "count": 36,
      "bufferView": 1,
      "byteOffset": 1224
    },
    {
      "name": "Fractured flank block indices",
      "type": "SCALAR",
      "componentType": 5123,
      "count": 36,
      "bufferView": 1,
      "byteOffset": 1296
    },
    {
      "name": "Fractured flank block indices",
      "type": "SCALAR",
      "componentType": 5123,
      "count": 36,
      "bufferView": 1,
      "byteOffset": 1368
    },
    {
      "name": "Fractured flank block indices",
      "type": "SCALAR",
      "componentType": 5123,
      "count": 36,
      "bufferView": 1,
      "byteOffset": 1440
    },
    {
      "name": "Fractured flank block indices",
      "type": "SCALAR",
      "componentType": 5123,
      "count": 36,
      "bufferView": 1,
      "byteOffset": 1512
    },
    {
      "name": "Fractured flank block indices",
      "type": "SCALAR",
      "componentType": 5123,
      "count": 36,
      "bufferView": 1,
      "byteOffset": 1584
    },
    {
      "name": "Fractured flank block indices",
      "type": "SCALAR",
      "componentType": 5123,
      "count": 36,
      "bufferView": 1,
      "byteOffset": 1656
    },
    {
      "name": "Fractured flank block POSITION",
      "type": "VEC3",
      "componentType": 5126,
      "count": 24,
      "max": [
        0.32083332538604736,
        0.36250001192092896,
        0.5
      ],
      "min": [
        -0.32083332538604736,
        -0.36250001192092896,
        -0.5
      ],
      "bufferView": 2,
      "byteOffset": 0
    },
    {
      "name": "Fractured flank block NORMAL",
      "type": "VEC3",
      "componentType": 5126,
      "count": 24,
      "bufferView": 2,
      "byteOffset": 12
    },
    {
      "name": "Fractured flank block TEXCOORD_0",
      "type": "VEC2",
      "componentType": 5126,
      "count": 24,
      "bufferView": 2,
      "byteOffset": 24
    },
    {
      "name": "Fractured flank block POSITION",
      "type": "VEC3",
      "componentType": 5126,
      "count": 24,
      "max": [
        0.32083332538604736,
        0.36250001192092896,
        0.5
      ],
      "min": [
        -0.32083332538604736,
        -0.36250001192092896,
        -0.5
      ],
      "bufferView": 3,
      "byteOffset": 0
    },
    {
      "name": "Fractured flank block NORMAL",
      "type": "VEC3",
      "componentType": 5126,
      "count": 24,
      "bufferView": 3,
      "byteOffset": 12
    },
    {
      "name": "Fractured flank block TEXCOORD_0",
      "type": "VEC2",
      "componentType": 5126,
      "count": 24,
      "bufferView": 3,
      "byteOffset": 24
    },
    {
      "name": "Fractured flank block POSITION",
      "type": "VEC3",
      "componentType": 5126,
      "count": 24,
      "max": [
        0.32083332538604736,
        0.36250001192092896,
        0.5
      ],
      "min": [
        -0.32083332538604736,
        -0.36250001192092896,
        -0.5
      ],
      "bufferView": 4,
      "byteOffset": 0
    },
    {
      "name": "Fractured flank block NORMAL",
      "type": "VEC3",
      "componentType": 5126,
      "count": 24,
      "bufferView": 4,
      "byteOffset": 12
    },
    {
      "name": "Fractured flank block TEXCOORD_0",
      "type": "VEC2",
      "componentType": 5126,
      "count": 24,
      "bufferView": 4,
      "byteOffset": 24
    },
    {
      "name": "Fractured flank block POSITION",
      "type": "VEC3",
      "componentType": 5126,
      "count": 24,
      "max": [
        0.32083332538604736,
        0.36250001192092896,
        0.5
      ],
      "min": [
        -0.32083332538604736,
        -0.36250001192092896,
        -0.5
      ],
      "bufferView": 5,
      "byteOffset": 0
    },
    {
      "name": "Fractured flank block NORMAL",
      "type": "VEC3",
      "componentType": 5126,
      "count": 24,
      "bufferView": 5,
      "byteOffset": 12
    },
    {
      "name": "Fractured flank block TEXCOORD_0",
      "type": "VEC2",
      "componentType": 5126,
      "count": 24,
      "bufferView": 5,
      "byteOffset": 24
    },
    {
      "name": "Fractured flank block POSITION",
      "type": "VEC3",
      "componentType": 5126,
      "count": 24,
      "max": [
        0.32083332538604736,
        0.36250001192092896,
        0.5
      ],
      "min": [
        -0.32083332538604736,
        -0.36250001192092896,
        -0.5
      ],
      "bufferView": 6,
      "byteOffset": 0
    },
    {
      "name": "Fractured flank block NORMAL",
      "type": "VEC3",
      "componentType": 5126,
      "count": 24,
      "bufferView": 6,
      "byteOffset": 12
    },
    {
      "name": "Fractured flank block TEXCOORD_0",
      "type": "VEC2",
      "componentType": 5126,
      "count": 24,
      "bufferView": 6,
      "byteOffset": 24
    },
    {
      "name": "Fractured flank block POSITION",
      "type": "VEC3",
      "componentType": 5126,
      "count": 24,
      "max": [
        0.32083332538604736,
        0.36250001192092896,
        0.5
      ],
      "min": [
        -0.32083332538604736,
        -0.36250001192092896,
        -0.5
      ],
      "bufferView": 7,
      "byteOffset": 0
    },
    {
      "name": "Fractured flank block NORMAL",
      "type": "VEC3",
      "componentType": 5126,
      "count": 24,
      "bufferView": 7,
      "byteOffset": 12
    },
    {
      "name": "Fractured flank block TEXCOORD_0",
      "type": "VEC2",
      "componentType": 5126,
      "count": 24,
      "bufferView": 7,
      "byteOffset": 24
    },
    {
      "name": "Fractured flank block POSITION",
      "type": "VEC3",
      "componentType": 5126,
      "count": 24,
      "max": [
        0.32083332538604736,
        0.36250001192092896,
        0.5
      ],
      "min": [
        -0.32083332538604736,
        -0.36250001192092896,
        -0.5
      ],
      "bufferView": 8,
      "byteOffset": 0
    },
    {
      "name": "Fractured flank block NORMAL",
      "type": "VEC3",
      "componentType": 5126,
      "count": 24,
      "bufferView": 8,
      "byteOffset": 12
    },
    {
      "name": "Fractured flank block TEXCOORD_0",
      "type": "VEC2",
      "componentType": 5126,
      "count": 24,
      "bufferView": 8,
      "byteOffset": 24
    },
    {
      "name": "Fractured flank block POSITION",
      "type": "VEC3",
      "componentType": 5126,
      "count": 24,
      "max": [
        0.32083332538604736,
        0.36250001192092896,
        0.5
      ],
      "min": [
        -0.32083332538604736,
        -0.36250001192092896,
        -0.5
      ],
      "bufferView": 9,
      "byteOffset": 0
    },
    {
      "name": "Fractured flank block NORMAL",
      "type": "VEC3",
      "componentType": 5126,
      "count": 24,
      "bufferView": 9,
      "byteOffset": 12
    },
    {
      "name": "Fractured flank block TEXCOORD_0",
      "type": "VEC2",
      "componentType": 5126,
      "count": 24,
      "bufferView": 9,
      "byteOffset": 24
    },
    {
      "name": "Fractured flank block POSITION",
      "type": "VEC3",
      "componentType": 5126,
      "count": 24,
      "max": [
        0.32083332538604736,
        0.36250001192092896,
        0.5
      ],
      "min": [
        -0.32083332538604736,
        -0.36250001192092896,
        -0.5
      ],
      "bufferView": 10,
      "byteOffset": 0
    },
    {
      "name": "Fractured flank block NORMAL",
      "type": "VEC3",
      "componentType": 5126,
      "count": 24,
      "bufferView": 10,
      "byteOffset": 12
    },
    {
      "name": "Fractured flank block TEXCOORD_0",
      "type": "VEC2",
      "componentType": 5126,
      "count": 24,
      "bufferView": 10,
      "byteOffset": 24
    },
    {
      "name": "Fractured flank block POSITION",
      "type": "VEC3",
      "componentType": 5126,
      "count": 24,
      "max": [
        0.32083332538604736,
        0.36250001192092896,
        0.5
      ],
      "min": [
        -0.32083332538604736,
        -0.36250001192092896,
        -0.5
      ],
      "bufferView": 11,
      "byteOffset": 0
    },
    {
      "name": "Fractured flank block NORMAL",
      "type": "VEC3",
      "componentType": 5126,
      "count": 24,
      "bufferView": 11,
      "byteOffset": 12
    },
    {
      "name": "Fractured flank block TEXCOORD_0",
      "type": "VEC2",
      "componentType": 5126,
      "count": 24,
      "bufferView": 11,
      "byteOffset": 24
    },
    {
      "name": "Fractured flank block POSITION",
      "type": "VEC3",
      "componentType": 5126,
      "count": 24,
      "max": [
        0.32083332538604736,
        0.36250001192092896,
        0.5
      ],
      "min": [
        -0.32083332538604736,
        -0.36250001192092896,
        -0.5
      ],
      "bufferView": 12,
      "byteOffset": 0
    },
    {
      "name": "Fractured flank block NORMAL",
      "type": "VEC3",
      "componentType": 5126,
      "count": 24,
      "bufferView": 12,
      "byteOffset": 12
    },
    {
      "name": "Fractured flank block TEXCOORD_0",
      "type": "VEC2",
      "componentType": 5126,
      "count": 24,
      "bufferView": 12,
      "byteOffset": 24
    },
    {
      "name": "Fractured flank block POSITION",
      "type": "VEC3",
      "componentType": 5126,
      "count": 24,
      "max": [
        0.32083332538604736,
        0.36250001192092896,
        0.5
      ],
      "min": [
        -0.32083332538604736,
        -0.36250001192092896,
        -0.5
      ],
      "bufferView": 13,
      "byteOffset": 0
    },
    {
      "name": "Fractured flank block NORMAL",
      "type": "VEC3",
      "componentType": 5126,
      "count": 24,
      "bufferView": 13,
      "byteOffset": 12
    },
    {
      "name": "Fractured flank block TEXCOORD_0",
      "type": "VEC2",
      "componentType": 5126,
      "count": 24,
      "bufferView": 13,
      "byteOffset": 24
    },
    {
      "name": "Fractured flank block POSITION",
      "type": "VEC3",
      "componentType": 5126,
      "count": 24,
      "max": [
        0.32083332538604736,
        0.36250001192092896,
        0.5
      ],
      "min": [
        -0.32083332538604736,
        -0.36250001192092896,
        -0.5
      ],
      "bufferView": 14,
      "byteOffset": 0
    },
    {
      "name": "Fractured flank block NORMAL",
      "type": "VEC3",
      "componentType": 5126,
      "count": 24,
      "bufferView": 14,
      "byteOffset": 12
    },
    {
      "name": "Fractured flank block TEXCOORD_0",
      "type": "VEC2",
      "componentType": 5126,
      "count": 24,
      "bufferView": 14,
      "byteOffset": 24
    },
    {
      "name": "Fractured flank block POSITION",
      "type": "VEC3",
      "componentType": 5126,
      "count": 24,
      "max": [
        0.32083332538604736,
        0.36250001192092896,
        0.5
      ],
      "min": [
        -0.32083332538604736,
        -0.36250001192092896,
        -0.5
      ],
      "bufferView": 15,
      "byteOffset": 0
    },
    {
      "name": "Fractured flank block NORMAL",
      "type": "VEC3",
      "componentType": 5126,
      "count": 24,
      "bufferView": 15,
      "byteOffset": 12
    },
    {
      "name": "Fractured flank block TEXCOORD_0",
      "type": "VEC2",
      "componentType": 5126,
      "count": 24,
      "bufferView": 15,
      "byteOffset": 24
    },
    {
      "name": "Fractured flank block POSITION",
      "type": "VEC3",
      "componentType": 5126,
      "count": 24,
      "max": [
        0.32083332538604736,
        0.36250001192092896,
        0.5
      ],
      "min": [
        -0.32083332538604736,
        -0.36250001192092896,
        -0.5
      ],
      "bufferView": 16,
      "byteOffset": 0
    },
    {
      "name": "Fractured flank block NORMAL",
      "type": "VEC3",
      "componentType": 5126,
      "count": 24,
      "bufferView": 16,
      "byteOffset": 12
    },
    {
      "name": "Fractured flank block TEXCOORD_0",
      "type": "VEC2",
      "componentType": 5126,
      "count": 24,
      "bufferView": 16,
      "byteOffset": 24
    },
    {
      "name": "Fractured flank block POSITION",
      "type": "VEC3",
      "componentType": 5126,
      "count": 24,
      "max": [
        0.32083332538604736,
        0.36250001192092896,
        0.5
      ],
      "min": [
        -0.32083332538604736,
        -0.36250001192092896,
        -0.5
      ],
      "bufferView": 17,
      "byteOffset": 0
    },
    {
      "name": "Fractured flank block NORMAL",
      "type": "VEC3",
      "componentType": 5126,
      "count": 24,
      "bufferView": 17,
      "byteOffset": 12
    },
    {
      "name": "Fractured flank block TEXCOORD_0",
      "type": "VEC2",
      "componentType": 5126,
      "count": 24,
      "bufferView": 17,
      "byteOffset": 24
    },
    {
      "name": "Fractured flank block POSITION",
      "type": "VEC3",
      "componentType": 5126,
      "count": 24,
      "max": [
        0.32083332538604736,
        0.36250001192092896,
        0.5
      ],
      "min": [
        -0.32083332538604736,
        -0.36250001192092896,
        -0.5
      ],
      "bufferView": 18,
      "byteOffset": 0
    },
    {
      "name": "Fractured flank block NORMAL",
      "type": "VEC3",
      "componentType": 5126,
      "count": 24,
      "bufferView": 18,
      "byteOffset": 12
    },
    {
      "name": "Fractured flank block TEXCOORD_0",
      "type": "VEC2",
      "componentType": 5126,
      "count": 24,
      "bufferView": 18,
      "byteOffset": 24
    },
    {
      "name": "Fractured flank block POSITION",
      "type": "VEC3",
      "componentType": 5126,
      "count": 24,
      "max": [
        0.32083332538604736,
        0.36250001192092896,
        0.5
      ],
      "min": [
        -0.32083332538604736,
        -0.36250001192092896,
        -0.5
      ],
      "bufferView": 19,
      "byteOffset": 0
    },
    {
      "name": "Fractured flank block NORMAL",
      "type": "VEC3",
      "componentType": 5126,
      "count": 24,
      "bufferView": 19,
      "byteOffset": 12
    },
    {
      "name": "Fractured flank block TEXCOORD_0",
      "type": "VEC2",
      "componentType": 5126,
      "count": 24,
      "bufferView": 19,
      "byteOffset": 24
    },
    {
      "name": "Fractured flank block POSITION",
      "type": "VEC3",
      "componentType": 5126,
      "count": 24,
      "max": [
        0.32083332538604736,
        0.36250001192092896,
        0.5
      ],
      "min": [
        -0.32083332538604736,
        -0.36250001192092896,
        -0.5
      ],
      "bufferView": 20,
      "byteOffset": 0
    },
    {
      "name": "Fractured flank block NORMAL",
      "type": "VEC3",
      "componentType": 5126,
      "count": 24,
      "bufferView": 20,
      "byteOffset": 12
    },
    {
      "name": "Fractured flank block TEXCOORD_0",
      "type": "VEC2",
      "componentType": 5126,
      "count": 24,
      "bufferView": 20,
      "byteOffset": 24
    },
    {
      "name": "Fractured flank block POSITION",
      "type": "VEC3",
      "componentType": 5126,
      "count": 24,
      "max": [
        0.32083332538604736,
        0.36250001192092896,
        0.5
      ],
      "min": [
        -0.32083332538604736,
        -0.36250001192092896,
        -0.5
      ],
      "bufferView": 21,
      "byteOffset": 0
    },
    {
      "name": "Fractured flank block NORMAL",
      "type": "VEC3",
      "componentType": 5126,
      "count": 24,
      "bufferView": 21,
      "byteOffset": 12
    },
    {
      "name": "Fractured flank block TEXCOORD_0",
      "type": "VEC2",
      "componentType": 5126,
      "count": 24,
      "bufferView": 21,
      "byteOffset": 24
    },
    {
      "name": "Fractured flank block POSITION",
      "type": "VEC3",
      "componentType": 5126,
      "count": 24,
      "max": [
        0.32083332538604736,
        0.36250001192092896,
        0.5
      ],
      "min": [
        -0.32083332538604736,
        -0.36250001192092896,
        -0.5
      ],
      "bufferView": 22,
      "byteOffset": 0
    },
    {
      "name": "Fractured flank block NORMAL",
      "type": "VEC3",
      "componentType": 5126,
      "count": 24,
      "bufferView": 22,
      "byteOffset": 12
    },
    {
      "name": "Fractured flank block TEXCOORD_0",
      "type": "VEC2",
      "componentType": 5126,
      "count": 24,
      "bufferView": 22,
      "byteOffset": 24
    },
    {
      "name": "Fractured flank block POSITION",
      "type": "VEC3",
      "componentType": 5126,
      "count": 24,
      "max": [
        0.32083332538604736,
        0.36250001192092896,
        0.5
      ],
      "min": [
        -0.32083332538604736,
        -0.36250001192092896,
        -0.5
      ],
      "bufferView": 23,
      "byteOffset": 0
    },
    {
      "name": "Fractured flank block NORMAL",
      "type": "VEC3",
      "componentType": 5126,
      "count": 24,
      "bufferView": 23,
      "byteOffset": 12
    },
    {
      "name": "Fractured flank block TEXCOORD_0",
      "type": "VEC2",
      "componentType": 5126,
      "count": 24,
      "bufferView": 23,
      "byteOffset": 24
    },
    {
      "name": "Fractured flank block POSITION",
      "type": "VEC3",
      "componentType": 5126,
      "count": 24,
      "max": [
        0.32083332538604736,
        0.36250001192092896,
        0.5
      ],
      "min": [
        -0.32083332538604736,
        -0.36250001192092896,
        -0.5
      ],
      "bufferView": 24,
      "byteOffset": 0
    },
    {
      "name": "Fractured flank block NORMAL",
      "type": "VEC3",
      "componentType": 5126,
      "count": 24,
      "bufferView": 24,
      "byteOffset": 12
    },
    {
      "name": "Fractured flank block TEXCOORD_0",
      "type": "VEC2",
      "componentType": 5126,
      "count": 24,
      "bufferView": 24,
      "byteOffset": 24
    }
  ],
  "bufferViews": [
    {
      "buffer": 0,
      "byteOffset": 0,
      "byteLength": 768,
      "byteStride": 32,
      "target": 34962
    },
    {
      "buffer": 0,
      "byteOffset": 768,
      "byteLength": 1728,
      "target": 34963
    },
    {
      "buffer": 0,
      "byteOffset": 2496,
      "byteLength": 768,
      "byteStride": 32,
      "target": 34962
    },
    {
      "buffer": 0,
      "byteOffset": 3264,
      "byteLength": 768,
      "byteStride": 32,
      "target": 34962
    },
    {
      "buffer": 0,
      "byteOffset": 4032,
      "byteLength": 768,
      "byteStride": 32,
      "target": 34962
    },
    {
      "buffer": 0,
      "byteOffset": 4800,
      "byteLength": 768,
      "byteStride": 32,
      "target": 34962
    },
    {
      "buffer": 0,
      "byteOffset": 5568,
      "byteLength": 768,
      "byteStride": 32,
      "target": 34962
    },
    {
      "buffer": 0,
      "byteOffset": 6336,
      "byteLength": 768,
      "byteStride": 32,
      "target": 34962
    },
    {
      "buffer": 0,
      "byteOffset": 7104,
      "byteLength": 768,
      "byteStride": 32,
      "target": 34962
    },
    {
      "buffer": 0,
      "byteOffset": 7872,
      "byteLength": 768,
      "byteStride": 32,
      "target": 34962
    },
    {
      "buffer": 0,
      "byteOffset": 8640,
      "byteLength": 768,
      "byteStride": 32,
      "target": 34962
    },
    {
      "buffer": 0,
      "byteOffset": 9408,
      "byteLength": 768,
      "byteStride": 32,
      "target": 34962
    },
    {
      "buffer": 0,
      "byteOffset": 10176,
      "byteLength": 768,
      "byteStride": 32,
      "target": 34962
    },
    {
      "buffer": 0,
      "byteOffset": 10944,
      "byteLength": 768,
      "byteStride": 32,
      "target": 34962
    },
    {
      "buffer": 0,
      "byteOffset": 11712,
      "byteLength": 768,
      "byteStride": 32,
      "target": 34962
    },
    {
      "buffer": 0,
      "byteOffset": 12480,
      "byteLength": 768,
      "byteStride": 32,
      "target": 34962
    },
    {
      "buffer": 0,
      "byteOffset": 13248,
      "byteLength": 768,
      "byteStride": 32,
      "target": 34962
    },
    {
      "buffer": 0,
      "byteOffset": 14016,
      "byteLength": 768,
      "byteStride": 32,
      "target": 34962
    },
    {
      "buffer": 0,
      "byteOffset": 14784,
      "byteLength": 768,
      "byteStride": 32,
      "target": 34962
    },
    {
      "buffer": 0,
      "byteOffset": 15552,
      "byteLength": 768,
      "byteStride": 32,
      "target": 34962
    },
    {
      "buffer": 0,
      "byteOffset": 16320,
      "byteLength": 768,
      "byteStride": 32,
      "target": 34962
    },
    {
      "buffer": 0,
      "byteOffset": 17088,
      "byteLength": 768,
      "byteStride": 32,
      "target": 34962
    },
    {
      "buffer": 0,
      "byteOffset": 17856,
      "byteLength": 768,
      "byteStride": 32,
      "target": 34962
    },
    {
      "buffer": 0,
      "byteOffset": 18624,
      "byteLength": 768,
      "byteStride": 32,
      "target": 34962
    },
    {
      "buffer": 0,
      "byteOffset": 19392,
      "byteLength": 768,
      "byteStride": 32,
      "target": 34962
    }
  ],
  "samplers": [
    {
      "wrapS": 10497,
      "wrapT": 10497
    }
  ],
  "textures": [
    {
      "source": 0,
      "sampler": 0
    },
    {
      "source": 1,
      "sampler": 0
    },
    {
      "source": 2,
      "sampler": 0
    }
  ],
  "images": [
    {
      "name": "concrete_wall_007_diff_1k.jpg",
      "mimeType": "image/jpeg",
      "uri": "/kite3d/assets/textures/map/concrete_wall_007_diff_1k.jpg"
    },
    {
      "name": "concrete_wall_007_nor_gl_1k.jpg",
      "mimeType": "image/jpeg",
      "uri": "/kite3d/assets/textures/map/concrete_wall_007_nor_gl_1k.jpg"
    },
    {
      "name": "concrete_wall_007_arm_1k.jpg",
      "mimeType": "image/jpeg",
      "uri": "/kite3d/assets/textures/map/concrete_wall_007_arm_1k.jpg"
    }
  ],
  "buffers": [
    {
      "name": "Map piece geometry",
      "uri": "flank-4x3x1.bin",
      "byteLength": 20160
    }
  ],
  "materials": [
    {
      "name": "Map concrete",
      "pbrMetallicRoughness": {
        "baseColorFactor": [
          0.56,
          0.59,
          0.59,
          1
        ],
        "roughnessFactor": 0.9,
        "metallicFactor": 0,
        "baseColorTexture": {
          "index": 0
        },
        "metallicRoughnessTexture": {
          "index": 2
        }
      },
      "normalTexture": {
        "index": 1
      },
      "occlusionTexture": {
        "index": 2
      }
    }
  ],
  "meshes": [
    {
      "name": "Fractured flank block",
      "primitives": [
        {
          "attributes": {
            "POSITION": 0,
            "NORMAL": 1,
            "TEXCOORD_0": 2
          },
          "mode": 4,
          "material": 0,
          "indices": 3
        }
      ]
    },
    {
      "name": "Fractured flank block",
      "primitives": [
        {
          "attributes": {
            "POSITION": 27,
            "NORMAL": 28,
            "TEXCOORD_0": 29
          },
          "mode": 4,
          "material": 0,
          "indices": 4
        }
      ]
    },
    {
      "name": "Fractured flank block",
      "primitives": [
        {
          "attributes": {
            "POSITION": 30,
            "NORMAL": 31,
            "TEXCOORD_0": 32
          },
          "mode": 4,
          "material": 0,
          "indices": 5
        }
      ]
    },
    {
      "name": "Fractured flank block",
      "primitives": [
        {
          "attributes": {
            "POSITION": 33,
            "NORMAL": 34,
            "TEXCOORD_0": 35
          },
          "mode": 4,
          "material": 0,
          "indices": 6
        }
      ]
    },
    {
      "name": "Fractured flank block",
      "primitives": [
        {
          "attributes": {
            "POSITION": 36,
            "NORMAL": 37,
            "TEXCOORD_0": 38
          },
          "mode": 4,
          "material": 0,
          "indices": 7
        }
      ]
    },
    {
      "name": "Fractured flank block",
      "primitives": [
        {
          "attributes": {
            "POSITION": 39,
            "NORMAL": 40,
            "TEXCOORD_0": 41
          },
          "mode": 4,
          "material": 0,
          "indices": 8
        }
      ]
    },
    {
      "name": "Fractured flank block",
      "primitives": [
        {
          "attributes": {
            "POSITION": 42,
            "NORMAL": 43,
            "TEXCOORD_0": 44
          },
          "mode": 4,
          "material": 0,
          "indices": 9
        }
      ]
    },
    {
      "name": "Fractured flank block",
      "primitives": [
        {
          "attributes": {
            "POSITION": 45,
            "NORMAL": 46,
            "TEXCOORD_0": 47
          },
          "mode": 4,
          "material": 0,
          "indices": 10
        }
      ]
    },
    {
      "name": "Fractured flank block",
      "primitives": [
        {
          "attributes": {
            "POSITION": 48,
            "NORMAL": 49,
            "TEXCOORD_0": 50
          },
          "mode": 4,
          "material": 0,
          "indices": 11
        }
      ]
    },
    {
      "name": "Fractured flank block",
      "primitives": [
        {
          "attributes": {
            "POSITION": 51,
            "NORMAL": 52,
            "TEXCOORD_0": 53
          },
          "mode": 4,
          "material": 0,
          "indices": 12
        }
      ]
    },
    {
      "name": "Fractured flank block",
      "primitives": [
        {
          "attributes": {
            "POSITION": 54,
            "NORMAL": 55,
            "TEXCOORD_0": 56
          },
          "mode": 4,
          "material": 0,
          "indices": 13
        }
      ]
    },
    {
      "name": "Fractured flank block",
      "primitives": [
        {
          "attributes": {
            "POSITION": 57,
            "NORMAL": 58,
            "TEXCOORD_0": 59
          },
          "mode": 4,
          "material": 0,
          "indices": 14
        }
      ]
    },
    {
      "name": "Fractured flank block",
      "primitives": [
        {
          "attributes": {
            "POSITION": 60,
            "NORMAL": 61,
            "TEXCOORD_0": 62
          },
          "mode": 4,
          "material": 0,
          "indices": 15
        }
      ]
    },
    {
      "name": "Fractured flank block",
      "primitives": [
        {
          "attributes": {
            "POSITION": 63,
            "NORMAL": 64,
            "TEXCOORD_0": 65
          },
          "mode": 4,
          "material": 0,
          "indices": 16
        }
      ]
    },
    {
      "name": "Fractured flank block",
      "primitives": [
        {
          "attributes": {
            "POSITION": 66,
            "NORMAL": 67,
            "TEXCOORD_0": 68
          },
          "mode": 4,
          "material": 0,
          "indices": 17
        }
      ]
    },
    {
      "name": "Fractured flank block",
      "primitives": [
        {
          "attributes": {
            "POSITION": 69,
            "NORMAL": 70,
            "TEXCOORD_0": 71
          },
          "mode": 4,
          "material": 0,
          "indices": 18
        }
      ]
    },
    {
      "name": "Fractured flank block",
      "primitives": [
        {
          "attributes": {
            "POSITION": 72,
            "NORMAL": 73,
            "TEXCOORD_0": 74
          },
          "mode": 4,
          "material": 0,
          "indices": 19
        }
      ]
    },
    {
      "name": "Fractured flank block",
      "primitives": [
        {
          "attributes": {
            "POSITION": 75,
            "NORMAL": 76,
            "TEXCOORD_0": 77
          },
          "mode": 4,
          "material": 0,
          "indices": 20
        }
      ]
    },
    {
      "name": "Fractured flank block",
      "primitives": [
        {
          "attributes": {
            "POSITION": 78,
            "NORMAL": 79,
            "TEXCOORD_0": 80
          },
          "mode": 4,
          "material": 0,
          "indices": 21
        }
      ]
    },
    {
      "name": "Fractured flank block",
      "primitives": [
        {
          "attributes": {
            "POSITION": 81,
            "NORMAL": 82,
            "TEXCOORD_0": 83
          },
          "mode": 4,
          "material": 0,
          "indices": 22
        }
      ]
    },
    {
      "name": "Fractured flank block",
      "primitives": [
        {
          "attributes": {
            "POSITION": 84,
            "NORMAL": 85,
            "TEXCOORD_0": 86
          },
          "mode": 4,
          "material": 0,
          "indices": 23
        }
      ]
    },
    {
      "name": "Fractured flank block",
      "primitives": [
        {
          "attributes": {
            "POSITION": 87,
            "NORMAL": 88,
            "TEXCOORD_0": 89
          },
          "mode": 4,
          "material": 0,
          "indices": 24
        }
      ]
    },
    {
      "name": "Fractured flank block",
      "primitives": [
        {
          "attributes": {
            "POSITION": 90,
            "NORMAL": 91,
            "TEXCOORD_0": 92
          },
          "mode": 4,
          "material": 0,
          "indices": 25
        }
      ]
    },
    {
      "name": "Fractured flank block",
      "primitives": [
        {
          "attributes": {
            "POSITION": 93,
            "NORMAL": 94,
            "TEXCOORD_0": 95
          },
          "mode": 4,
          "material": 0,
          "indices": 26
        }
      ]
    }
  ],
  "nodes": [
    {
      "name": "Flank wall asset",
      "extras": {
        "mapPieceAsset": true
      },
      "children": [
        1,
        2,
        3,
        4,
        5,
        6,
        7,
        8,
        9,
        10,
        11,
        12,
        13,
        14,
        15,
        16,
        17,
        18,
        19,
        20,
        21,
        22,
        23,
        24
      ]
    },
    {
      "name": "Fractured flank block",
      "extras": {
        "material": "concrete"
      },
      "translation": [
        -1.6666666666666667,
        -1.125,
        0
      ],
      "mesh": 0
    },
    {
      "name": "Fractured flank block",
      "extras": {
        "material": "concrete"
      },
      "translation": [
        -1,
        -1.125,
        0
      ],
      "mesh": 1
    },
    {
      "name": "Fractured flank block",
      "extras": {
        "material": "concrete"
      },
      "translation": [
        -0.3333333333333335,
        -1.125,
        0
      ],
      "mesh": 2
    },
    {
      "name": "Fractured flank block",
      "extras": {
        "material": "concrete"
      },
      "translation": [
        0.33333333333333304,
        -1.125,
        0
      ],
      "mesh": 3
    },
    {
      "name": "Fractured flank block",
      "extras": {
        "material": "concrete"
      },
      "translation": [
        1,
        -1.125,
        0
      ],
      "mesh": 4
    },
    {
      "name": "Fractured flank block",
      "extras": {
        "material": "concrete"
      },
      "translation": [
        1.6666666666666665,
        -1.125,
        0
      ],
      "mesh": 5
    },
    {
      "name": "Fractured flank block",
      "extras": {
        "material": "concrete"
      },
      "translation": [
        -1.6666666666666667,
        -0.375,
        0
      ],
      "mesh": 6
    },
    {
      "name": "Fractured flank block",
      "extras": {
        "material": "concrete"
      },
      "translation": [
        -1,
        -0.375,
        0
      ],
      "mesh": 7
    },
    {
      "name": "Fractured flank block",
      "extras": {
        "material": "concrete"
      },
      "translation": [
        -0.3333333333333335,
        -0.375,
        0
      ],
      "mesh": 8
    },
    {
      "name": "Fractured flank block",
      "extras": {
        "material": "concrete"
      },
      "translation": [
        0.33333333333333304,
        -0.375,
        0
      ],
      "mesh": 9
    },
    {
      "name": "Fractured flank block",
      "extras": {
        "material": "concrete"
      },
      "translation": [
        1,
        -0.375,
        0
      ],
      "mesh": 10
    },
    {
      "name": "Fractured flank block",
      "extras": {
        "material": "concrete"
      },
      "translation": [
        1.6666666666666665,
        -0.375,
        0
      ],
      "mesh": 11
    },
    {
      "name": "Fractured flank block",
      "extras": {
        "material": "concrete"
      },
      "translation": [
        -1.6666666666666667,
        0.375,
        0
      ],
      "mesh": 12
    },
    {
      "name": "Fractured flank block",
      "extras": {
        "material": "concrete"
      },
      "translation": [
        -1,
        0.375,
        0
      ],
      "mesh": 13
    },
    {
      "name": "Fractured flank block",
      "extras": {
        "material": "concrete"
      },
      "translation": [
        -0.3333333333333335,
        0.375,
        0
      ],
      "mesh": 14
    },
    {
      "name": "Fractured flank block",
      "extras": {
        "material": "concrete"
      },
      "translation": [
        0.33333333333333304,
        0.375,
        0
      ],
      "mesh": 15
    },
    {
      "name": "Fractured flank block",
      "extras": {
        "material": "concrete"
      },
      "translation": [
        1,
        0.375,
        0
      ],
      "mesh": 16
    },
    {
      "name": "Fractured flank block",
      "extras": {
        "material": "concrete"
      },
      "translation": [
        1.6666666666666665,
        0.375,
        0
      ],
      "mesh": 17
    },
    {
      "name": "Fractured flank block",
      "extras": {
        "material": "concrete"
      },
      "translation": [
        -1.6666666666666667,
        1.125,
        0
      ],
      "mesh": 18
    },
    {
      "name": "Fractured flank block",
      "extras": {
        "material": "concrete"
      },
      "translation": [
        -1,
        1.125,
        0
      ],
      "mesh": 19
    },
    {
      "name": "Fractured flank block",
      "extras": {
        "material": "concrete"
      },
      "translation": [
        -0.3333333333333335,
        1.125,
        0
      ],
      "mesh": 20
    },
    {
      "name": "Fractured flank block",
      "extras": {
        "material": "concrete"
      },
      "translation": [
        0.33333333333333304,
        1.125,
        0
      ],
      "mesh": 21
    },
    {
      "name": "Fractured flank block",
      "extras": {
        "material": "concrete"
      },
      "translation": [
        1,
        1.125,
        0
      ],
      "mesh": 22
    },
    {
      "name": "Fractured flank block",
      "extras": {
        "material": "concrete"
      },
      "translation": [
        1.6666666666666665,
        1.125,
        0
      ],
      "mesh": 23
    }
  ],
  "scenes": [
    {
      "name": "Flank 4x3x1",
      "nodes": [
        0
      ]
    }
  ]
}
