{
  "asset": {
    "generator": "Terminator original weapon authoring, glTF Transform 4.3",
    "version": "2.0"
  },
  "accessors": [
    {
      "name": "Bolt Surface position",
      "type": "VEC3",
      "componentType": 5126,
      "count": 324,
      "max": [
        0.028999999165534973,
        0.027499999850988388,
        -0.001999999862164259
      ],
      "min": [
        0.027000000700354576,
        0.008500000461935997,
        -0.05000000074505806
      ],
      "bufferView": 0,
      "byteOffset": 0
    },
    {
      "name": "Bolt Surface normal",
      "type": "VEC3",
      "componentType": 5126,
      "count": 324,
      "bufferView": 0,
      "byteOffset": 12
    },
    {
      "name": "Bolt Surface uv",
      "type": "VEC2",
      "componentType": 5126,
      "count": 324,
      "bufferView": 0,
      "byteOffset": 24
    },
    {
      "name": "Magazine Surface position",
      "type": "VEC3",
      "componentType": 5126,
      "count": 2592,
      "max": [
        0.02199999988079071,
        -0.01785624586045742,
        -0.06499999761581421
      ],
      "min": [
        -0.02199999988079071,
        -0.13300000131130219,
        -0.1615164428949356
      ],
      "bufferView": 1,
      "byteOffset": 0
    },
    {
      "name": "Magazine Surface normal",
      "type": "VEC3",
      "componentType": 5126,
      "count": 2592,
      "bufferView": 1,
      "byteOffset": 12
    },
    {
      "name": "Magazine Surface uv",
      "type": "VEC2",
      "componentType": 5126,
      "count": 2592,
      "bufferView": 1,
      "byteOffset": 24
    },
    {
      "name": "Receiver Surface position",
      "type": "VEC3",
      "componentType": 5126,
      "count": 4380,
      "max": [
        0.035876013338565826,
        0.052000001072883606,
        0.0729999989271164
      ],
      "min": [
        -0.029100000858306885,
        -0.03304615989327431,
        -0.2329999953508377
      ],
      "bufferView": 2,
      "byteOffset": 0
    },
    {
      "name": "Receiver Surface normal",
      "type": "VEC3",
      "componentType": 5126,
      "count": 4380,
      "bufferView": 2,
      "byteOffset": 12
    },
    {
      "name": "Receiver Surface uv",
      "type": "VEC2",
      "componentType": 5126,
      "count": 4380,
      "bufferView": 2,
      "byteOffset": 24
    },
    {
      "name": "Barrel Surface position",
      "type": "VEC3",
      "componentType": 5126,
      "count": 5184,
      "max": [
        0.014999999664723873,
        0.039000000804662704,
        -0.3700000047683716
      ],
      "min": [
        -0.014999999664723873,
        -0.016999999061226845,
        -0.8884999752044678
      ],
      "bufferView": 3,
      "byteOffset": 0
    },
    {
      "name": "Barrel Surface normal",
      "type": "VEC3",
      "componentType": 5126,
      "count": 5184,
      "bufferView": 3,
      "byteOffset": 12
    },
    {
      "name": "Barrel Surface uv",
      "type": "VEC2",
      "componentType": 5126,
      "count": 5184,
      "bufferView": 3,
      "byteOffset": 24
    },
    {
      "name": "Stock Surface position",
      "type": "VEC3",
      "componentType": 5126,
      "count": 1224,
      "max": [
        0.02800000086426735,
        0.02850000001490116,
        0.2775000035762787
      ],
      "min": [
        -0.02800000086426735,
        -0.07500000298023224,
        0.06499999761581421
      ],
      "bufferView": 4,
      "byteOffset": 0
    },
    {
      "name": "Stock Surface normal",
      "type": "VEC3",
      "componentType": 5126,
      "count": 1224,
      "bufferView": 4,
      "byteOffset": 12
    },
    {
      "name": "Stock Surface uv",
      "type": "VEC2",
      "componentType": 5126,
      "count": 1224,
      "bufferView": 4,
      "byteOffset": 24
    },
    {
      "name": "Handguard Surface position",
      "type": "VEC3",
      "componentType": 5126,
      "count": 18468,
      "max": [
        0.039000000804662704,
        0.05550000071525574,
        -0.11999999731779099
      ],
      "min": [
        -0.039000000804662704,
        -0.035999998450279236,
        -0.43700000643730164
      ],
      "bufferView": 5,
      "byteOffset": 0
    },
    {
      "name": "Handguard Surface normal",
      "type": "VEC3",
      "componentType": 5126,
      "count": 18468,
      "bufferView": 5,
      "byteOffset": 12
    },
    {
      "name": "Handguard Surface uv",
      "type": "VEC2",
      "componentType": 5126,
      "count": 18468,
      "bufferView": 5,
      "byteOffset": 24
    },
    {
      "name": "Grip Surface position",
      "type": "VEC3",
      "componentType": 5126,
      "count": 1788,
      "max": [
        0.020999997854232788,
        -0.017726795747876167,
        0.07589341700077057
      ],
      "min": [
        -0.020999999716877937,
        -0.1507548987865448,
        -0.009273442439734936
      ],
      "bufferView": 6,
      "byteOffset": 0
    },
    {
      "name": "Grip Surface normal",
      "type": "VEC3",
      "componentType": 5126,
      "count": 1788,
      "bufferView": 6,
      "byteOffset": 12
    },
    {
      "name": "Grip Surface uv",
      "type": "VEC2",
      "componentType": 5126,
      "count": 1788,
      "bufferView": 6,
      "byteOffset": 24
    },
    {
      "name": "TriggerGuard Surface position",
      "type": "VEC3",
      "componentType": 5126,
      "count": 960,
      "max": [
        0.003700000001117587,
        -0.0199993085116148,
        0.015232443809509277
      ],
      "min": [
        -0.003700000001117587,
        -0.08384206146001816,
        -0.07797183096408844
      ],
      "bufferView": 7,
      "byteOffset": 0
    },
    {
      "name": "TriggerGuard Surface normal",
      "type": "VEC3",
      "componentType": 5126,
      "count": 960,
      "bufferView": 7,
      "byteOffset": 12
    },
    {
      "name": "TriggerGuard Surface uv",
      "type": "VEC2",
      "componentType": 5126,
      "count": 960,
      "bufferView": 7,
      "byteOffset": 24
    },
    {
      "name": "Trigger Surface position",
      "type": "VEC3",
      "componentType": 5126,
      "count": 480,
      "max": [
        0.0027000000700354576,
        -0.021912412717938423,
        -0.02352873422205448
      ],
      "min": [
        -0.0027000000700354576,
        -0.05900709703564644,
        -0.039650462567806244
      ],
      "bufferView": 8,
      "byteOffset": 0
    },
    {
      "name": "Trigger Surface normal",
      "type": "VEC3",
      "componentType": 5126,
      "count": 480,
      "bufferView": 8,
      "byteOffset": 12
    },
    {
      "name": "Trigger Surface uv",
      "type": "VEC2",
      "componentType": 5126,
      "count": 480,
      "bufferView": 8,
      "byteOffset": 24
    },
    {
      "name": "Bipod Surface position",
      "type": "VEC3",
      "componentType": 5126,
      "count": 2088,
      "max": [
        0.039000000804662704,
        -0.03799999877810478,
        -0.2929999828338623
      ],
      "min": [
        -0.039000000804662704,
        -0.05700000002980232,
        -0.48750001192092896
      ],
      "bufferView": 9,
      "byteOffset": 0
    },
    {
      "name": "Bipod Surface normal",
      "type": "VEC3",
      "componentType": 5126,
      "count": 2088,
      "bufferView": 9,
      "byteOffset": 12
    },
    {
      "name": "Bipod Surface uv",
      "type": "VEC2",
      "componentType": 5126,
      "count": 2088,
      "bufferView": 9,
      "byteOffset": 24
    },
    {
      "name": "Scope Surface position",
      "type": "VEC3",
      "componentType": 5126,
      "count": 15768,
      "max": [
        0.03999999910593033,
        0.16099999845027924,
        0.09021243453025818
      ],
      "min": [
        -0.036400001496076584,
        0.0625,
        -0.2382124364376068
      ],
      "bufferView": 10,
      "byteOffset": 0
    },
    {
      "name": "Scope Surface normal",
      "type": "VEC3",
      "componentType": 5126,
      "count": 15768,
      "bufferView": 10,
      "byteOffset": 12
    },
    {
      "name": "Scope Surface uv",
      "type": "VEC2",
      "componentType": 5126,
      "count": 15768,
      "bufferView": 10,
      "byteOffset": 24
    }
  ],
  "bufferViews": [
    {
      "buffer": 0,
      "byteOffset": 0,
      "byteLength": 10368,
      "byteStride": 32,
      "target": 34962
    },
    {
      "buffer": 0,
      "byteOffset": 10368,
      "byteLength": 82944,
      "byteStride": 32,
      "target": 34962
    },
    {
      "buffer": 0,
      "byteOffset": 93312,
      "byteLength": 140160,
      "byteStride": 32,
      "target": 34962
    },
    {
      "buffer": 0,
      "byteOffset": 233472,
      "byteLength": 165888,
      "byteStride": 32,
      "target": 34962
    },
    {
      "buffer": 0,
      "byteOffset": 399360,
      "byteLength": 39168,
      "byteStride": 32,
      "target": 34962
    },
    {
      "buffer": 0,
      "byteOffset": 438528,
      "byteLength": 590976,
      "byteStride": 32,
      "target": 34962
    },
    {
      "buffer": 0,
      "byteOffset": 1029504,
      "byteLength": 57216,
      "byteStride": 32,
      "target": 34962
    },
    {
      "buffer": 0,
      "byteOffset": 1086720,
      "byteLength": 30720,
      "byteStride": 32,
      "target": 34962
    },
    {
      "buffer": 0,
      "byteOffset": 1117440,
      "byteLength": 15360,
      "byteStride": 32,
      "target": 34962
    },
    {
      "buffer": 0,
      "byteOffset": 1132800,
      "byteLength": 66816,
      "byteStride": 32,
      "target": 34962
    },
    {
      "buffer": 0,
      "byteOffset": 1199616,
      "byteLength": 504576,
      "byteStride": 32,
      "target": 34962
    }
  ],
  "samplers": [
    {
      "wrapS": 10497,
      "wrapT": 10497
    }
  ],
  "textures": [
    {
      "source": 0,
      "sampler": 0
    },
    {
      "source": 1,
      "sampler": 0
    },
    {
      "source": 2,
      "sampler": 0
    }
  ],
  "images": [
    {
      "name": "sniper albedo",
      "mimeType": "image/jpeg",
      "uri": "sniper-albedo.jpg"
    },
    {
      "name": "sniper normal",
      "mimeType": "image/png",
      "uri": "sniper-normal.png"
    },
    {
      "name": "sniper orm",
      "mimeType": "image/png",
      "uri": "sniper-orm.png"
    }
  ],
  "buffers": [
    {
      "name": "sniper",
      "uri": "sniper.bin",
      "byteLength": 1704192
    }
  ],
  "materials": [
    {
      "name": "sniper 2K PBR",
      "pbrMetallicRoughness": {
        "baseColorTexture": {
          "index": 0
        },
        "metallicRoughnessTexture": {
          "index": 2
        }
      },
      "normalTexture": {
        "index": 1,
        "scale": 0.75
      },
      "occlusionTexture": {
        "index": 2
      }
    }
  ],
  "meshes": [
    {
      "name": "Bolt Surface",
      "primitives": [
        {
          "attributes": {
            "POSITION": 0,
            "NORMAL": 1,
            "TEXCOORD_0": 2
          },
          "mode": 4,
          "material": 0
        }
      ]
    },
    {
      "name": "Magazine Surface",
      "primitives": [
        {
          "attributes": {
            "POSITION": 3,
            "NORMAL": 4,
            "TEXCOORD_0": 5
          },
          "mode": 4,
          "material": 0
        }
      ]
    },
    {
      "name": "Receiver Surface",
      "primitives": [
        {
          "attributes": {
            "POSITION": 6,
            "NORMAL": 7,
            "TEXCOORD_0": 8
          },
          "mode": 4,
          "material": 0
        }
      ]
    },
    {
      "name": "Barrel Surface",
      "primitives": [
        {
          "attributes": {
            "POSITION": 9,
            "NORMAL": 10,
            "TEXCOORD_0": 11
          },
          "mode": 4,
          "material": 0
        }
      ]
    },
    {
      "name": "Stock Surface",
      "primitives": [
        {
          "attributes": {
            "POSITION": 12,
            "NORMAL": 13,
            "TEXCOORD_0": 14
          },
          "mode": 4,
          "material": 0
        }
      ]
    },
    {
      "name": "Handguard Surface",
      "primitives": [
        {
          "attributes": {
            "POSITION": 15,
            "NORMAL": 16,
            "TEXCOORD_0": 17
          },
          "mode": 4,
          "material": 0
        }
      ]
    },
    {
      "name": "Grip Surface",
      "primitives": [
        {
          "attributes": {
            "POSITION": 18,
            "NORMAL": 19,
            "TEXCOORD_0": 20
          },
          "mode": 4,
          "material": 0
        }
      ]
    },
    {
      "name": "TriggerGuard Surface",
      "primitives": [
        {
          "attributes": {
            "POSITION": 21,
            "NORMAL": 22,
            "TEXCOORD_0": 23
          },
          "mode": 4,
          "material": 0
        }
      ]
    },
    {
      "name": "Trigger Surface",
      "primitives": [
        {
          "attributes": {
            "POSITION": 24,
            "NORMAL": 25,
            "TEXCOORD_0": 26
          },
          "mode": 4,
          "material": 0
        }
      ]
    },
    {
      "name": "Bipod Surface",
      "primitives": [
        {
          "attributes": {
            "POSITION": 27,
            "NORMAL": 28,
            "TEXCOORD_0": 29
          },
          "mode": 4,
          "material": 0
        }
      ]
    },
    {
      "name": "Scope Surface",
      "primitives": [
        {
          "attributes": {
            "POSITION": 30,
            "NORMAL": 31,
            "TEXCOORD_0": 32
          },
          "mode": 4,
          "material": 0
        }
      ]
    }
  ],
  "nodes": [
    {
      "name": "sniper Asset",
      "extras": {
        "weaponAsset": "sniper",
        "viewModel": {
          "id": "sniper",
          "sight": {
            "height": 0.109,
            "distance": 0.28,
            "scope": true
          },
          "hip": [
            0.17,
            -0.175,
            -0.49
          ],
          "fov": 52,
          "grip": {
            "position": [
              0,
              -0.08,
              0.036
            ],
            "radius": [
              0.022,
              0.06,
              0.027
            ]
          },
          "support": {
            "position": [
              0,
              -0.018,
              -0.301
            ],
            "radius": [
              0.036,
              0.018,
              0.08
            ]
          },
          "handPoses": {
            "RightHand": {
              "position": [
                0.031,
                -0.08,
                0.063
              ],
              "quaternion": [
                0.5,
                -0.5,
                0.5,
                -0.5
              ],
              "scale": [
                1,
                1,
                1
              ]
            },
            "RightPalm": {
              "position": [
                0,
                0,
                0
              ],
              "quaternion": [
                0,
                0,
                0,
                1
              ],
              "scale": [
                1,
                1,
                1
              ]
            },
            "RightForearm": {
              "position": [
                0,
                -0.057,
                0
              ],
              "quaternion": [
                -0.24890097089338503,
                0,
                0.20857623259222213,
                0.9458035006733511
              ],
              "scale": [
                1,
                1.0862442315668448,
                1
              ]
            },
            "RightIndex1": {
              "position": [
                -0.029,
                0.029,
                0
              ],
              "quaternion": [
                -0.04575406986667153,
                0.00555165782308162,
                0.11851562635202033,
                0.9918819438302314
              ],
              "scale": [
                1,
                1,
                1
              ]
            },
            "RightIndex2": {
              "position": [
                0,
                0.029,
                0
              ],
              "quaternion": [
                -0.04636908325316169,
                0.014014002869618245,
                0.13087664028450838,
                0.9902145327501871
              ],
              "scale": [
                1,
                1,
                1
              ]
            },
            "RightIndex3": {
              "position": [
                0,
                0.022,
                0
              ],
              "quaternion": [
                0.019228522412791143,
                0.021523873997305997,
                -0.016445178039014494,
                0.9994481191603872
              ],
              "scale": [
                1,
                1,
                1
              ]
            },
            "RightIndexTip": {
              "position": [
                0,
                0.017,
                0
              ],
              "quaternion": [
                0,
                0,
                0,
                1
              ],
              "scale": [
                1,
                1,
                1
              ]
            },
            "RightMiddle1": {
              "position": [
                -0.009,
                0.037,
                0
              ],
              "quaternion": [
                -0.514745359000525,
                0,
                0,
                0.8573431141540827
              ],
              "scale": [
                1,
                1,
                1
              ]
            },
            "RightMiddle2": {
              "position": [
                0,
                0.034,
                0
              ],
              "quaternion": [
                -0.5125010476614804,
                -2.674813363065815e-19,
                -1.0779608592740396e-18,
                0.8586865994912727
              ],
              "scale": [
                1,
                1,
                1
              ]
            },
            "RightMiddle3": {
              "position": [
                0,
                0.024,
                0
              ],
              "quaternion": [
                -0.3831639388251438,
                0,
                0,
                0.9236803537934546
              ],
              "scale": [
                1,
                1,
                1
              ]
            },
            "RightMiddleTip": {
              "position": [
                0,
                0.019,
                0
              ],
              "quaternion": [
                0,
                0,
                0,
                1
              ],
              "scale": [
                1,
                1,
                1
              ]
            },
            "RightRing1": {
              "position": [
                0.012,
                0.034,
                0
              ],
              "quaternion": [
                -0.5164189643182543,
                -5.431672560874826e-19,
                2.0865113682650218e-19,
                0.8563360632908449
              ],
              "scale": [
                1,
                1,
                1
              ]
            },
            "RightRing2": {
              "position": [
                0,
                0.032,
                0
              ],
              "quaternion": [
                -0.5111996828264194,
                0,
                0,
                0.8594619737243573
              ],
              "scale": [
                1,
                1,
                1
              ]
            },
            "RightRing3": {
              "position": [
                0,
                0.023,
                0
              ],
              "quaternion": [
                -0.362925681668327,
                0,
                0,
                0.9318180882476903
              ],
              "scale": [
                1,
                1,
                1
              ]
            },
            "RightRingTip": {
              "position": [
                0,
                0.018,
                0
              ],
              "quaternion": [
                0,
                0,
                0,
                1
              ],
              "scale": [
                1,
                1,
                1
              ]
            },
            "RightLittle1": {
              "position": [
                0.03,
                0.021,
                0
              ],
              "quaternion": [
                -0.4995137047802913,
                -0.0010154792559768067,
                0.0005712116858137524,
                0.8663052009862108
              ],
              "scale": [
                1,
                1,
                1
              ]
            },
            "RightLittle2": {
              "position": [
                0,
                0.025,
                0
              ],
              "quaternion": [
                -0.5031615214113471,
                -0.00550313281958332,
                -0.0035235191782984113,
                0.8641676826361825
              ],
              "scale": [
                1,
                1,
                1
              ]
            },
            "RightLittle3": {
              "position": [
                0,
                0.018,
                0
              ],
              "quaternion": [
                -0.4178218646875668,
                -0.019617228528732888,
                -0.048961184934738056,
                0.9069966130607336
              ],
              "scale": [
                1,
                1,
                1
              ]
            },
            "RightLittleTip": {
              "position": [
                0,
                0.015,
                0
              ],
              "quaternion": [
                0,
                0,
                0,
                1
              ],
              "scale": [
                1,
                1,
                1
              ]
            },
            "RightThumb1": {
              "position": [
                -0.033,
                -0.016,
                -0.006
              ],
              "quaternion": [
                -0.16021840628550368,
                -0.09708823748597704,
                -0.4379870156959568,
                0.8792447386882385
              ],
              "scale": [
                1,
                1,
                1
              ]
            },
            "RightThumb2": {
              "position": [
                0,
                0.028,
                0
              ],
              "quaternion": [
                -0.3708777010695441,
                0.0031019974969488354,
                0.0028586670197621312,
                0.9286721361620416
              ],
              "scale": [
                1,
                1,
                1
              ]
            },
            "RightThumb3": {
              "position": [
                0,
                0.023,
                0
              ],
              "quaternion": [
                -0.30301367713256744,
                0.011804558485002503,
                0.042059603645570924,
                0.9519844292900765
              ],
              "scale": [
                1,
                1,
                1
              ]
            },
            "RightThumbTip": {
              "position": [
                0,
                0.02,
                0
              ],
              "quaternion": [
                0,
                0,
                0,
                1
              ],
              "scale": [
                1,
                1,
                1
              ]
            },
            "LeftHand": {
              "position": [
                -0.024,
                -0.048,
                -0.301
              ],
              "quaternion": [
                -0.5,
                -0.5,
                0.5,
                -0.5
              ],
              "scale": [
                -1,
                1,
                1
              ]
            },
            "LeftPalm": {
              "position": [
                0,
                0,
                0
              ],
              "quaternion": [
                0,
                0,
                0,
                1
              ],
              "scale": [
                1,
                1,
                1
              ]
            },
            "LeftForearm": {
              "position": [
                0,
                -0.057,
                0
              ],
              "quaternion": [
                -0.20382542327437786,
                0,
                0.5192276946342987,
                0.8299745766900165
              ],
              "scale": [
                1,
                1.9591460030392045,
                1
              ]
            },
            "LeftIndex1": {
              "position": [
                -0.029,
                0.029,
                0
              ],
              "quaternion": [
                -0.23957896647143645,
                -1.120055770503549e-16,
                5.5592599436248824e-18,
                0.9708768813935569
              ],
              "scale": [
                1,
                1,
                1
              ]
            },
            "LeftIndex2": {
              "position": [
                0,
                0.029,
                0
              ],
              "quaternion": [
                -0.510324330890705,
                3.813082540208208e-16,
                3.2209373323112545e-16,
                0.8599820214986785
              ],
              "scale": [
                1,
                1,
                1
              ]
            },
            "LeftIndex3": {
              "position": [
                0,
                0.022,
                0
              ],
              "quaternion": [
                -0.29796060351349113,
                5.858770921888545e-16,
                4.575155480811145e-16,
                0.9545781679641931
              ],
              "scale": [
                1,
                1,
                1
              ]
            },
            "LeftIndexTip": {
              "position": [
                0,
                0.017,
                0
              ],
              "quaternion": [
                0,
                0,
                0,
                1
              ],
              "scale": [
                1,
                1,
                1
              ]
            },
            "LeftMiddle1": {
              "position": [
                -0.009,
                0.037,
                0
              ],
              "quaternion": [
                -0.19300009668431253,
                2.5499738169301093e-18,
                -2.7480425538244983e-19,
                0.9811987376061212
              ],
              "scale": [
                1,
                1,
                1
              ]
            },
            "LeftMiddle2": {
              "position": [
                0,
                0.034,
                0
              ],
              "quaternion": [
                -0.4996992715816105,
                6.252332760197288e-18,
                7.765667948667942e-18,
                0.866198959812818
              ],
              "scale": [
                1,
                1,
                1
              ]
            },
            "LeftMiddle3": {
              "position": [
                0,
                0.024,
                0
              ],
              "quaternion": [
                -0.46779757319173326,
                0,
                0,
                0.8838356354639278
              ],
              "scale": [
                1,
                1,
                1
              ]
            },
            "LeftMiddleTip": {
              "position": [
                0,
                0.019,
                0
              ],
              "quaternion": [
                0,
                0,
                0,
                1
              ],
              "scale": [
                1,
                1,
                1
              ]
            },
            "LeftRing1": {
              "position": [
                0.012,
                0.034,
                0
              ],
              "quaternion": [
                -0.21347348393805726,
                6.343337215000347e-18,
                -6.091568717581587e-19,
                0.9769488582599135
              ],
              "scale": [
                1,
                1,
                1
              ]
            },
            "LeftRing2": {
              "position": [
                0,
                0.032,
                0
              ],
              "quaternion": [
                -0.5065370653010977,
                4.0166750046004064e-17,
                2.25276509215789e-17,
                0.8622181866999508
              ],
              "scale": [
                1,
                1,
                1
              ]
            },
            "LeftRing3": {
              "position": [
                0,
                0.023,
                0
              ],
              "quaternion": [
                -0.399274078335157,
                -8.07871751416676e-17,
                1.8299083355812806e-16,
                0.9168316150578641
              ],
              "scale": [
                1,
                1,
                1
              ]
            },
            "LeftRingTip": {
              "position": [
                0,
                0.018,
                0
              ],
              "quaternion": [
                0,
                0,
                0,
                1
              ],
              "scale": [
                1,
                1,
                1
              ]
            },
            "LeftLittle1": {
              "position": [
                0.03,
                0.021,
                0
              ],
              "quaternion": [
                -0.35568434806760335,
                3.4619550481875058e-18,
                -1.1320007632217864e-17,
                0.9346061440733858
              ],
              "scale": [
                1,
                1,
                1
              ]
            },
            "LeftLittle2": {
              "position": [
                0,
                0.025,
                0
              ],
              "quaternion": [
                -0.48685442760640724,
                -1.8137572735396277e-16,
                -4.453523902517886e-16,
                0.8734831230882694
              ],
              "scale": [
                1,
                1,
                1
              ]
            },
            "LeftLittle3": {
              "position": [
                0,
                0.018,
                0
              ],
              "quaternion": [
                0.027835670565239536,
                -2.1633732582518183e-16,
                1.1959399300477459e-15,
                0.9996125126488682
              ],
              "scale": [
                1,
                1,
                1
              ]
            },
            "LeftLittleTip": {
              "position": [
                0,
                0.015,
                0
              ],
              "quaternion": [
                0,
                0,
                0,
                1
              ],
              "scale": [
                1,
                1,
                1
              ]
            },
            "LeftThumb1": {
              "position": [
                -0.033,
                -0.016,
                -0.006
              ],
              "quaternion": [
                -0.16919025590044187,
                -0.08340802188525367,
                -0.38040992055917017,
                0.9053761933769288
              ],
              "scale": [
                1,
                1,
                1
              ]
            },
            "LeftThumb2": {
              "position": [
                0,
                0.028,
                0
              ],
              "quaternion": [
                -0.38112380232978377,
                -0.0009630384950810375,
                -0.0009749336405930997,
                0.9245229955814734
              ],
              "scale": [
                1,
                1,
                1
              ]
            },
            "LeftThumb3": {
              "position": [
                0,
                0.023,
                0
              ],
              "quaternion": [
                -0.3661474393872521,
                -0.0032492849523190308,
                -0.011102275434165719,
                0.9304849457447665
              ],
              "scale": [
                1,
                1,
                1
              ]
            },
            "LeftThumbTip": {
              "position": [
                0,
                0.02,
                0
              ],
              "quaternion": [
                0,
                0,
                0,
                1
              ],
              "scale": [
                1,
                1,
                1
              ]
            }
          },
          "reloadHand": {
            "position": [
              -0.024,
              -0.1450000013113022,
              -0.11325822025537491
            ],
            "quaternion": [
              -0.5,
              -0.5,
              0.5,
              -0.5
            ],
            "bones": {
              "LeftPalm": [
                0,
                0,
                0,
                1
              ],
              "LeftIndex1": [
                -0.23826882056022736,
                0.000673261092267367,
                0.000403771740456236,
                0.9711989254713589
              ],
              "LeftIndex2": [
                -0.5081615516534366,
                0.0023486932352417417,
                0.002263520176653373,
                0.8612555936176365
              ],
              "LeftIndex3": [
                -0.28790124886270496,
                0.006328384179315648,
                0.020274282253528737,
                0.9574245536521805
              ],
              "LeftIndexTip": [
                0,
                0,
                0,
                1
              ],
              "LeftMiddle1": [
                -0.24695784926208555,
                -0.0013359543883432728,
                -0.0018218138345126845,
                0.9690235894487136
              ],
              "LeftMiddle2": [
                -0.5500217207889682,
                -0.0033579722964174144,
                -0.0030337924464726982,
                0.8351380884535146
              ],
              "LeftMiddle3": [
                -0.4773846204878343,
                -0.007104439933674248,
                -0.01138966693339254,
                0.8785918998841625
              ],
              "LeftMiddleTip": [
                0,
                0,
                0,
                1
              ],
              "LeftRing1": [
                -0.24845318231350572,
                -8.258437383128916e-19,
                1.4550220037593392e-18,
                0.968643905776675
              ],
              "LeftRing2": [
                -0.5390404915758344,
                1.6627087585388938e-17,
                2.634388196915507e-17,
                0.8422798516180251
              ],
              "LeftRing3": [
                -0.4164761798977704,
                1.356053125197256e-16,
                4.166181663274204e-16,
                0.9091466282056815
              ],
              "LeftRingTip": [
                0,
                0,
                0,
                1
              ],
              "LeftLittle1": [
                -0.36867876056226023,
                -8.535260851533113e-17,
                -1.0549745844079707e-16,
                0.9295568683573232
              ],
              "LeftLittle2": [
                -0.40224495241304997,
                -6.535812070509717e-17,
                -2.1868978843616285e-16,
                0.9155320847781485
              ],
              "LeftLittle3": [
                0.23602812698046285,
                8.690666269666935e-17,
                1.1008922685597581e-15,
                0.9717462236994251
              ],
              "LeftLittleTip": [
                0,
                0,
                0,
                1
              ],
              "LeftThumb1": [
                -0.16677254627360757,
                -0.08366646093893129,
                -0.3796301892003873,
                0.9061278941579106
              ],
              "LeftThumb2": [
                -0.37532502195430073,
                0.0018237636812614927,
                0.002120010472926067,
                0.9268890480184957
              ],
              "LeftThumb3": [
                -0.3419955759415743,
                0.00574357966429525,
                0.012564374350800794,
                0.9396000073574944
              ],
              "LeftThumbTip": [
                0,
                0,
                0,
                1
              ]
            }
          }
        },
        "gltfUUID": "weapon-sniper-root"
      },
      "children": [
        1
      ]
    },
    {
      "name": "Body",
      "extras": {
        "gltfUUID": "weapon-sniper-Body"
      },
      "children": [
        2,
        4,
        6,
        7,
        9,
        11,
        13,
        15,
        17,
        19,
        21,
        23,
        25,
        26,
        27,
        28
      ]
    },
    {
      "name": "Bolt",
      "extras": {
        "gltfUUID": "weapon-sniper-Bolt"
      },
      "children": [
        3
      ]
    },
    {
      "name": "Bolt Surface",
      "extras": {
        "gltfUUID": "weapon-sniper-Bolt-Surface"
      },
      "mesh": 0
    },
    {
      "name": "Magazine",
      "extras": {
        "gltfUUID": "weapon-sniper-Magazine"
      },
      "children": [
        5
      ]
    },
    {
      "name": "Magazine Surface",
      "extras": {
        "gltfUUID": "weapon-sniper-Magazine-Surface"
      },
      "mesh": 1
    },
    {
      "name": "Pump",
      "extras": {
        "gltfUUID": "weapon-sniper-Pump"
      }
    },
    {
      "name": "Receiver",
      "extras": {
        "gltfUUID": "weapon-sniper-Receiver"
      },
      "children": [
        8
      ]
    },
    {
      "name": "Receiver Surface",
      "extras": {
        "gltfUUID": "weapon-sniper-Receiver-Surface"
      },
      "mesh": 2
    },
    {
      "name": "Barrel",
      "extras": {
        "gltfUUID": "weapon-sniper-Barrel"
      },
      "children": [
        10
      ]
    },
    {
      "name": "Barrel Surface",
      "extras": {
        "gltfUUID": "weapon-sniper-Barrel-Surface"
      },
      "mesh": 3
    },
    {
      "name": "Stock",
      "extras": {
        "gltfUUID": "weapon-sniper-Stock"
      },
      "children": [
        12
      ]
    },
    {
      "name": "Stock Surface",
      "extras": {
        "gltfUUID": "weapon-sniper-Stock-Surface"
      },
      "mesh": 4
    },
    {
      "name": "Handguard",
      "extras": {
        "gltfUUID": "weapon-sniper-Handguard"
      },
      "children": [
        14
      ]
    },
    {
      "name": "Handguard Surface",
      "extras": {
        "gltfUUID": "weapon-sniper-Handguard-Surface"
      },
      "mesh": 5
    },
    {
      "name": "Grip",
      "extras": {
        "gltfUUID": "weapon-sniper-Grip"
      },
      "children": [
        16
      ]
    },
    {
      "name": "Grip Surface",
      "extras": {
        "gltfUUID": "weapon-sniper-Grip-Surface"
      },
      "mesh": 6
    },
    {
      "name": "TriggerGuard",
      "extras": {
        "gltfUUID": "weapon-sniper-TriggerGuard"
      },
      "children": [
        18
      ]
    },
    {
      "name": "TriggerGuard Surface",
      "extras": {
        "gltfUUID": "weapon-sniper-TriggerGuard-Surface"
      },
      "mesh": 7
    },
    {
      "name": "Trigger",
      "extras": {
        "gltfUUID": "weapon-sniper-Trigger"
      },
      "children": [
        20
      ]
    },
    {
      "name": "Trigger Surface",
      "extras": {
        "gltfUUID": "weapon-sniper-Trigger-Surface"
      },
      "mesh": 8
    },
    {
      "name": "Bipod",
      "extras": {
        "gltfUUID": "weapon-sniper-Bipod"
      },
      "children": [
        22
      ]
    },
    {
      "name": "Bipod Surface",
      "extras": {
        "gltfUUID": "weapon-sniper-Bipod-Surface"
      },
      "mesh": 9
    },
    {
      "name": "Scope",
      "extras": {
        "gltfUUID": "weapon-sniper-Scope"
      },
      "children": [
        24
      ]
    },
    {
      "name": "Scope Surface",
      "extras": {
        "gltfUUID": "weapon-sniper-Scope-Surface"
      },
      "mesh": 10
    },
    {
      "name": "Muzzle",
      "extras": {
        "gltfUUID": "weapon-sniper-Muzzle"
      },
      "translation": [
        0,
        0.024,
        -0.89
      ]
    },
    {
      "name": "Ejection",
      "extras": {
        "gltfUUID": "weapon-sniper-Ejection"
      },
      "translation": [
        0.042,
        0.018,
        -0.031
      ]
    },
    {
      "name": "SightFront",
      "extras": {
        "gltfUUID": "weapon-sniper-SightFront"
      },
      "translation": [
        0,
        0.109,
        -0.28
      ]
    },
    {
      "name": "SightRear",
      "extras": {
        "gltfUUID": "weapon-sniper-SightRear"
      },
      "translation": [
        0,
        0.109,
        0.025
      ]
    }
  ],
  "scenes": [
    {
      "name": "sniper Asset",
      "nodes": [
        0
      ]
    }
  ]
}
