{
  "asset": {
    "generator": "Terminator original weapon authoring, glTF Transform 4.3",
    "version": "2.0"
  },
  "accessors": [
    {
      "name": "Bolt Surface position",
      "type": "VEC3",
      "componentType": 5126,
      "count": 516,
      "max": [
        0.057500001043081284,
        0.027499999850988388,
        -0.001999999862164259
      ],
      "min": [
        0.020500000566244125,
        0.008500000461935997,
        -0.05000000074505806
      ],
      "bufferView": 0,
      "byteOffset": 0
    },
    {
      "name": "Bolt Surface normal",
      "type": "VEC3",
      "componentType": 5126,
      "count": 516,
      "bufferView": 0,
      "byteOffset": 12
    },
    {
      "name": "Bolt Surface uv",
      "type": "VEC2",
      "componentType": 5126,
      "count": 516,
      "bufferView": 0,
      "byteOffset": 24
    },
    {
      "name": "Magazine Surface position",
      "type": "VEC3",
      "componentType": 5126,
      "count": 576,
      "max": [
        0.009999999776482582,
        -0.07999999821186066,
        -0.057500001043081284
      ],
      "min": [
        -0.009999999776482582,
        -0.10000000149011612,
        -0.1080000028014183
      ],
      "bufferView": 1,
      "byteOffset": 0
    },
    {
      "name": "Magazine Surface normal",
      "type": "VEC3",
      "componentType": 5126,
      "count": 576,
      "bufferView": 1,
      "byteOffset": 12
    },
    {
      "name": "Magazine Surface uv",
      "type": "VEC2",
      "componentType": 5126,
      "count": 576,
      "bufferView": 1,
      "byteOffset": 24
    },
    {
      "name": "Pump Surface position",
      "type": "VEC3",
      "componentType": 5126,
      "count": 11076,
      "max": [
        0.02879999950528145,
        0.01679999940097332,
        -0.21000000834465027
      ],
      "min": [
        -0.02879999950528145,
        -0.04079999774694443,
        -0.3779999911785126
      ],
      "bufferView": 2,
      "byteOffset": 0
    },
    {
      "name": "Pump Surface normal",
      "type": "VEC3",
      "componentType": 5126,
      "count": 11076,
      "bufferView": 2,
      "byteOffset": 12
    },
    {
      "name": "Pump Surface uv",
      "type": "VEC2",
      "componentType": 5126,
      "count": 11076,
      "bufferView": 2,
      "byteOffset": 24
    },
    {
      "name": "Receiver Surface position",
      "type": "VEC3",
      "componentType": 5126,
      "count": 8652,
      "max": [
        0.035876013338565826,
        0.060499999672174454,
        0.0729999989271164
      ],
      "min": [
        -0.029100000858306885,
        -0.033099591732025146,
        -0.15299999713897705
      ],
      "bufferView": 3,
      "byteOffset": 0
    },
    {
      "name": "Receiver Surface normal",
      "type": "VEC3",
      "componentType": 5126,
      "count": 8652,
      "bufferView": 3,
      "byteOffset": 12
    },
    {
      "name": "Receiver Surface uv",
      "type": "VEC2",
      "componentType": 5126,
      "count": 8652,
      "bufferView": 3,
      "byteOffset": 24
    },
    {
      "name": "Barrel Surface position",
      "type": "VEC3",
      "componentType": 5126,
      "count": 2052,
      "max": [
        0.014999999664723873,
        0.0430000014603138,
        -0.13500000536441803
      ],
      "min": [
        -0.014999999664723873,
        -0.02500000037252903,
        -0.6050000190734863
      ],
      "bufferView": 4,
      "byteOffset": 0
    },
    {
      "name": "Barrel Surface normal",
      "type": "VEC3",
      "componentType": 5126,
      "count": 2052,
      "bufferView": 4,
      "byteOffset": 12
    },
    {
      "name": "Barrel Surface uv",
      "type": "VEC2",
      "componentType": 5126,
      "count": 2052,
      "bufferView": 4,
      "byteOffset": 24
    },
    {
      "name": "Stock Surface position",
      "type": "VEC3",
      "componentType": 5126,
      "count": 816,
      "max": [
        0.023499999195337296,
        0.031028855592012405,
        0.2482815533876419
      ],
      "min": [
        -0.023499999195337296,
        -0.07588078081607819,
        0.0650000050663948
      ],
      "bufferView": 5,
      "byteOffset": 0
    },
    {
      "name": "Stock Surface normal",
      "type": "VEC3",
      "componentType": 5126,
      "count": 816,
      "bufferView": 5,
      "byteOffset": 12
    },
    {
      "name": "Stock Surface uv",
      "type": "VEC2",
      "componentType": 5126,
      "count": 816,
      "bufferView": 5,
      "byteOffset": 24
    },
    {
      "name": "Grip Surface position",
      "type": "VEC3",
      "componentType": 5126,
      "count": 1788,
      "max": [
        0.020999997854232788,
        -0.017726795747876167,
        0.07589341700077057
      ],
      "min": [
        -0.020999999716877937,
        -0.1507548987865448,
        -0.009273442439734936
      ],
      "bufferView": 6,
      "byteOffset": 0
    },
    {
      "name": "Grip Surface normal",
      "type": "VEC3",
      "componentType": 5126,
      "count": 1788,
      "bufferView": 6,
      "byteOffset": 12
    },
    {
      "name": "Grip Surface uv",
      "type": "VEC2",
      "componentType": 5126,
      "count": 1788,
      "bufferView": 6,
      "byteOffset": 24
    },
    {
      "name": "TriggerGuard Surface position",
      "type": "VEC3",
      "componentType": 5126,
      "count": 960,
      "max": [
        0.003700000001117587,
        -0.0199993085116148,
        0.015232443809509277
      ],
      "min": [
        -0.003700000001117587,
        -0.08384206146001816,
        -0.07797183096408844
      ],
      "bufferView": 7,
      "byteOffset": 0
    },
    {
      "name": "TriggerGuard Surface normal",
      "type": "VEC3",
      "componentType": 5126,
      "count": 960,
      "bufferView": 7,
      "byteOffset": 12
    },
    {
      "name": "TriggerGuard Surface uv",
      "type": "VEC2",
      "componentType": 5126,
      "count": 960,
      "bufferView": 7,
      "byteOffset": 24
    },
    {
      "name": "Trigger Surface position",
      "type": "VEC3",
      "componentType": 5126,
      "count": 480,
      "max": [
        0.0027000000700354576,
        -0.021912412717938423,
        -0.02352873422205448
      ],
      "min": [
        -0.0027000000700354576,
        -0.05900709703564644,
        -0.039650462567806244
      ],
      "bufferView": 8,
      "byteOffset": 0
    },
    {
      "name": "Trigger Surface normal",
      "type": "VEC3",
      "componentType": 5126,
      "count": 480,
      "bufferView": 8,
      "byteOffset": 12
    },
    {
      "name": "Trigger Surface uv",
      "type": "VEC2",
      "componentType": 5126,
      "count": 480,
      "bufferView": 8,
      "byteOffset": 24
    },
    {
      "name": "Sights Surface position",
      "type": "VEC3",
      "componentType": 5126,
      "count": 2808,
      "max": [
        0.01600000075995922,
        0.07850000262260437,
        0.054999999701976776
      ],
      "min": [
        -0.01600000075995922,
        0.03750000149011612,
        -0.5860000252723694
      ],
      "bufferView": 9,
      "byteOffset": 0
    },
    {
      "name": "Sights Surface normal",
      "type": "VEC3",
      "componentType": 5126,
      "count": 2808,
      "bufferView": 9,
      "byteOffset": 12
    },
    {
      "name": "Sights Surface uv",
      "type": "VEC2",
      "componentType": 5126,
      "count": 2808,
      "bufferView": 9,
      "byteOffset": 24
    }
  ],
  "bufferViews": [
    {
      "buffer": 0,
      "byteOffset": 0,
      "byteLength": 16512,
      "byteStride": 32,
      "target": 34962
    },
    {
      "buffer": 0,
      "byteOffset": 16512,
      "byteLength": 18432,
      "byteStride": 32,
      "target": 34962
    },
    {
      "buffer": 0,
      "byteOffset": 34944,
      "byteLength": 354432,
      "byteStride": 32,
      "target": 34962
    },
    {
      "buffer": 0,
      "byteOffset": 389376,
      "byteLength": 276864,
      "byteStride": 32,
      "target": 34962
    },
    {
      "buffer": 0,
      "byteOffset": 666240,
      "byteLength": 65664,
      "byteStride": 32,
      "target": 34962
    },
    {
      "buffer": 0,
      "byteOffset": 731904,
      "byteLength": 26112,
      "byteStride": 32,
      "target": 34962
    },
    {
      "buffer": 0,
      "byteOffset": 758016,
      "byteLength": 57216,
      "byteStride": 32,
      "target": 34962
    },
    {
      "buffer": 0,
      "byteOffset": 815232,
      "byteLength": 30720,
      "byteStride": 32,
      "target": 34962
    },
    {
      "buffer": 0,
      "byteOffset": 845952,
      "byteLength": 15360,
      "byteStride": 32,
      "target": 34962
    },
    {
      "buffer": 0,
      "byteOffset": 861312,
      "byteLength": 89856,
      "byteStride": 32,
      "target": 34962
    }
  ],
  "samplers": [
    {
      "wrapS": 10497,
      "wrapT": 10497
    }
  ],
  "textures": [
    {
      "source": 0,
      "sampler": 0
    },
    {
      "source": 1,
      "sampler": 0
    },
    {
      "source": 2,
      "sampler": 0
    }
  ],
  "images": [
    {
      "name": "shotgun albedo",
      "mimeType": "image/jpeg",
      "uri": "shotgun-albedo.jpg"
    },
    {
      "name": "shotgun normal",
      "mimeType": "image/png",
      "uri": "shotgun-normal.png"
    },
    {
      "name": "shotgun orm",
      "mimeType": "image/png",
      "uri": "shotgun-orm.png"
    }
  ],
  "buffers": [
    {
      "name": "shotgun",
      "uri": "shotgun.bin",
      "byteLength": 951168
    }
  ],
  "materials": [
    {
      "name": "shotgun 2K PBR",
      "pbrMetallicRoughness": {
        "baseColorTexture": {
          "index": 0
        },
        "metallicRoughnessTexture": {
          "index": 2
        }
      },
      "normalTexture": {
        "index": 1,
        "scale": 0.75
      },
      "occlusionTexture": {
        "index": 2
      }
    }
  ],
  "meshes": [
    {
      "name": "Bolt Surface",
      "primitives": [
        {
          "attributes": {
            "POSITION": 0,
            "NORMAL": 1,
            "TEXCOORD_0": 2
          },
          "mode": 4,
          "material": 0
        }
      ]
    },
    {
      "name": "Magazine Surface",
      "primitives": [
        {
          "attributes": {
            "POSITION": 3,
            "NORMAL": 4,
            "TEXCOORD_0": 5
          },
          "mode": 4,
          "material": 0
        }
      ]
    },
    {
      "name": "Pump Surface",
      "primitives": [
        {
          "attributes": {
            "POSITION": 6,
            "NORMAL": 7,
            "TEXCOORD_0": 8
          },
          "mode": 4,
          "material": 0
        }
      ]
    },
    {
      "name": "Receiver Surface",
      "primitives": [
        {
          "attributes": {
            "POSITION": 9,
            "NORMAL": 10,
            "TEXCOORD_0": 11
          },
          "mode": 4,
          "material": 0
        }
      ]
    },
    {
      "name": "Barrel Surface",
      "primitives": [
        {
          "attributes": {
            "POSITION": 12,
            "NORMAL": 13,
            "TEXCOORD_0": 14
          },
          "mode": 4,
          "material": 0
        }
      ]
    },
    {
      "name": "Stock Surface",
      "primitives": [
        {
          "attributes": {
            "POSITION": 15,
            "NORMAL": 16,
            "TEXCOORD_0": 17
          },
          "mode": 4,
          "material": 0
        }
      ]
    },
    {
      "name": "Grip Surface",
      "primitives": [
        {
          "attributes": {
            "POSITION": 18,
            "NORMAL": 19,
            "TEXCOORD_0": 20
          },
          "mode": 4,
          "material": 0
        }
      ]
    },
    {
      "name": "TriggerGuard Surface",
      "primitives": [
        {
          "attributes": {
            "POSITION": 21,
            "NORMAL": 22,
            "TEXCOORD_0": 23
          },
          "mode": 4,
          "material": 0
        }
      ]
    },
    {
      "name": "Trigger Surface",
      "primitives": [
        {
          "attributes": {
            "POSITION": 24,
            "NORMAL": 25,
            "TEXCOORD_0": 26
          },
          "mode": 4,
          "material": 0
        }
      ]
    },
    {
      "name": "Sights Surface",
      "primitives": [
        {
          "attributes": {
            "POSITION": 27,
            "NORMAL": 28,
            "TEXCOORD_0": 29
          },
          "mode": 4,
          "material": 0
        }
      ]
    }
  ],
  "nodes": [
    {
      "name": "shotgun Asset",
      "extras": {
        "weaponAsset": "shotgun",
        "viewModel": {
          "id": "shotgun",
          "sight": {
            "height": 0.072,
            "distance": 0.3,
            "front": -0.573,
            "rear": 0.04
          },
          "hip": [
            0.15,
            -0.17,
            -0.46
          ],
          "fov": 55,
          "grip": {
            "position": [
              0,
              -0.08,
              0.036
            ],
            "radius": [
              0.022,
              0.06,
              0.027
            ]
          },
          "support": {
            "position": [
              0,
              -0.012,
              -0.296
            ],
            "radius": [
              0.027,
              0.027,
              0.07
            ]
          },
          "handPoses": {
            "RightHand": {
              "position": [
                0.031,
                -0.08,
                0.063
              ],
              "quaternion": [
                0.5,
                -0.5,
                0.5,
                -0.5
              ],
              "scale": [
                1,
                1,
                1
              ]
            },
            "RightPalm": {
              "position": [
                0,
                0,
                0
              ],
              "quaternion": [
                0,
                0,
                0,
                1
              ],
              "scale": [
                1,
                1,
                1
              ]
            },
            "RightForearm": {
              "position": [
                0,
                -0.057,
                0
              ],
              "quaternion": [
                -0.24890097089338503,
                0,
                0.20857623259222213,
                0.9458035006733511
              ],
              "scale": [
                1,
                1.0862442315668448,
                1
              ]
            },
            "RightIndex1": {
              "position": [
                -0.029,
                0.029,
                0
              ],
              "quaternion": [
                -0.04575406986667153,
                0.00555165782308162,
                0.11851562635202033,
                0.9918819438302314
              ],
              "scale": [
                1,
                1,
                1
              ]
            },
            "RightIndex2": {
              "position": [
                0,
                0.029,
                0
              ],
              "quaternion": [
                -0.04636908325316169,
                0.014014002869618245,
                0.13087664028450838,
                0.9902145327501871
              ],
              "scale": [
                1,
                1,
                1
              ]
            },
            "RightIndex3": {
              "position": [
                0,
                0.022,
                0
              ],
              "quaternion": [
                0.019228522412791143,
                0.021523873997305997,
                -0.016445178039014494,
                0.9994481191603872
              ],
              "scale": [
                1,
                1,
                1
              ]
            },
            "RightIndexTip": {
              "position": [
                0,
                0.017,
                0
              ],
              "quaternion": [
                0,
                0,
                0,
                1
              ],
              "scale": [
                1,
                1,
                1
              ]
            },
            "RightMiddle1": {
              "position": [
                -0.009,
                0.037,
                0
              ],
              "quaternion": [
                -0.514745359000525,
                0,
                0,
                0.8573431141540827
              ],
              "scale": [
                1,
                1,
                1
              ]
            },
            "RightMiddle2": {
              "position": [
                0,
                0.034,
                0
              ],
              "quaternion": [
                -0.5125010476614804,
                -2.674813363065815e-19,
                -1.0779608592740396e-18,
                0.8586865994912727
              ],
              "scale": [
                1,
                1,
                1
              ]
            },
            "RightMiddle3": {
              "position": [
                0,
                0.024,
                0
              ],
              "quaternion": [
                -0.3831639388251438,
                0,
                0,
                0.9236803537934546
              ],
              "scale": [
                1,
                1,
                1
              ]
            },
            "RightMiddleTip": {
              "position": [
                0,
                0.019,
                0
              ],
              "quaternion": [
                0,
                0,
                0,
                1
              ],
              "scale": [
                1,
                1,
                1
              ]
            },
            "RightRing1": {
              "position": [
                0.012,
                0.034,
                0
              ],
              "quaternion": [
                -0.5164189643182543,
                -5.431672560874826e-19,
                2.0865113682650218e-19,
                0.8563360632908449
              ],
              "scale": [
                1,
                1,
                1
              ]
            },
            "RightRing2": {
              "position": [
                0,
                0.032,
                0
              ],
              "quaternion": [
                -0.5111996828264194,
                0,
                0,
                0.8594619737243573
              ],
              "scale": [
                1,
                1,
                1
              ]
            },
            "RightRing3": {
              "position": [
                0,
                0.023,
                0
              ],
              "quaternion": [
                -0.362925681668327,
                0,
                0,
                0.9318180882476903
              ],
              "scale": [
                1,
                1,
                1
              ]
            },
            "RightRingTip": {
              "position": [
                0,
                0.018,
                0
              ],
              "quaternion": [
                0,
                0,
                0,
                1
              ],
              "scale": [
                1,
                1,
                1
              ]
            },
            "RightLittle1": {
              "position": [
                0.03,
                0.021,
                0
              ],
              "quaternion": [
                -0.4995137047802913,
                -0.0010154792559768067,
                0.0005712116858137524,
                0.8663052009862108
              ],
              "scale": [
                1,
                1,
                1
              ]
            },
            "RightLittle2": {
              "position": [
                0,
                0.025,
                0
              ],
              "quaternion": [
                -0.5031615214113471,
                -0.00550313281958332,
                -0.0035235191782984113,
                0.8641676826361825
              ],
              "scale": [
                1,
                1,
                1
              ]
            },
            "RightLittle3": {
              "position": [
                0,
                0.018,
                0
              ],
              "quaternion": [
                -0.4178218646875668,
                -0.019617228528732888,
                -0.048961184934738056,
                0.9069966130607336
              ],
              "scale": [
                1,
                1,
                1
              ]
            },
            "RightLittleTip": {
              "position": [
                0,
                0.015,
                0
              ],
              "quaternion": [
                0,
                0,
                0,
                1
              ],
              "scale": [
                1,
                1,
                1
              ]
            },
            "RightThumb1": {
              "position": [
                -0.033,
                -0.016,
                -0.006
              ],
              "quaternion": [
                -0.16021840628550368,
                -0.09708823748597704,
                -0.4379870156959568,
                0.8792447386882385
              ],
              "scale": [
                1,
                1,
                1
              ]
            },
            "RightThumb2": {
              "position": [
                0,
                0.028,
                0
              ],
              "quaternion": [
                -0.3708777010695441,
                0.0031019974969488354,
                0.0028586670197621312,
                0.9286721361620416
              ],
              "scale": [
                1,
                1,
                1
              ]
            },
            "RightThumb3": {
              "position": [
                0,
                0.023,
                0
              ],
              "quaternion": [
                -0.30301367713256744,
                0.011804558485002503,
                0.042059603645570924,
                0.9519844292900765
              ],
              "scale": [
                1,
                1,
                1
              ]
            },
            "RightThumbTip": {
              "position": [
                0,
                0.02,
                0
              ],
              "quaternion": [
                0,
                0,
                0,
                1
              ],
              "scale": [
                1,
                1,
                1
              ]
            },
            "LeftHand": {
              "position": [
                -0.024,
                -0.051000000000000004,
                -0.296
              ],
              "quaternion": [
                -0.5,
                -0.5,
                0.5,
                -0.5
              ],
              "scale": [
                -1,
                1,
                1
              ]
            },
            "LeftPalm": {
              "position": [
                0,
                0,
                0
              ],
              "quaternion": [
                0,
                0,
                0,
                1
              ],
              "scale": [
                1,
                1,
                1
              ]
            },
            "LeftForearm": {
              "position": [
                0,
                -0.057,
                0
              ],
              "quaternion": [
                -0.2025459825067909,
                0,
                0.5183054399518754,
                0.8308637649378215
              ],
              "scale": [
                1,
                1.9439450735500714,
                1
              ]
            },
            "LeftIndex1": {
              "position": [
                -0.029,
                0.029,
                0
              ],
              "quaternion": [
                -0.1598417155730976,
                0,
                0,
                0.9871426573513317
              ],
              "scale": [
                1,
                1,
                1
              ]
            },
            "LeftIndex2": {
              "position": [
                0,
                0.029,
                0
              ],
              "quaternion": [
                -0.466414872706121,
                -9.788059454213059e-17,
                -4.789954059203327e-18,
                0.8845660894012013
              ],
              "scale": [
                1,
                1,
                1
              ]
            },
            "LeftIndex3": {
              "position": [
                0,
                0.022,
                0
              ],
              "quaternion": [
                -0.4363931918964197,
                -1.2340773572109296e-17,
                3.3541154083789557e-17,
                0.8997560680909321
              ],
              "scale": [
                1,
                1,
                1
              ]
            },
            "LeftIndexTip": {
              "position": [
                0,
                0.017,
                0
              ],
              "quaternion": [
                0,
                0,
                0,
                1
              ],
              "scale": [
                1,
                1,
                1
              ]
            },
            "LeftMiddle1": {
              "position": [
                -0.009,
                0.037,
                0
              ],
              "quaternion": [
                -0.19990178922120547,
                -0.002617800696983387,
                -0.002318211799878597,
                0.9798096997273106
              ],
              "scale": [
                1,
                1,
                1
              ]
            },
            "LeftMiddle2": {
              "position": [
                0,
                0.034,
                0
              ],
              "quaternion": [
                -0.5194357355953881,
                -0.008909282463201513,
                -0.006660448316810534,
                0.8544371127828474
              ],
              "scale": [
                1,
                1,
                1
              ]
            },
            "LeftMiddle3": {
              "position": [
                0,
                0.024,
                0
              ],
              "quaternion": [
                -0.5388035012978656,
                -0.024323851148635518,
                -0.041420462411584646,
                0.8410609267752669
              ],
              "scale": [
                1,
                1,
                1
              ]
            },
            "LeftMiddleTip": {
              "position": [
                0,
                0.019,
                0
              ],
              "quaternion": [
                0,
                0,
                0,
                1
              ],
              "scale": [
                1,
                1,
                1
              ]
            },
            "LeftRing1": {
              "position": [
                0.012,
                0.034,
                0
              ],
              "quaternion": [
                -0.19022018108108546,
                0,
                0,
                0.9817414541056515
              ],
              "scale": [
                1,
                1,
                1
              ]
            },
            "LeftRing2": {
              "position": [
                0,
                0.032,
                0
              ],
              "quaternion": [
                -0.503817472342684,
                4.817943958569979e-18,
                -2.477873879268115e-18,
                0.8638101380293174
              ],
              "scale": [
                1,
                1,
                1
              ]
            },
            "LeftRing3": {
              "position": [
                0,
                0.023,
                0
              ],
              "quaternion": [
                -0.5084626595426472,
                0,
                0,
                0.8610840399466348
              ],
              "scale": [
                1,
                1,
                1
              ]
            },
            "LeftRingTip": {
              "position": [
                0,
                0.018,
                0
              ],
              "quaternion": [
                0,
                0,
                0,
                1
              ],
              "scale": [
                1,
                1,
                1
              ]
            },
            "LeftLittle1": {
              "position": [
                0.03,
                0.021,
                0
              ],
              "quaternion": [
                -0.1761824654437341,
                0,
                0,
                0.9843575259376887
              ],
              "scale": [
                1,
                1,
                1
              ]
            },
            "LeftLittle2": {
              "position": [
                0,
                0.025,
                0
              ],
              "quaternion": [
                -0.497738407285251,
                -3.347653720012135e-17,
                -1.266259318529839e-17,
                0.8673272034896297
              ],
              "scale": [
                1,
                1,
                1
              ]
            },
            "LeftLittle3": {
              "position": [
                0,
                0.018,
                0
              ],
              "quaternion": [
                -0.555279482734206,
                0,
                0,
                0.831663811918273
              ],
              "scale": [
                1,
                1,
                1
              ]
            },
            "LeftLittleTip": {
              "position": [
                0,
                0.015,
                0
              ],
              "quaternion": [
                0,
                0,
                0,
                1
              ],
              "scale": [
                1,
                1,
                1
              ]
            },
            "LeftThumb1": {
              "position": [
                -0.033,
                -0.016,
                -0.006
              ],
              "quaternion": [
                -0.18679740138063336,
                -0.0760760452962255,
                -0.3822613606159122,
                0.9017734850557544
              ],
              "scale": [
                1,
                1,
                1
              ]
            },
            "LeftThumb2": {
              "position": [
                0,
                0.028,
                0
              ],
              "quaternion": [
                -0.3938241943957056,
                -0.0010614546178193153,
                -0.0012970126184163682,
                0.9191842551855074
              ],
              "scale": [
                1,
                1,
                1
              ]
            },
            "LeftThumb3": {
              "position": [
                0,
                0.023,
                0
              ],
              "quaternion": [
                -0.3240380719958281,
                -0.0028765129368233605,
                -0.008392463209182011,
                0.9460024419269928
              ],
              "scale": [
                1,
                1,
                1
              ]
            },
            "LeftThumbTip": {
              "position": [
                0,
                0.02,
                0
              ],
              "quaternion": [
                0,
                0,
                0,
                1
              ],
              "scale": [
                1,
                1,
                1
              ]
            }
          },
          "reloadHand": {
            "position": [
              -0.024,
              -0.11200000149011612,
              -0.0827500019222498
            ],
            "quaternion": [
              -0.5,
              -0.5,
              0.5,
              -0.5
            ],
            "bones": {
              "LeftPalm": [
                0,
                0,
                0,
                1
              ],
              "LeftIndex1": [
                -0.23442351820104484,
                -0.011476677254644017,
                -0.013497249745956466,
                0.9719731088063767
              ],
              "LeftIndex2": [
                -0.6343057122721147,
                -0.0201543355195093,
                -0.021938969288572006,
                0.7725080891261197
              ],
              "LeftIndex3": [
                -0.7236802070304336,
                -0.020035211861753298,
                -0.044124977641488136,
                0.6884319389643252
              ],
              "LeftIndexTip": [
                0,
                0,
                0,
                1
              ],
              "LeftMiddle1": [
                -0.35814886230028525,
                -0.009016855043418943,
                -0.018235666011417642,
                0.9334428473362778
              ],
              "LeftMiddle2": [
                -0.6885331052395344,
                -0.010423292225976388,
                -0.019937318972609693,
                0.7248558624171849
              ],
              "LeftMiddle3": [
                -0.7009474369805607,
                -0.010963994442858586,
                -0.03996637153809293,
                0.7120078444527976
              ],
              "LeftMiddleTip": [
                0,
                0,
                0,
                1
              ],
              "LeftRing1": [
                -0.3087158465709133,
                -0.01463943600319061,
                -0.019249896284466543,
                0.9508468091562121
              ],
              "LeftRing2": [
                -0.6633335088535305,
                -0.021181190783689255,
                -0.02001733994492074,
                0.747756189737388
              ],
              "LeftRing3": [
                -0.6997605185905619,
                -0.023948789976508872,
                -0.039046600238368916,
                0.7129074519812189
              ],
              "LeftRingTip": [
                0,
                0,
                0,
                1
              ],
              "LeftLittle1": [
                -0.18172940642292282,
                0.0063795079047715055,
                0.004621319811141382,
                0.9833170232042502
              ],
              "LeftLittle2": [
                -0.5230077409873563,
                0.022026373289554032,
                0.014289768173587578,
                0.8519234380345202
              ],
              "LeftLittle3": [
                -0.6341966703464932,
                0.05412982536306558,
                0.08211671070005827,
                0.7668907296032389
              ],
              "LeftLittleTip": [
                0,
                0,
                0,
                1
              ],
              "LeftThumb1": [
                -0.16457852422888491,
                -0.10011622987940312,
                -0.4221914403228452,
                0.8858019178097875
              ],
              "LeftThumb2": [
                -0.4596292786012442,
                -0.04119071539087251,
                -0.12361380747023909,
                0.8785009264769159
              ],
              "LeftThumb3": [
                0.428247444982193,
                0.020392409577147507,
                0.6544239919578853,
                0.6228302451292556
              ],
              "LeftThumbTip": [
                0,
                0,
                0,
                1
              ]
            }
          }
        },
        "gltfUUID": "weapon-shotgun-root"
      },
      "children": [
        1
      ]
    },
    {
      "name": "Body",
      "extras": {
        "gltfUUID": "weapon-shotgun-Body"
      },
      "children": [
        2,
        4,
        6,
        8,
        10,
        12,
        14,
        15,
        17,
        19,
        21,
        23,
        24,
        25,
        26
      ]
    },
    {
      "name": "Bolt",
      "extras": {
        "gltfUUID": "weapon-shotgun-Bolt"
      },
      "children": [
        3
      ]
    },
    {
      "name": "Bolt Surface",
      "extras": {
        "gltfUUID": "weapon-shotgun-Bolt-Surface"
      },
      "mesh": 0
    },
    {
      "name": "Magazine",
      "extras": {
        "gltfUUID": "weapon-shotgun-Magazine"
      },
      "children": [
        5
      ]
    },
    {
      "name": "Magazine Surface",
      "extras": {
        "gltfUUID": "weapon-shotgun-Magazine-Surface"
      },
      "mesh": 1
    },
    {
      "name": "Pump",
      "extras": {
        "gltfUUID": "weapon-shotgun-Pump"
      },
      "children": [
        7
      ]
    },
    {
      "name": "Pump Surface",
      "extras": {
        "gltfUUID": "weapon-shotgun-Pump-Surface"
      },
      "mesh": 2
    },
    {
      "name": "Receiver",
      "extras": {
        "gltfUUID": "weapon-shotgun-Receiver"
      },
      "children": [
        9
      ]
    },
    {
      "name": "Receiver Surface",
      "extras": {
        "gltfUUID": "weapon-shotgun-Receiver-Surface"
      },
      "mesh": 3
    },
    {
      "name": "Barrel",
      "extras": {
        "gltfUUID": "weapon-shotgun-Barrel"
      },
      "children": [
        11
      ]
    },
    {
      "name": "Barrel Surface",
      "extras": {
        "gltfUUID": "weapon-shotgun-Barrel-Surface"
      },
      "mesh": 4
    },
    {
      "name": "Stock",
      "extras": {
        "gltfUUID": "weapon-shotgun-Stock"
      },
      "children": [
        13
      ]
    },
    {
      "name": "Stock Surface",
      "extras": {
        "gltfUUID": "weapon-shotgun-Stock-Surface"
      },
      "mesh": 5
    },
    {
      "name": "Handguard",
      "extras": {
        "gltfUUID": "weapon-shotgun-Handguard"
      }
    },
    {
      "name": "Grip",
      "extras": {
        "gltfUUID": "weapon-shotgun-Grip"
      },
      "children": [
        16
      ]
    },
    {
      "name": "Grip Surface",
      "extras": {
        "gltfUUID": "weapon-shotgun-Grip-Surface"
      },
      "mesh": 6
    },
    {
      "name": "TriggerGuard",
      "extras": {
        "gltfUUID": "weapon-shotgun-TriggerGuard"
      },
      "children": [
        18
      ]
    },
    {
      "name": "TriggerGuard Surface",
      "extras": {
        "gltfUUID": "weapon-shotgun-TriggerGuard-Surface"
      },
      "mesh": 7
    },
    {
      "name": "Trigger",
      "extras": {
        "gltfUUID": "weapon-shotgun-Trigger"
      },
      "children": [
        20
      ]
    },
    {
      "name": "Trigger Surface",
      "extras": {
        "gltfUUID": "weapon-shotgun-Trigger-Surface"
      },
      "mesh": 8
    },
    {
      "name": "Sights",
      "extras": {
        "gltfUUID": "weapon-shotgun-Sights"
      },
      "children": [
        22
      ]
    },
    {
      "name": "Sights Surface",
      "extras": {
        "gltfUUID": "weapon-shotgun-Sights-Surface"
      },
      "mesh": 9
    },
    {
      "name": "Muzzle",
      "extras": {
        "gltfUUID": "weapon-shotgun-Muzzle"
      },
      "translation": [
        0,
        0.03,
        -0.606
      ]
    },
    {
      "name": "Ejection",
      "extras": {
        "gltfUUID": "weapon-shotgun-Ejection"
      },
      "translation": [
        0.042,
        0.018,
        -0.031
      ]
    },
    {
      "name": "SightFront",
      "extras": {
        "gltfUUID": "weapon-shotgun-SightFront"
      },
      "translation": [
        0,
        0.072,
        -0.573
      ]
    },
    {
      "name": "SightRear",
      "extras": {
        "gltfUUID": "weapon-shotgun-SightRear"
      },
      "translation": [
        0,
        0.072,
        0.04
      ]
    }
  ],
  "scenes": [
    {
      "name": "shotgun Asset",
      "nodes": [
        0
      ]
    }
  ]
}
