{
  "asset": {
    "generator": "Khronos glTF Blender I/O v4.2.60",
    "version": "2.0"
  },
  "scene": 0,
  "scenes": [
    {
      "name": "Scene",
      "nodes": [
        0
      ]
    }
  ],
  "nodes": [
    {
      "mesh": 0,
      "name": "dead_quiver_branch_02"
    }
  ],
  "materials": [
    {
      "doubleSided": true,
      "name": "dead_quiver_branch_02",
      "normalTexture": {
        "index": 0
      },
      "pbrMetallicRoughness": {
        "baseColorTexture": {
          "index": 1
        },
        "metallicFactor": 0,
        "metallicRoughnessTexture": {
          "index": 2
        }
      }
    }
  ],
  "meshes": [
    {
      "name": "realCap_Model_2",
      "primitives": [
        {
          "attributes": {
            "POSITION": 0,
            "NORMAL": 1,
            "TEXCOORD_0": 2
          },
          "indices": 3,
          "material": 0
        }
      ]
    }
  ],
  "textures": [
    {
      "sampler": 0,
      "source": 0
    },
    {
      "sampler": 0,
      "source": 1
    },
    {
      "sampler": 0,
      "source": 2
    }
  ],
  "images": [
    {
      "mimeType": "image/jpeg",
      "name": "dead_quiver_branch_02_nor_gl",
      "uri": "textures/dead_quiver_branch_02_nor_gl_1k.jpg"
    },
    {
      "mimeType": "image/jpeg",
      "name": "dead_quiver_branch_02_diff",
      "uri": "textures/dead_quiver_branch_02_diff_1k.jpg"
    },
    {
      "mimeType": "image/jpeg",
      "name": "dead_quiver_branch_02_rough",
      "uri": "textures/dead_quiver_branch_02_arm_1k.jpg"
    }
  ],
  "accessors": [
    {
      "bufferView": 0,
      "componentType": 5126,
      "count": 8258,
      "max": [
        0.14863552153110504,
        0.5280643105506897,
        0.11564069241285324
      ],
      "min": [
        -0.13870181143283844,
        0.0016802126774564385,
        -0.08539087325334549
      ],
      "type": "VEC3"
    },
    {
      "bufferView": 1,
      "componentType": 5126,
      "count": 8258,
      "type": "VEC3"
    },
    {
      "bufferView": 2,
      "componentType": 5126,
      "count": 8258,
      "type": "VEC2"
    },
    {
      "bufferView": 3,
      "componentType": 5123,
      "count": 43158,
      "type": "SCALAR"
    }
  ],
  "bufferViews": [
    {
      "buffer": 0,
      "byteLength": 99096,
      "byteOffset": 0,
      "target": 34962
    },
    {
      "buffer": 0,
      "byteLength": 99096,
      "byteOffset": 99096,
      "target": 34962
    },
    {
      "buffer": 0,
      "byteLength": 66064,
      "byteOffset": 198192,
      "target": 34962
    },
    {
      "buffer": 0,
      "byteLength": 86316,
      "byteOffset": 264256,
      "target": 34963
    }
  ],
  "samplers": [
    {
      "magFilter": 9729,
      "minFilter": 9987
    }
  ],
  "buffers": [
    {
      "byteLength": 350572,
      "uri": "dead_quiver_branch_02.bin"
    }
  ]
}
