{
  "asset": {
    "generator": "Khronos glTF Blender I/O v5.2.40",
    "version": "2.0"
  },
  "scene": 0,
  "scenes": [
    {
      "name": "Scene",
      "nodes": [
        7
      ]
    }
  ],
  "nodes": [
    {
      "mesh": 0,
      "name": "Hammer"
    },
    {
      "mesh": 1,
      "name": "LOW_CHamberLock"
    },
    {
      "mesh": 2,
      "name": "LOW_CHamberRotate"
    },
    {
      "mesh": 3,
      "name": "REV_Cylinder"
    },
    {
      "mesh": 4,
      "name": "REV_Frame"
    },
    {
      "mesh": 5,
      "name": "REV_Handle"
    },
    {
      "mesh": 6,
      "name": "REV_Trigger"
    },
    {
      "children": [
        0,
        1,
        2,
        3,
        4,
        5,
        6
      ],
      "name": "loafbrr-cc0 display"
    }
  ],
  "materials": [
    {
      "doubleSided": true,
      "name": "Candidate revolver loafbrr-cc0 main",
      "normalTexture": {
        "index": 0
      },
      "pbrMetallicRoughness": {
        "baseColorTexture": {
          "index": 1
        },
        "metallicRoughnessTexture": {
          "index": 2
        }
      },
      "occlusionTexture": {
        "index": 2,
        "strength": 1
      }
    }
  ],
  "meshes": [
    {
      "name": "Circle.001",
      "primitives": [
        {
          "attributes": {
            "POSITION": 0,
            "NORMAL": 1,
            "TEXCOORD_0": 2
          },
          "indices": 3,
          "material": 0
        }
      ]
    },
    {
      "name": "Cylinder.025",
      "primitives": [
        {
          "attributes": {
            "POSITION": 4,
            "NORMAL": 5,
            "TEXCOORD_0": 6
          },
          "indices": 7,
          "material": 0
        }
      ]
    },
    {
      "name": "Cylinder.026",
      "primitives": [
        {
          "attributes": {
            "POSITION": 8,
            "NORMAL": 9,
            "TEXCOORD_0": 10
          },
          "indices": 11,
          "material": 0
        }
      ]
    },
    {
      "name": "Cylinder.027",
      "primitives": [
        {
          "attributes": {
            "POSITION": 12,
            "NORMAL": 13,
            "TEXCOORD_0": 14
          },
          "indices": 15,
          "material": 0
        }
      ]
    },
    {
      "name": "Circle.002",
      "primitives": [
        {
          "attributes": {
            "POSITION": 16,
            "NORMAL": 17,
            "TEXCOORD_0": 18
          },
          "indices": 19,
          "material": 0
        }
      ]
    },
    {
      "name": "Circle.006",
      "primitives": [
        {
          "attributes": {
            "POSITION": 20,
            "NORMAL": 21,
            "TEXCOORD_0": 22
          },
          "indices": 23,
          "material": 0
        }
      ]
    },
    {
      "name": "Cube.001",
      "primitives": [
        {
          "attributes": {
            "POSITION": 24,
            "NORMAL": 25,
            "TEXCOORD_0": 26
          },
          "indices": 27,
          "material": 0
        }
      ]
    }
  ],
  "textures": [
    {
      "sampler": 0,
      "source": 0
    },
    {
      "sampler": 0,
      "source": 1
    },
    {
      "sampler": 0,
      "source": 2
    }
  ],
  "images": [
    {
      "mimeType": "image/png",
      "name": "main-normal",
      "uri": "main-normal.png"
    },
    {
      "mimeType": "image/png",
      "name": "main-albedo",
      "uri": "main-albedo.png"
    },
    {
      "mimeType": "image/png",
      "name": "main-orm",
      "uri": "main-orm.png"
    }
  ],
  "accessors": [
    {
      "bufferView": 0,
      "componentType": 5126,
      "count": 87,
      "max": [
        -0.029837261885404587,
        0.14913244545459747,
        0.003776735858991742
      ],
      "min": [
        -0.07178452610969543,
        0.12056560814380646,
        -0.0037767442408949137
      ],
      "type": "VEC3"
    },
    {
      "bufferView": 1,
      "componentType": 5126,
      "count": 87,
      "type": "VEC3"
    },
    {
      "bufferView": 2,
      "componentType": 5126,
      "count": 87,
      "type": "VEC2"
    },
    {
      "bufferView": 3,
      "componentType": 5123,
      "count": 222,
      "type": "SCALAR"
    },
    {
      "bufferView": 4,
      "componentType": 5126,
      "count": 50,
      "max": [
        -0.09231949597597122,
        0.13018624484539032,
        0.00276388693600893
      ],
      "min": [
        -0.2108953297138214,
        0.12465843558311462,
        -0.002763947006314993
      ],
      "type": "VEC3"
    },
    {
      "bufferView": 5,
      "componentType": 5126,
      "count": 50,
      "type": "VEC3"
    },
    {
      "bufferView": 6,
      "componentType": 5126,
      "count": 50,
      "type": "VEC2"
    },
    {
      "bufferView": 7,
      "componentType": 5123,
      "count": 132,
      "type": "SCALAR"
    },
    {
      "bufferView": 8,
      "componentType": 5126,
      "count": 52,
      "max": [
        -0.13783106207847595,
        0.13213537633419037,
        0.011093132197856903
      ],
      "min": [
        -0.15669117867946625,
        0.09027630090713501,
        -0.003981707151979208
      ],
      "type": "VEC3"
    },
    {
      "bufferView": 9,
      "componentType": 5126,
      "count": 52,
      "type": "VEC3"
    },
    {
      "bufferView": 10,
      "componentType": 5126,
      "count": 52,
      "type": "VEC2"
    },
    {
      "bufferView": 11,
      "componentType": 5123,
      "count": 114,
      "type": "SCALAR"
    },
    {
      "bufferView": 12,
      "componentType": 5126,
      "count": 712,
      "max": [
        -0.08184307813644409,
        0.15324078500270844,
        0.025818411260843277
      ],
      "min": [
        -0.13743650913238525,
        0.1016039103269577,
        -0.02581845596432686
      ],
      "type": "VEC3"
    },
    {
      "bufferView": 13,
      "componentType": 5126,
      "count": 712,
      "type": "VEC3"
    },
    {
      "bufferView": 14,
      "componentType": 5126,
      "count": 712,
      "type": "VEC2"
    },
    {
      "bufferView": 15,
      "componentType": 5123,
      "count": 2496,
      "type": "SCALAR"
    },
    {
      "bufferView": 16,
      "componentType": 5126,
      "count": 742,
      "max": [
        -0.01205733697861433,
        0.16478954255580902,
        0.021045798435807228
      ],
      "min": [
        -0.3168318271636963,
        0.04879606142640114,
        -0.021045833826065063
      ],
      "type": "VEC3"
    },
    {
      "bufferView": 17,
      "componentType": 5126,
      "count": 742,
      "type": "VEC3"
    },
    {
      "bufferView": 18,
      "componentType": 5126,
      "count": 742,
      "type": "VEC2"
    },
    {
      "bufferView": 19,
      "componentType": 5123,
      "count": 2064,
      "type": "SCALAR"
    },
    {
      "bufferView": 20,
      "componentType": 5126,
      "count": 158,
      "max": [
        0.03316816687583923,
        0.1180826723575592,
        0.013706772588193417
      ],
      "min": [
        -0.06879067420959473,
        -0.014629952609539032,
        -0.01370678935199976
      ],
      "type": "VEC3"
    },
    {
      "bufferView": 21,
      "componentType": 5126,
      "count": 158,
      "type": "VEC3"
    },
    {
      "bufferView": 22,
      "componentType": 5126,
      "count": 158,
      "type": "VEC2"
    },
    {
      "bufferView": 23,
      "componentType": 5123,
      "count": 756,
      "type": "SCALAR"
    },
    {
      "bufferView": 24,
      "componentType": 5126,
      "count": 66,
      "max": [
        -0.07828826457262039,
        0.0994769036769867,
        0.0034677921794354916
      ],
      "min": [
        -0.10463239997625351,
        0.05932847782969475,
        -0.0034678203519433737
      ],
      "type": "VEC3"
    },
    {
      "bufferView": 25,
      "componentType": 5126,
      "count": 66,
      "type": "VEC3"
    },
    {
      "bufferView": 26,
      "componentType": 5126,
      "count": 66,
      "type": "VEC2"
    },
    {
      "bufferView": 27,
      "componentType": 5123,
      "count": 162,
      "type": "SCALAR"
    }
  ],
  "bufferViews": [
    {
      "buffer": 0,
      "byteLength": 1044,
      "byteOffset": 0,
      "target": 34962
    },
    {
      "buffer": 0,
      "byteLength": 1044,
      "byteOffset": 1044,
      "target": 34962
    },
    {
      "buffer": 0,
      "byteLength": 696,
      "byteOffset": 2088,
      "target": 34962
    },
    {
      "buffer": 0,
      "byteLength": 444,
      "byteOffset": 2784,
      "target": 34963
    },
    {
      "buffer": 0,
      "byteLength": 600,
      "byteOffset": 3228,
      "target": 34962
    },
    {
      "buffer": 0,
      "byteLength": 600,
      "byteOffset": 3828,
      "target": 34962
    },
    {
      "buffer": 0,
      "byteLength": 400,
      "byteOffset": 4428,
      "target": 34962
    },
    {
      "buffer": 0,
      "byteLength": 264,
      "byteOffset": 4828,
      "target": 34963
    },
    {
      "buffer": 0,
      "byteLength": 624,
      "byteOffset": 5092,
      "target": 34962
    },
    {
      "buffer": 0,
      "byteLength": 624,
      "byteOffset": 5716,
      "target": 34962
    },
    {
      "buffer": 0,
      "byteLength": 416,
      "byteOffset": 6340,
      "target": 34962
    },
    {
      "buffer": 0,
      "byteLength": 228,
      "byteOffset": 6756,
      "target": 34963
    },
    {
      "buffer": 0,
      "byteLength": 8544,
      "byteOffset": 6984,
      "target": 34962
    },
    {
      "buffer": 0,
      "byteLength": 8544,
      "byteOffset": 15528,
      "target": 34962
    },
    {
      "buffer": 0,
      "byteLength": 5696,
      "byteOffset": 24072,
      "target": 34962
    },
    {
      "buffer": 0,
      "byteLength": 4992,
      "byteOffset": 29768,
      "target": 34963
    },
    {
      "buffer": 0,
      "byteLength": 8904,
      "byteOffset": 34760,
      "target": 34962
    },
    {
      "buffer": 0,
      "byteLength": 8904,
      "byteOffset": 43664,
      "target": 34962
    },
    {
      "buffer": 0,
      "byteLength": 5936,
      "byteOffset": 52568,
      "target": 34962
    },
    {
      "buffer": 0,
      "byteLength": 4128,
      "byteOffset": 58504,
      "target": 34963
    },
    {
      "buffer": 0,
      "byteLength": 1896,
      "byteOffset": 62632,
      "target": 34962
    },
    {
      "buffer": 0,
      "byteLength": 1896,
      "byteOffset": 64528,
      "target": 34962
    },
    {
      "buffer": 0,
      "byteLength": 1264,
      "byteOffset": 66424,
      "target": 34962
    },
    {
      "buffer": 0,
      "byteLength": 1512,
      "byteOffset": 67688,
      "target": 34963
    },
    {
      "buffer": 0,
      "byteLength": 792,
      "byteOffset": 69200,
      "target": 34962
    },
    {
      "buffer": 0,
      "byteLength": 792,
      "byteOffset": 69992,
      "target": 34962
    },
    {
      "buffer": 0,
      "byteLength": 528,
      "byteOffset": 70784,
      "target": 34962
    },
    {
      "buffer": 0,
      "byteLength": 324,
      "byteOffset": 71312,
      "target": 34963
    }
  ],
  "samplers": [
    {
      "magFilter": 9729,
      "minFilter": 9987
    }
  ],
  "buffers": [
    {
      "byteLength": 71636,
      "uri": "loafbrr-cc0.bin"
    }
  ]
}
