{
  "asset": {
    "generator": "Terminator tools/build-map-assets.mjs with glTF-Transform 4.5.0 and three.js",
    "version": "2.0"
  },
  "accessors": [
    {
      "name": "Floor slab ground POSITION",
      "type": "VEC3",
      "componentType": 5126,
      "count": 36,
      "max": [
        30,
        0.25,
        30
      ],
      "min": [
        -30,
        -0.25,
        -30
      ],
      "bufferView": 0,
      "byteOffset": 0
    },
    {
      "name": "Floor slab ground NORMAL",
      "type": "VEC3",
      "componentType": 5126,
      "count": 36,
      "bufferView": 0,
      "byteOffset": 12
    },
    {
      "name": "Floor slab ground TEXCOORD_0",
      "type": "VEC2",
      "componentType": 5126,
      "count": 36,
      "bufferView": 0,
      "byteOffset": 24
    }
  ],
  "bufferViews": [
    {
      "buffer": 0,
      "byteOffset": 0,
      "byteLength": 1152,
      "byteStride": 32,
      "target": 34962
    }
  ],
  "samplers": [
    {
      "wrapS": 10497,
      "wrapT": 10497
    }
  ],
  "textures": [
    {
      "source": 0,
      "sampler": 0
    },
    {
      "source": 1,
      "sampler": 0
    },
    {
      "source": 2,
      "sampler": 0
    }
  ],
  "images": [
    {
      "name": "asphalt_02_diff_1k.jpg",
      "mimeType": "image/jpeg",
      "uri": "/kite3d/assets/textures/map/asphalt_02_diff_1k.jpg"
    },
    {
      "name": "asphalt_02_nor_gl_1k.jpg",
      "mimeType": "image/jpeg",
      "uri": "/kite3d/assets/textures/map/asphalt_02_nor_gl_1k.jpg"
    },
    {
      "name": "asphalt_02_arm_1k.jpg",
      "mimeType": "image/jpeg",
      "uri": "/kite3d/assets/textures/map/asphalt_02_arm_1k.jpg"
    }
  ],
  "buffers": [
    {
      "name": "Map piece geometry",
      "uri": "floor-60x0p5x60.bin",
      "byteLength": 1152
    }
  ],
  "materials": [
    {
      "name": "Map ground",
      "pbrMetallicRoughness": {
        "baseColorFactor": [
          0.32,
          0.38,
          0.43,
          1
        ],
        "roughnessFactor": 0.94,
        "metallicFactor": 0,
        "baseColorTexture": {
          "index": 0
        },
        "metallicRoughnessTexture": {
          "index": 2
        }
      },
      "normalTexture": {
        "index": 1
      },
      "occlusionTexture": {
        "index": 2
      }
    }
  ],
  "meshes": [
    {
      "name": "Floor slab ground",
      "primitives": [
        {
          "attributes": {
            "POSITION": 0,
            "NORMAL": 1,
            "TEXCOORD_0": 2
          },
          "mode": 4,
          "material": 0
        }
      ]
    }
  ],
  "nodes": [
    {
      "name": "Floor slab asset",
      "extras": {
        "mapPieceAsset": true
      },
      "children": [
        1
      ]
    },
    {
      "name": "Floor slab ground",
      "extras": {
        "material": "ground"
      },
      "mesh": 0
    }
  ],
  "scenes": [
    {
      "name": "Floor 60x0p5x60",
      "nodes": [
        0
      ]
    }
  ]
}
