{
  "asset": {
    "generator": "Terminator tools/build-map-assets.mjs with glTF-Transform 4.5.0 and three.js",
    "version": "2.0"
  },
  "accessors": [
    {
      "name": "Container red POSITION",
      "type": "VEC3",
      "componentType": 5126,
      "count": 36,
      "max": [
        1.2999999523162842,
        1.4500000476837158,
        3
      ],
      "min": [
        -1.2999999523162842,
        -1.4500000476837158,
        -3
      ],
      "bufferView": 0,
      "byteOffset": 0
    },
    {
      "name": "Container red NORMAL",
      "type": "VEC3",
      "componentType": 5126,
      "count": 36,
      "bufferView": 0,
      "byteOffset": 12
    },
    {
      "name": "Container red TEXCOORD_0",
      "type": "VEC2",
      "componentType": 5126,
      "count": 36,
      "bufferView": 0,
      "byteOffset": 24
    },
    {
      "name": "Container rust POSITION",
      "type": "VEC3",
      "componentType": 5126,
      "count": 144,
      "max": [
        1.2999999523162842,
        1.440000057220459,
        3
      ],
      "min": [
        -1.2999999523162842,
        -1.440000057220459,
        -3
      ],
      "bufferView": 1,
      "byteOffset": 0
    },
    {
      "name": "Container rust NORMAL",
      "type": "VEC3",
      "componentType": 5126,
      "count": 144,
      "bufferView": 1,
      "byteOffset": 12
    },
    {
      "name": "Container rust TEXCOORD_0",
      "type": "VEC2",
      "componentType": 5126,
      "count": 144,
      "bufferView": 1,
      "byteOffset": 24
    }
  ],
  "bufferViews": [
    {
      "buffer": 0,
      "byteOffset": 0,
      "byteLength": 1152,
      "byteStride": 32,
      "target": 34962
    },
    {
      "buffer": 0,
      "byteOffset": 1152,
      "byteLength": 4608,
      "byteStride": 32,
      "target": 34962
    }
  ],
  "samplers": [
    {
      "wrapS": 10497,
      "wrapT": 10497
    }
  ],
  "textures": [
    {
      "source": 0,
      "sampler": 0
    },
    {
      "source": 1,
      "sampler": 0
    },
    {
      "source": 2,
      "sampler": 0
    },
    {
      "source": 3,
      "sampler": 0
    },
    {
      "source": 4,
      "sampler": 0
    },
    {
      "source": 5,
      "sampler": 0
    }
  ],
  "images": [
    {
      "name": "corrugated_albedo.jpg",
      "mimeType": "image/jpeg",
      "uri": "/kite3d/assets/textures/map/corrugated_albedo.jpg"
    },
    {
      "name": "corrugated_normal.jpg",
      "mimeType": "image/jpeg",
      "uri": "/kite3d/assets/textures/map/corrugated_normal.jpg"
    },
    {
      "name": "corrugated_arm.jpg",
      "mimeType": "image/jpeg",
      "uri": "/kite3d/assets/textures/map/corrugated_arm.jpg"
    },
    {
      "name": "rusty_metal_02_diff_1k.jpg",
      "mimeType": "image/jpeg",
      "uri": "/kite3d/assets/textures/map/rusty_metal_02_diff_1k.jpg"
    },
    {
      "name": "rusty_metal_02_nor_gl_1k.jpg",
      "mimeType": "image/jpeg",
      "uri": "/kite3d/assets/textures/map/rusty_metal_02_nor_gl_1k.jpg"
    },
    {
      "name": "rusty_metal_02_arm_1k.jpg",
      "mimeType": "image/jpeg",
      "uri": "/kite3d/assets/textures/map/rusty_metal_02_arm_1k.jpg"
    }
  ],
  "buffers": [
    {
      "name": "Map piece geometry",
      "uri": "container-red.bin",
      "byteLength": 5760
    }
  ],
  "materials": [
    {
      "name": "Map red",
      "pbrMetallicRoughness": {
        "baseColorFactor": [
          0.56,
          0.19,
          0.14,
          1
        ],
        "roughnessFactor": 0.82,
        "metallicFactor": 0.72,
        "baseColorTexture": {
          "index": 0
        },
        "metallicRoughnessTexture": {
          "index": 2
        }
      },
      "normalTexture": {
        "index": 1
      },
      "occlusionTexture": {
        "index": 2
      }
    },
    {
      "name": "Map rust",
      "pbrMetallicRoughness": {
        "baseColorFactor": [
          0.48,
          0.3,
          0.18,
          1
        ],
        "roughnessFactor": 0.92,
        "metallicFactor": 0.42,
        "baseColorTexture": {
          "index": 3
        },
        "metallicRoughnessTexture": {
          "index": 5
        }
      },
      "normalTexture": {
        "index": 4
      },
      "occlusionTexture": {
        "index": 5
      }
    }
  ],
  "meshes": [
    {
      "name": "Container red",
      "primitives": [
        {
          "attributes": {
            "POSITION": 0,
            "NORMAL": 1,
            "TEXCOORD_0": 2
          },
          "mode": 4,
          "material": 0
        }
      ]
    },
    {
      "name": "Container rust",
      "primitives": [
        {
          "attributes": {
            "POSITION": 3,
            "NORMAL": 4,
            "TEXCOORD_0": 5
          },
          "mode": 4,
          "material": 1
        }
      ]
    }
  ],
  "nodes": [
    {
      "name": "Container asset",
      "extras": {
        "mapPieceAsset": true
      },
      "children": [
        1,
        2
      ]
    },
    {
      "name": "Container red",
      "extras": {
        "material": "red"
      },
      "mesh": 0
    },
    {
      "name": "Container rust",
      "extras": {
        "material": "rust"
      },
      "mesh": 1
    }
  ],
  "scenes": [
    {
      "name": "Container Red",
      "nodes": [
        0
      ]
    }
  ]
}
