{
  "asset": {
    "generator": "Terminator tools/build-map-assets.mjs with glTF-Transform 4.5.0 and three.js",
    "version": "2.0"
  },
  "accessors": [
    {
      "name": "Light fixture steel POSITION",
      "type": "VEC3",
      "componentType": 5126,
      "count": 36,
      "max": [
        0.8500000238418579,
        0.19500000774860382,
        0.14000000059604645
      ],
      "min": [
        -0.8500000238418579,
        -0.08500000089406967,
        -0.14000000059604645
      ],
      "bufferView": 0,
      "byteOffset": 0
    },
    {
      "name": "Light fixture steel NORMAL",
      "type": "VEC3",
      "componentType": 5126,
      "count": 36,
      "bufferView": 0,
      "byteOffset": 12
    },
    {
      "name": "Light fixture steel TEXCOORD_0",
      "type": "VEC2",
      "componentType": 5126,
      "count": 36,
      "bufferView": 0,
      "byteOffset": 24
    },
    {
      "name": "Light fixture whiteGlow POSITION",
      "type": "VEC3",
      "componentType": 5126,
      "count": 384,
      "max": [
        0.75,
        -0.010999999940395355,
        0.08900000154972076
      ],
      "min": [
        -0.75,
        -0.05900000035762787,
        -0.08900000154972076
      ],
      "bufferView": 1,
      "byteOffset": 0
    },
    {
      "name": "Light fixture whiteGlow NORMAL",
      "type": "VEC3",
      "componentType": 5126,
      "count": 384,
      "bufferView": 1,
      "byteOffset": 12
    },
    {
      "name": "Light fixture whiteGlow TEXCOORD_0",
      "type": "VEC2",
      "componentType": 5126,
      "count": 384,
      "bufferView": 1,
      "byteOffset": 24
    }
  ],
  "bufferViews": [
    {
      "buffer": 0,
      "byteOffset": 0,
      "byteLength": 1152,
      "byteStride": 32,
      "target": 34962
    },
    {
      "buffer": 0,
      "byteOffset": 1152,
      "byteLength": 12288,
      "byteStride": 32,
      "target": 34962
    }
  ],
  "samplers": [
    {
      "wrapS": 10497,
      "wrapT": 10497
    }
  ],
  "textures": [
    {
      "source": 0,
      "sampler": 0
    },
    {
      "source": 1,
      "sampler": 0
    },
    {
      "source": 2,
      "sampler": 0
    },
    {
      "source": 3,
      "sampler": 0
    },
    {
      "source": 4,
      "sampler": 0
    },
    {
      "source": 5,
      "sampler": 0
    }
  ],
  "images": [
    {
      "name": "paint_albedo.jpg",
      "mimeType": "image/jpeg",
      "uri": "/kite3d/assets/textures/map/paint_albedo.jpg"
    },
    {
      "name": "paint_normal.jpg",
      "mimeType": "image/jpeg",
      "uri": "/kite3d/assets/textures/map/paint_normal.jpg"
    },
    {
      "name": "paint_arm.jpg",
      "mimeType": "image/jpeg",
      "uri": "/kite3d/assets/textures/map/paint_arm.jpg"
    },
    {
      "name": "glass_albedo.jpg",
      "mimeType": "image/jpeg",
      "uri": "/kite3d/assets/textures/map/glass_albedo.jpg"
    },
    {
      "name": "glass_normal.jpg",
      "mimeType": "image/jpeg",
      "uri": "/kite3d/assets/textures/map/glass_normal.jpg"
    },
    {
      "name": "glass_arm.jpg",
      "mimeType": "image/jpeg",
      "uri": "/kite3d/assets/textures/map/glass_arm.jpg"
    }
  ],
  "buffers": [
    {
      "name": "Map piece geometry",
      "uri": "light-fixture-tube.bin",
      "byteLength": 13440
    }
  ],
  "materials": [
    {
      "name": "Map steel",
      "pbrMetallicRoughness": {
        "baseColorFactor": [
          0.44,
          0.49,
          0.51,
          1
        ],
        "roughnessFactor": 0.68,
        "metallicFactor": 0.82,
        "baseColorTexture": {
          "index": 0
        },
        "metallicRoughnessTexture": {
          "index": 2
        }
      },
      "normalTexture": {
        "index": 1
      },
      "occlusionTexture": {
        "index": 2
      }
    },
    {
      "name": "Map whiteGlow",
      "pbrMetallicRoughness": {
        "baseColorFactor": [
          0.55,
          0.75,
          0.82,
          1
        ],
        "roughnessFactor": 0.5,
        "metallicFactor": 0,
        "baseColorTexture": {
          "index": 3
        },
        "metallicRoughnessTexture": {
          "index": 5
        }
      },
      "emissiveFactor": [
        0.35,
        0.7,
        0.9
      ],
      "normalTexture": {
        "index": 4
      },
      "occlusionTexture": {
        "index": 5
      }
    }
  ],
  "meshes": [
    {
      "name": "Light fixture steel",
      "primitives": [
        {
          "attributes": {
            "POSITION": 0,
            "NORMAL": 1,
            "TEXCOORD_0": 2
          },
          "mode": 4,
          "material": 0
        }
      ]
    },
    {
      "name": "Light fixture whiteGlow",
      "primitives": [
        {
          "attributes": {
            "POSITION": 3,
            "NORMAL": 4,
            "TEXCOORD_0": 5
          },
          "mode": 4,
          "material": 1
        }
      ]
    }
  ],
  "nodes": [
    {
      "name": "Light fixture asset",
      "extras": {
        "mapPieceAsset": true
      },
      "children": [
        1,
        2
      ]
    },
    {
      "name": "Light fixture steel",
      "extras": {
        "material": "steel"
      },
      "mesh": 0
    },
    {
      "name": "Light fixture whiteGlow",
      "extras": {
        "material": "whiteGlow"
      },
      "mesh": 1
    }
  ],
  "scenes": [
    {
      "name": "Light Fixture Tube",
      "nodes": [
        0
      ]
    }
  ]
}
