{
  "asset": {
    "generator": "Terminator tools/build-map-assets.mjs with glTF-Transform 4.5.0 and three.js",
    "version": "2.0"
  },
  "accessors": [
    {
      "name": "Gate sealed plating POSITION",
      "type": "VEC3",
      "componentType": 5126,
      "count": 24,
      "max": [
        3.4749999046325684,
        2.4000000953674316,
        0.03999999910593033
      ],
      "min": [
        -3.4749999046325684,
        -2.4000000953674316,
        -0.03999999910593033
      ],
      "bufferView": 0,
      "byteOffset": 0
    },
    {
      "name": "Gate sealed plating NORMAL",
      "type": "VEC3",
      "componentType": 5126,
      "count": 24,
      "bufferView": 0,
      "byteOffset": 12
    },
    {
      "name": "Gate sealed plating TEXCOORD_0",
      "type": "VEC2",
      "componentType": 5126,
      "count": 24,
      "bufferView": 0,
      "byteOffset": 24
    },
    {
      "name": "Gate sealed plating indices",
      "type": "SCALAR",
      "componentType": 5123,
      "count": 36,
      "bufferView": 1,
      "byteOffset": 0
    },
    {
      "name": "Gate armor rib indices",
      "type": "SCALAR",
      "componentType": 5123,
      "count": 36,
      "bufferView": 1,
      "byteOffset": 72
    },
    {
      "name": "Gate armor rib indices",
      "type": "SCALAR",
      "componentType": 5123,
      "count": 36,
      "bufferView": 1,
      "byteOffset": 144
    },
    {
      "name": "Gate armor rib indices",
      "type": "SCALAR",
      "componentType": 5123,
      "count": 36,
      "bufferView": 1,
      "byteOffset": 216
    },
    {
      "name": "Gate armor rib indices",
      "type": "SCALAR",
      "componentType": 5123,
      "count": 36,
      "bufferView": 1,
      "byteOffset": 288
    },
    {
      "name": "Gate armor rib indices",
      "type": "SCALAR",
      "componentType": 5123,
      "count": 36,
      "bufferView": 1,
      "byteOffset": 360
    },
    {
      "name": "Gate armor rib indices",
      "type": "SCALAR",
      "componentType": 5123,
      "count": 36,
      "bufferView": 1,
      "byteOffset": 432
    },
    {
      "name": "Gate armor rib indices",
      "type": "SCALAR",
      "componentType": 5123,
      "count": 36,
      "bufferView": 1,
      "byteOffset": 504
    },
    {
      "name": "Gate armor rib indices",
      "type": "SCALAR",
      "componentType": 5123,
      "count": 36,
      "bufferView": 1,
      "byteOffset": 576
    },
    {
      "name": "Gate armor rib indices",
      "type": "SCALAR",
      "componentType": 5123,
      "count": 36,
      "bufferView": 1,
      "byteOffset": 648
    },
    {
      "name": "Gate armor rib indices",
      "type": "SCALAR",
      "componentType": 5123,
      "count": 36,
      "bufferView": 1,
      "byteOffset": 720
    },
    {
      "name": "Gate armor rib indices",
      "type": "SCALAR",
      "componentType": 5123,
      "count": 36,
      "bufferView": 1,
      "byteOffset": 792
    },
    {
      "name": "Gate armor rib indices",
      "type": "SCALAR",
      "componentType": 5123,
      "count": 36,
      "bufferView": 1,
      "byteOffset": 864
    },
    {
      "name": "Gate armor rib indices",
      "type": "SCALAR",
      "componentType": 5123,
      "count": 36,
      "bufferView": 1,
      "byteOffset": 936
    },
    {
      "name": "Gate armor rib indices",
      "type": "SCALAR",
      "componentType": 5123,
      "count": 36,
      "bufferView": 1,
      "byteOffset": 1008
    },
    {
      "name": "Gate warning strip indices",
      "type": "SCALAR",
      "componentType": 5123,
      "count": 36,
      "bufferView": 1,
      "byteOffset": 1080
    },
    {
      "name": "Gate armor rib POSITION",
      "type": "VEC3",
      "componentType": 5126,
      "count": 24,
      "max": [
        0.05000000074505806,
        2.4000000953674316,
        0.03999999910593033
      ],
      "min": [
        -0.05000000074505806,
        -2.4000000953674316,
        -0.03999999910593033
      ],
      "bufferView": 2,
      "byteOffset": 0
    },
    {
      "name": "Gate armor rib NORMAL",
      "type": "VEC3",
      "componentType": 5126,
      "count": 24,
      "bufferView": 2,
      "byteOffset": 12
    },
    {
      "name": "Gate armor rib TEXCOORD_0",
      "type": "VEC2",
      "componentType": 5126,
      "count": 24,
      "bufferView": 2,
      "byteOffset": 24
    },
    {
      "name": "Gate armor rib POSITION",
      "type": "VEC3",
      "componentType": 5126,
      "count": 24,
      "max": [
        0.05000000074505806,
        2.4000000953674316,
        0.03999999910593033
      ],
      "min": [
        -0.05000000074505806,
        -2.4000000953674316,
        -0.03999999910593033
      ],
      "bufferView": 3,
      "byteOffset": 0
    },
    {
      "name": "Gate armor rib NORMAL",
      "type": "VEC3",
      "componentType": 5126,
      "count": 24,
      "bufferView": 3,
      "byteOffset": 12
    },
    {
      "name": "Gate armor rib TEXCOORD_0",
      "type": "VEC2",
      "componentType": 5126,
      "count": 24,
      "bufferView": 3,
      "byteOffset": 24
    },
    {
      "name": "Gate armor rib POSITION",
      "type": "VEC3",
      "componentType": 5126,
      "count": 24,
      "max": [
        0.05000000074505806,
        2.4000000953674316,
        0.03999999910593033
      ],
      "min": [
        -0.05000000074505806,
        -2.4000000953674316,
        -0.03999999910593033
      ],
      "bufferView": 4,
      "byteOffset": 0
    },
    {
      "name": "Gate armor rib NORMAL",
      "type": "VEC3",
      "componentType": 5126,
      "count": 24,
      "bufferView": 4,
      "byteOffset": 12
    },
    {
      "name": "Gate armor rib TEXCOORD_0",
      "type": "VEC2",
      "componentType": 5126,
      "count": 24,
      "bufferView": 4,
      "byteOffset": 24
    },
    {
      "name": "Gate armor rib POSITION",
      "type": "VEC3",
      "componentType": 5126,
      "count": 24,
      "max": [
        0.05000000074505806,
        2.4000000953674316,
        0.03999999910593033
      ],
      "min": [
        -0.05000000074505806,
        -2.4000000953674316,
        -0.03999999910593033
      ],
      "bufferView": 5,
      "byteOffset": 0
    },
    {
      "name": "Gate armor rib NORMAL",
      "type": "VEC3",
      "componentType": 5126,
      "count": 24,
      "bufferView": 5,
      "byteOffset": 12
    },
    {
      "name": "Gate armor rib TEXCOORD_0",
      "type": "VEC2",
      "componentType": 5126,
      "count": 24,
      "bufferView": 5,
      "byteOffset": 24
    },
    {
      "name": "Gate armor rib POSITION",
      "type": "VEC3",
      "componentType": 5126,
      "count": 24,
      "max": [
        0.05000000074505806,
        2.4000000953674316,
        0.03999999910593033
      ],
      "min": [
        -0.05000000074505806,
        -2.4000000953674316,
        -0.03999999910593033
      ],
      "bufferView": 6,
      "byteOffset": 0
    },
    {
      "name": "Gate armor rib NORMAL",
      "type": "VEC3",
      "componentType": 5126,
      "count": 24,
      "bufferView": 6,
      "byteOffset": 12
    },
    {
      "name": "Gate armor rib TEXCOORD_0",
      "type": "VEC2",
      "componentType": 5126,
      "count": 24,
      "bufferView": 6,
      "byteOffset": 24
    },
    {
      "name": "Gate armor rib POSITION",
      "type": "VEC3",
      "componentType": 5126,
      "count": 24,
      "max": [
        0.05000000074505806,
        2.4000000953674316,
        0.03999999910593033
      ],
      "min": [
        -0.05000000074505806,
        -2.4000000953674316,
        -0.03999999910593033
      ],
      "bufferView": 7,
      "byteOffset": 0
    },
    {
      "name": "Gate armor rib NORMAL",
      "type": "VEC3",
      "componentType": 5126,
      "count": 24,
      "bufferView": 7,
      "byteOffset": 12
    },
    {
      "name": "Gate armor rib TEXCOORD_0",
      "type": "VEC2",
      "componentType": 5126,
      "count": 24,
      "bufferView": 7,
      "byteOffset": 24
    },
    {
      "name": "Gate armor rib POSITION",
      "type": "VEC3",
      "componentType": 5126,
      "count": 24,
      "max": [
        0.05000000074505806,
        2.4000000953674316,
        0.03999999910593033
      ],
      "min": [
        -0.05000000074505806,
        -2.4000000953674316,
        -0.03999999910593033
      ],
      "bufferView": 8,
      "byteOffset": 0
    },
    {
      "name": "Gate armor rib NORMAL",
      "type": "VEC3",
      "componentType": 5126,
      "count": 24,
      "bufferView": 8,
      "byteOffset": 12
    },
    {
      "name": "Gate armor rib TEXCOORD_0",
      "type": "VEC2",
      "componentType": 5126,
      "count": 24,
      "bufferView": 8,
      "byteOffset": 24
    },
    {
      "name": "Gate armor rib POSITION",
      "type": "VEC3",
      "componentType": 5126,
      "count": 24,
      "max": [
        0.05000000074505806,
        2.4000000953674316,
        0.03999999910593033
      ],
      "min": [
        -0.05000000074505806,
        -2.4000000953674316,
        -0.03999999910593033
      ],
      "bufferView": 9,
      "byteOffset": 0
    },
    {
      "name": "Gate armor rib NORMAL",
      "type": "VEC3",
      "componentType": 5126,
      "count": 24,
      "bufferView": 9,
      "byteOffset": 12
    },
    {
      "name": "Gate armor rib TEXCOORD_0",
      "type": "VEC2",
      "componentType": 5126,
      "count": 24,
      "bufferView": 9,
      "byteOffset": 24
    },
    {
      "name": "Gate armor rib POSITION",
      "type": "VEC3",
      "componentType": 5126,
      "count": 24,
      "max": [
        0.05000000074505806,
        2.4000000953674316,
        0.03999999910593033
      ],
      "min": [
        -0.05000000074505806,
        -2.4000000953674316,
        -0.03999999910593033
      ],
      "bufferView": 10,
      "byteOffset": 0
    },
    {
      "name": "Gate armor rib NORMAL",
      "type": "VEC3",
      "componentType": 5126,
      "count": 24,
      "bufferView": 10,
      "byteOffset": 12
    },
    {
      "name": "Gate armor rib TEXCOORD_0",
      "type": "VEC2",
      "componentType": 5126,
      "count": 24,
      "bufferView": 10,
      "byteOffset": 24
    },
    {
      "name": "Gate armor rib POSITION",
      "type": "VEC3",
      "componentType": 5126,
      "count": 24,
      "max": [
        0.05000000074505806,
        2.4000000953674316,
        0.03999999910593033
      ],
      "min": [
        -0.05000000074505806,
        -2.4000000953674316,
        -0.03999999910593033
      ],
      "bufferView": 11,
      "byteOffset": 0
    },
    {
      "name": "Gate armor rib NORMAL",
      "type": "VEC3",
      "componentType": 5126,
      "count": 24,
      "bufferView": 11,
      "byteOffset": 12
    },
    {
      "name": "Gate armor rib TEXCOORD_0",
      "type": "VEC2",
      "componentType": 5126,
      "count": 24,
      "bufferView": 11,
      "byteOffset": 24
    },
    {
      "name": "Gate armor rib POSITION",
      "type": "VEC3",
      "componentType": 5126,
      "count": 24,
      "max": [
        0.05000000074505806,
        2.4000000953674316,
        0.03999999910593033
      ],
      "min": [
        -0.05000000074505806,
        -2.4000000953674316,
        -0.03999999910593033
      ],
      "bufferView": 12,
      "byteOffset": 0
    },
    {
      "name": "Gate armor rib NORMAL",
      "type": "VEC3",
      "componentType": 5126,
      "count": 24,
      "bufferView": 12,
      "byteOffset": 12
    },
    {
      "name": "Gate armor rib TEXCOORD_0",
      "type": "VEC2",
      "componentType": 5126,
      "count": 24,
      "bufferView": 12,
      "byteOffset": 24
    },
    {
      "name": "Gate armor rib POSITION",
      "type": "VEC3",
      "componentType": 5126,
      "count": 24,
      "max": [
        0.05000000074505806,
        2.4000000953674316,
        0.03999999910593033
      ],
      "min": [
        -0.05000000074505806,
        -2.4000000953674316,
        -0.03999999910593033
      ],
      "bufferView": 13,
      "byteOffset": 0
    },
    {
      "name": "Gate armor rib NORMAL",
      "type": "VEC3",
      "componentType": 5126,
      "count": 24,
      "bufferView": 13,
      "byteOffset": 12
    },
    {
      "name": "Gate armor rib TEXCOORD_0",
      "type": "VEC2",
      "componentType": 5126,
      "count": 24,
      "bufferView": 13,
      "byteOffset": 24
    },
    {
      "name": "Gate armor rib POSITION",
      "type": "VEC3",
      "componentType": 5126,
      "count": 24,
      "max": [
        0.05000000074505806,
        2.4000000953674316,
        0.03999999910593033
      ],
      "min": [
        -0.05000000074505806,
        -2.4000000953674316,
        -0.03999999910593033
      ],
      "bufferView": 14,
      "byteOffset": 0
    },
    {
      "name": "Gate armor rib NORMAL",
      "type": "VEC3",
      "componentType": 5126,
      "count": 24,
      "bufferView": 14,
      "byteOffset": 12
    },
    {
      "name": "Gate armor rib TEXCOORD_0",
      "type": "VEC2",
      "componentType": 5126,
      "count": 24,
      "bufferView": 14,
      "byteOffset": 24
    },
    {
      "name": "Gate armor rib POSITION",
      "type": "VEC3",
      "componentType": 5126,
      "count": 24,
      "max": [
        0.05000000074505806,
        2.4000000953674316,
        0.03999999910593033
      ],
      "min": [
        -0.05000000074505806,
        -2.4000000953674316,
        -0.03999999910593033
      ],
      "bufferView": 15,
      "byteOffset": 0
    },
    {
      "name": "Gate armor rib NORMAL",
      "type": "VEC3",
      "componentType": 5126,
      "count": 24,
      "bufferView": 15,
      "byteOffset": 12
    },
    {
      "name": "Gate armor rib TEXCOORD_0",
      "type": "VEC2",
      "componentType": 5126,
      "count": 24,
      "bufferView": 15,
      "byteOffset": 24
    },
    {
      "name": "Gate warning strip POSITION",
      "type": "VEC3",
      "componentType": 5126,
      "count": 24,
      "max": [
        3.375,
        0.06499999761581421,
        0.019999999552965164
      ],
      "min": [
        -3.375,
        -0.06499999761581421,
        -0.019999999552965164
      ],
      "bufferView": 16,
      "byteOffset": 0
    },
    {
      "name": "Gate warning strip NORMAL",
      "type": "VEC3",
      "componentType": 5126,
      "count": 24,
      "bufferView": 16,
      "byteOffset": 12
    },
    {
      "name": "Gate warning strip TEXCOORD_0",
      "type": "VEC2",
      "componentType": 5126,
      "count": 24,
      "bufferView": 16,
      "byteOffset": 24
    }
  ],
  "bufferViews": [
    {
      "buffer": 0,
      "byteOffset": 0,
      "byteLength": 768,
      "byteStride": 32,
      "target": 34962
    },
    {
      "buffer": 0,
      "byteOffset": 768,
      "byteLength": 1152,
      "target": 34963
    },
    {
      "buffer": 0,
      "byteOffset": 1920,
      "byteLength": 768,
      "byteStride": 32,
      "target": 34962
    },
    {
      "buffer": 0,
      "byteOffset": 2688,
      "byteLength": 768,
      "byteStride": 32,
      "target": 34962
    },
    {
      "buffer": 0,
      "byteOffset": 3456,
      "byteLength": 768,
      "byteStride": 32,
      "target": 34962
    },
    {
      "buffer": 0,
      "byteOffset": 4224,
      "byteLength": 768,
      "byteStride": 32,
      "target": 34962
    },
    {
      "buffer": 0,
      "byteOffset": 4992,
      "byteLength": 768,
      "byteStride": 32,
      "target": 34962
    },
    {
      "buffer": 0,
      "byteOffset": 5760,
      "byteLength": 768,
      "byteStride": 32,
      "target": 34962
    },
    {
      "buffer": 0,
      "byteOffset": 6528,
      "byteLength": 768,
      "byteStride": 32,
      "target": 34962
    },
    {
      "buffer": 0,
      "byteOffset": 7296,
      "byteLength": 768,
      "byteStride": 32,
      "target": 34962
    },
    {
      "buffer": 0,
      "byteOffset": 8064,
      "byteLength": 768,
      "byteStride": 32,
      "target": 34962
    },
    {
      "buffer": 0,
      "byteOffset": 8832,
      "byteLength": 768,
      "byteStride": 32,
      "target": 34962
    },
    {
      "buffer": 0,
      "byteOffset": 9600,
      "byteLength": 768,
      "byteStride": 32,
      "target": 34962
    },
    {
      "buffer": 0,
      "byteOffset": 10368,
      "byteLength": 768,
      "byteStride": 32,
      "target": 34962
    },
    {
      "buffer": 0,
      "byteOffset": 11136,
      "byteLength": 768,
      "byteStride": 32,
      "target": 34962
    },
    {
      "buffer": 0,
      "byteOffset": 11904,
      "byteLength": 768,
      "byteStride": 32,
      "target": 34962
    },
    {
      "buffer": 0,
      "byteOffset": 12672,
      "byteLength": 768,
      "byteStride": 32,
      "target": 34962
    }
  ],
  "samplers": [
    {
      "wrapS": 10497,
      "wrapT": 10497
    }
  ],
  "textures": [
    {
      "source": 0,
      "sampler": 0
    },
    {
      "source": 1,
      "sampler": 0
    },
    {
      "source": 2,
      "sampler": 0
    },
    {
      "source": 3,
      "sampler": 0
    },
    {
      "source": 4,
      "sampler": 0
    },
    {
      "source": 5,
      "sampler": 0
    },
    {
      "source": 6,
      "sampler": 0
    },
    {
      "source": 7,
      "sampler": 0
    },
    {
      "source": 8,
      "sampler": 0
    }
  ],
  "images": [
    {
      "name": "paint_albedo.jpg",
      "mimeType": "image/jpeg",
      "uri": "/kite3d/assets/textures/map/paint_albedo.jpg"
    },
    {
      "name": "paint_normal.jpg",
      "mimeType": "image/jpeg",
      "uri": "/kite3d/assets/textures/map/paint_normal.jpg"
    },
    {
      "name": "paint_arm.jpg",
      "mimeType": "image/jpeg",
      "uri": "/kite3d/assets/textures/map/paint_arm.jpg"
    },
    {
      "name": "rusty_metal_02_diff_1k.jpg",
      "mimeType": "image/jpeg",
      "uri": "/kite3d/assets/textures/map/rusty_metal_02_diff_1k.jpg"
    },
    {
      "name": "rusty_metal_02_nor_gl_1k.jpg",
      "mimeType": "image/jpeg",
      "uri": "/kite3d/assets/textures/map/rusty_metal_02_nor_gl_1k.jpg"
    },
    {
      "name": "rusty_metal_02_arm_1k.jpg",
      "mimeType": "image/jpeg",
      "uri": "/kite3d/assets/textures/map/rusty_metal_02_arm_1k.jpg"
    },
    {
      "name": "glass_albedo.jpg",
      "mimeType": "image/jpeg",
      "uri": "/kite3d/assets/textures/map/glass_albedo.jpg"
    },
    {
      "name": "glass_normal.jpg",
      "mimeType": "image/jpeg",
      "uri": "/kite3d/assets/textures/map/glass_normal.jpg"
    },
    {
      "name": "glass_arm.jpg",
      "mimeType": "image/jpeg",
      "uri": "/kite3d/assets/textures/map/glass_arm.jpg"
    }
  ],
  "buffers": [
    {
      "name": "Map piece geometry",
      "uri": "gate-7x4p8.bin",
      "byteLength": 13440
    }
  ],
  "materials": [
    {
      "name": "Map steel",
      "pbrMetallicRoughness": {
        "baseColorFactor": [
          0.44,
          0.49,
          0.51,
          1
        ],
        "roughnessFactor": 0.68,
        "metallicFactor": 0.82,
        "baseColorTexture": {
          "index": 0
        },
        "metallicRoughnessTexture": {
          "index": 2
        }
      },
      "normalTexture": {
        "index": 1
      },
      "occlusionTexture": {
        "index": 2
      }
    },
    {
      "name": "Map rust",
      "pbrMetallicRoughness": {
        "baseColorFactor": [
          0.48,
          0.3,
          0.18,
          1
        ],
        "roughnessFactor": 0.92,
        "metallicFactor": 0.42,
        "baseColorTexture": {
          "index": 3
        },
        "metallicRoughnessTexture": {
          "index": 5
        }
      },
      "normalTexture": {
        "index": 4
      },
      "occlusionTexture": {
        "index": 5
      }
    },
    {
      "name": "Map redGlow",
      "pbrMetallicRoughness": {
        "baseColorFactor": [
          0.45,
          0.02,
          0.01,
          1
        ],
        "roughnessFactor": 0.65,
        "metallicFactor": 0,
        "baseColorTexture": {
          "index": 6
        },
        "metallicRoughnessTexture": {
          "index": 8
        }
      },
      "emissiveFactor": [
        1,
        0.015,
        0.005
      ],
      "normalTexture": {
        "index": 7
      },
      "occlusionTexture": {
        "index": 8
      }
    }
  ],
  "meshes": [
    {
      "name": "Gate sealed plating",
      "primitives": [
        {
          "attributes": {
            "POSITION": 0,
            "NORMAL": 1,
            "TEXCOORD_0": 2
          },
          "mode": 4,
          "material": 0,
          "indices": 3
        }
      ]
    },
    {
      "name": "Gate armor rib",
      "primitives": [
        {
          "attributes": {
            "POSITION": 19,
            "NORMAL": 20,
            "TEXCOORD_0": 21
          },
          "mode": 4,
          "material": 1,
          "indices": 4
        }
      ]
    },
    {
      "name": "Gate armor rib",
      "primitives": [
        {
          "attributes": {
            "POSITION": 22,
            "NORMAL": 23,
            "TEXCOORD_0": 24
          },
          "mode": 4,
          "material": 1,
          "indices": 5
        }
      ]
    },
    {
      "name": "Gate armor rib",
      "primitives": [
        {
          "attributes": {
            "POSITION": 25,
            "NORMAL": 26,
            "TEXCOORD_0": 27
          },
          "mode": 4,
          "material": 1,
          "indices": 6
        }
      ]
    },
    {
      "name": "Gate armor rib",
      "primitives": [
        {
          "attributes": {
            "POSITION": 28,
            "NORMAL": 29,
            "TEXCOORD_0": 30
          },
          "mode": 4,
          "material": 1,
          "indices": 7
        }
      ]
    },
    {
      "name": "Gate armor rib",
      "primitives": [
        {
          "attributes": {
            "POSITION": 31,
            "NORMAL": 32,
            "TEXCOORD_0": 33
          },
          "mode": 4,
          "material": 1,
          "indices": 8
        }
      ]
    },
    {
      "name": "Gate armor rib",
      "primitives": [
        {
          "attributes": {
            "POSITION": 34,
            "NORMAL": 35,
            "TEXCOORD_0": 36
          },
          "mode": 4,
          "material": 1,
          "indices": 9
        }
      ]
    },
    {
      "name": "Gate armor rib",
      "primitives": [
        {
          "attributes": {
            "POSITION": 37,
            "NORMAL": 38,
            "TEXCOORD_0": 39
          },
          "mode": 4,
          "material": 1,
          "indices": 10
        }
      ]
    },
    {
      "name": "Gate armor rib",
      "primitives": [
        {
          "attributes": {
            "POSITION": 40,
            "NORMAL": 41,
            "TEXCOORD_0": 42
          },
          "mode": 4,
          "material": 1,
          "indices": 11
        }
      ]
    },
    {
      "name": "Gate armor rib",
      "primitives": [
        {
          "attributes": {
            "POSITION": 43,
            "NORMAL": 44,
            "TEXCOORD_0": 45
          },
          "mode": 4,
          "material": 1,
          "indices": 12
        }
      ]
    },
    {
      "name": "Gate armor rib",
      "primitives": [
        {
          "attributes": {
            "POSITION": 46,
            "NORMAL": 47,
            "TEXCOORD_0": 48
          },
          "mode": 4,
          "material": 1,
          "indices": 13
        }
      ]
    },
    {
      "name": "Gate armor rib",
      "primitives": [
        {
          "attributes": {
            "POSITION": 49,
            "NORMAL": 50,
            "TEXCOORD_0": 51
          },
          "mode": 4,
          "material": 1,
          "indices": 14
        }
      ]
    },
    {
      "name": "Gate armor rib",
      "primitives": [
        {
          "attributes": {
            "POSITION": 52,
            "NORMAL": 53,
            "TEXCOORD_0": 54
          },
          "mode": 4,
          "material": 1,
          "indices": 15
        }
      ]
    },
    {
      "name": "Gate armor rib",
      "primitives": [
        {
          "attributes": {
            "POSITION": 55,
            "NORMAL": 56,
            "TEXCOORD_0": 57
          },
          "mode": 4,
          "material": 1,
          "indices": 16
        }
      ]
    },
    {
      "name": "Gate armor rib",
      "primitives": [
        {
          "attributes": {
            "POSITION": 58,
            "NORMAL": 59,
            "TEXCOORD_0": 60
          },
          "mode": 4,
          "material": 1,
          "indices": 17
        }
      ]
    },
    {
      "name": "Gate warning strip",
      "primitives": [
        {
          "attributes": {
            "POSITION": 61,
            "NORMAL": 62,
            "TEXCOORD_0": 63
          },
          "mode": 4,
          "material": 2,
          "indices": 18
        }
      ]
    }
  ],
  "nodes": [
    {
      "name": "Gate asset",
      "extras": {
        "mapPieceAsset": true
      },
      "children": [
        1,
        17
      ]
    },
    {
      "name": "Gate shutter",
      "translation": [
        0,
        2.4,
        -2.04
      ],
      "children": [
        2,
        3,
        4,
        5,
        6,
        7,
        8,
        9,
        10,
        11,
        12,
        13,
        14,
        15,
        16
      ]
    },
    {
      "name": "Gate sealed plating",
      "extras": {
        "material": "steel"
      },
      "mesh": 0
    },
    {
      "name": "Gate armor rib",
      "extras": {
        "material": "rust"
      },
      "translation": [
        -3.2,
        0,
        0.06
      ],
      "mesh": 1
    },
    {
      "name": "Gate armor rib",
      "extras": {
        "material": "rust"
      },
      "translation": [
        -2.72,
        0,
        0.06
      ],
      "mesh": 2
    },
    {
      "name": "Gate armor rib",
      "extras": {
        "material": "rust"
      },
      "translation": [
        -2.24,
        0,
        0.06
      ],
      "mesh": 3
    },
    {
      "name": "Gate armor rib",
      "extras": {
        "material": "rust"
      },
      "translation": [
        -1.7600000000000002,
        0,
        0.06
      ],
      "mesh": 4
    },
    {
      "name": "Gate armor rib",
      "extras": {
        "material": "rust"
      },
      "translation": [
        -1.2800000000000002,
        0,
        0.06
      ],
      "mesh": 5
    },
    {
      "name": "Gate armor rib",
      "extras": {
        "material": "rust"
      },
      "translation": [
        -0.8000000000000003,
        0,
        0.06
      ],
      "mesh": 6
    },
    {
      "name": "Gate armor rib",
      "extras": {
        "material": "rust"
      },
      "translation": [
        -0.3200000000000003,
        0,
        0.06
      ],
      "mesh": 7
    },
    {
      "name": "Gate armor rib",
      "extras": {
        "material": "rust"
      },
      "translation": [
        0.1599999999999997,
        0,
        0.06
      ],
      "mesh": 8
    },
    {
      "name": "Gate armor rib",
      "extras": {
        "material": "rust"
      },
      "translation": [
        0.6399999999999997,
        0,
        0.06
      ],
      "mesh": 9
    },
    {
      "name": "Gate armor rib",
      "extras": {
        "material": "rust"
      },
      "translation": [
        1.1199999999999997,
        0,
        0.06
      ],
      "mesh": 10
    },
    {
      "name": "Gate armor rib",
      "extras": {
        "material": "rust"
      },
      "translation": [
        1.5999999999999996,
        0,
        0.06
      ],
      "mesh": 11
    },
    {
      "name": "Gate armor rib",
      "extras": {
        "material": "rust"
      },
      "translation": [
        2.0799999999999996,
        0,
        0.06
      ],
      "mesh": 12
    },
    {
      "name": "Gate armor rib",
      "extras": {
        "material": "rust"
      },
      "translation": [
        2.5599999999999996,
        0,
        0.06
      ],
      "mesh": 13
    },
    {
      "name": "Gate armor rib",
      "extras": {
        "material": "rust"
      },
      "translation": [
        3.0399999999999996,
        0,
        0.06
      ],
      "mesh": 14
    },
    {
      "name": "Gate warning strip",
      "extras": {
        "material": "redGlow",
        "mapDynamic": "gate-signal"
      },
      "translation": [
        0,
        4.55,
        -1.91
      ],
      "mesh": 15
    }
  ],
  "scenes": [
    {
      "name": "Gate 7x4p8",
      "nodes": [
        0
      ]
    }
  ]
}
