{
  "asset": {
    "generator": "Terminator tools/build-map-assets.mjs with glTF-Transform 4.5.0 and three.js",
    "version": "2.0"
  },
  "accessors": [
    {
      "name": "Cable spool concrete POSITION",
      "type": "VEC3",
      "componentType": 5126,
      "count": 576,
      "max": [
        0.6000000238418579,
        0.6000000238418579,
        0.6000000238418579
      ],
      "min": [
        -0.6000000238418579,
        -0.6000000238418579,
        -0.6000000238418579
      ],
      "bufferView": 0,
      "byteOffset": 0
    },
    {
      "name": "Cable spool concrete NORMAL",
      "type": "VEC3",
      "componentType": 5126,
      "count": 576,
      "bufferView": 0,
      "byteOffset": 12
    },
    {
      "name": "Cable spool concrete TEXCOORD_0",
      "type": "VEC2",
      "componentType": 5126,
      "count": 576,
      "bufferView": 0,
      "byteOffset": 24
    },
    {
      "name": "Cable spool rubber POSITION",
      "type": "VEC3",
      "componentType": 5126,
      "count": 4800,
      "max": [
        0.41499999165534973,
        0.4009999930858612,
        0.41499999165534973
      ],
      "min": [
        -0.41499999165534973,
        -0.4180000126361847,
        -0.41499999165534973
      ],
      "bufferView": 1,
      "byteOffset": 0
    },
    {
      "name": "Cable spool rubber NORMAL",
      "type": "VEC3",
      "componentType": 5126,
      "count": 4800,
      "bufferView": 1,
      "byteOffset": 12
    },
    {
      "name": "Cable spool rubber TEXCOORD_0",
      "type": "VEC2",
      "componentType": 5126,
      "count": 4800,
      "bufferView": 1,
      "byteOffset": 24
    },
    {
      "bufferView": 4,
      "componentType": 5126,
      "count": 1758,
      "max": [
        0.44301098585128784,
        0.44301098585128784,
        0.8900020122528076
      ],
      "min": [
        -0.44301098585128784,
        -0.44301098585128784,
        0.003980000037699938
      ],
      "type": "VEC3"
    },
    {
      "bufferView": 4,
      "byteOffset": 21096,
      "componentType": 5126,
      "count": 1758,
      "max": [
        1,
        1,
        1
      ],
      "min": [
        -1,
        -1,
        -1
      ],
      "type": "VEC3"
    },
    {
      "bufferView": 5,
      "componentType": 5126,
      "count": 1758,
      "max": [
        1,
        1,
        1,
        1
      ],
      "min": [
        -1,
        -1,
        -1,
        1
      ],
      "type": "VEC4"
    },
    {
      "bufferView": 3,
      "componentType": 5126,
      "count": 1758,
      "max": [
        0.9941290020942688,
        0.7167860269546509
      ],
      "min": [
        0.00587099976837635,
        0.00587099976837635
      ],
      "type": "VEC2"
    },
    {
      "bufferView": 2,
      "componentType": 5125,
      "count": 4992,
      "type": "SCALAR"
    }
  ],
  "bufferViews": [
    {
      "buffer": 0,
      "byteOffset": 0,
      "byteLength": 18432,
      "byteStride": 32,
      "target": 34962
    },
    {
      "buffer": 0,
      "byteOffset": 18432,
      "byteLength": 153600,
      "byteStride": 32,
      "target": 34962
    },
    {
      "buffer": 1,
      "byteLength": 19968,
      "name": "floatBufferViews",
      "target": 34963
    },
    {
      "buffer": 1,
      "byteLength": 14064,
      "byteOffset": 19968,
      "byteStride": 8,
      "name": "floatBufferViews",
      "target": 34962
    },
    {
      "buffer": 1,
      "byteLength": 42192,
      "byteOffset": 34032,
      "byteStride": 12,
      "name": "floatBufferViews",
      "target": 34962
    },
    {
      "buffer": 1,
      "byteLength": 28128,
      "byteOffset": 76224,
      "byteStride": 16,
      "name": "floatBufferViews",
      "target": 34962
    }
  ],
  "samplers": [
    {
      "wrapS": 10497,
      "wrapT": 10497
    },
    {
      "magFilter": 9729,
      "minFilter": 9987,
      "wrapS": 10497,
      "wrapT": 10497
    }
  ],
  "textures": [
    {
      "source": 0,
      "sampler": 0
    },
    {
      "source": 1,
      "sampler": 0
    },
    {
      "source": 2,
      "sampler": 0
    },
    {
      "source": 3,
      "sampler": 0
    },
    {
      "source": 4,
      "sampler": 0
    },
    {
      "source": 5,
      "sampler": 0
    },
    {
      "sampler": 1,
      "source": 6
    },
    {
      "sampler": 1,
      "source": 7
    },
    {
      "sampler": 1,
      "source": 8
    },
    {
      "sampler": 1,
      "source": 9
    }
  ],
  "images": [
    {
      "name": "concrete_wall_007_diff_1k.jpg",
      "mimeType": "image/jpeg",
      "uri": "/kite3d/assets/textures/map/concrete_wall_007_diff_1k.jpg"
    },
    {
      "name": "concrete_wall_007_nor_gl_1k.jpg",
      "mimeType": "image/jpeg",
      "uri": "/kite3d/assets/textures/map/concrete_wall_007_nor_gl_1k.jpg"
    },
    {
      "name": "concrete_wall_007_arm_1k.jpg",
      "mimeType": "image/jpeg",
      "uri": "/kite3d/assets/textures/map/concrete_wall_007_arm_1k.jpg"
    },
    {
      "name": "asphalt_02_diff_1k.jpg",
      "mimeType": "image/jpeg",
      "uri": "/kite3d/assets/textures/map/asphalt_02_diff_1k.jpg"
    },
    {
      "name": "asphalt_02_nor_gl_1k.jpg",
      "mimeType": "image/jpeg",
      "uri": "/kite3d/assets/textures/map/asphalt_02_nor_gl_1k.jpg"
    },
    {
      "name": "asphalt_02_arm_1k.jpg",
      "mimeType": "image/jpeg",
      "uri": "/kite3d/assets/textures/map/asphalt_02_arm_1k.jpg"
    },
    {
      "uri": "/kite3d/assets/models/selected/22ddb8e02f944fb7b5662f14fdc50e5e/CableSpool_baseColor.png"
    },
    {
      "uri": "/kite3d/assets/models/selected/22ddb8e02f944fb7b5662f14fdc50e5e/CableSpool_metallicRoughness.png"
    },
    {
      "uri": "/kite3d/assets/models/selected/22ddb8e02f944fb7b5662f14fdc50e5e/CableSpool_emissive.jpeg"
    },
    {
      "uri": "/kite3d/assets/models/selected/22ddb8e02f944fb7b5662f14fdc50e5e/CableSpool_normal.png"
    }
  ],
  "buffers": [
    {
      "name": "Map piece geometry",
      "uri": "spool-1p2x1p2x1p2-awmfnx.bin",
      "byteLength": 172032
    },
    {
      "byteLength": 104352,
      "uri": "/kite3d/assets/models/selected/22ddb8e02f944fb7b5662f14fdc50e5e/scene.bin"
    }
  ],
  "materials": [
    {
      "name": "Map concrete",
      "pbrMetallicRoughness": {
        "baseColorFactor": [
          0.56,
          0.59,
          0.59,
          1
        ],
        "roughnessFactor": 0.9,
        "metallicFactor": 0,
        "baseColorTexture": {
          "index": 0
        },
        "metallicRoughnessTexture": {
          "index": 2
        }
      },
      "normalTexture": {
        "index": 1
      },
      "occlusionTexture": {
        "index": 2
      }
    },
    {
      "name": "Map rubber",
      "pbrMetallicRoughness": {
        "baseColorFactor": [
          0.025,
          0.035,
          0.045,
          1
        ],
        "metallicFactor": 0,
        "baseColorTexture": {
          "index": 3
        },
        "metallicRoughnessTexture": {
          "index": 5
        }
      },
      "normalTexture": {
        "index": 4
      },
      "occlusionTexture": {
        "index": 5
      }
    },
    {
      "alphaMode": "BLEND",
      "doubleSided": true,
      "emissiveFactor": [
        1,
        1,
        1
      ],
      "emissiveTexture": {
        "index": 8
      },
      "name": "Selected spool 1: CableSpool",
      "normalTexture": {
        "index": 9
      },
      "occlusionTexture": {
        "index": 7
      },
      "pbrMetallicRoughness": {
        "baseColorTexture": {
          "index": 6
        },
        "metallicRoughnessTexture": {
          "index": 7
        }
      }
    }
  ],
  "meshes": [
    {
      "name": "Cable spool concrete",
      "primitives": [
        {
          "attributes": {
            "POSITION": 0,
            "NORMAL": 1,
            "TEXCOORD_0": 2
          },
          "mode": 4,
          "material": 0
        }
      ]
    },
    {
      "name": "Cable spool rubber",
      "primitives": [
        {
          "attributes": {
            "POSITION": 3,
            "NORMAL": 4,
            "TEXCOORD_0": 5
          },
          "mode": 4,
          "material": 1
        }
      ]
    },
    {
      "name": "defaultMaterial",
      "primitives": [
        {
          "attributes": {
            "NORMAL": 7,
            "POSITION": 6,
            "TANGENT": 8,
            "TEXCOORD_0": 9
          },
          "indices": 10,
          "material": 2,
          "mode": 4
        }
      ]
    }
  ],
  "nodes": [
    {
      "name": "Cable spool asset",
      "extras": {
        "mapPieceAsset": true,
        "selectedSource": {
          "id": "22ddb8e02f944fb7b5662f14fdc50e5e",
          "family": "spool",
          "source": "https://sketchfab.com/3d-models/cable-spool-22ddb8e02f944fb7b5662f14fdc50e5e",
          "tileCount": 1,
          "fitBounds": [
            1.2,
            1.2,
            1.2
          ]
        }
      },
      "children": [
        1,
        2,
        7
      ]
    },
    {
      "name": "Cable spool concrete",
      "extras": {
        "material": "concrete"
      }
    },
    {
      "name": "Cable spool rubber",
      "extras": {
        "material": "rubber"
      }
    },
    {
      "children": [
        4
      ],
      "matrix": [
        1,
        0,
        0,
        0,
        0,
        2.220446049250313e-16,
        -1,
        0,
        0,
        1,
        2.220446049250313e-16,
        0,
        0,
        0,
        0,
        1
      ],
      "name": "Sketchfab_model"
    },
    {
      "children": [
        5
      ],
      "matrix": [
        1,
        0,
        0,
        0,
        0,
        -4.371139006309477e-8,
        0.999999999999999,
        0,
        0,
        -0.999999999999999,
        -4.371139006309477e-8,
        0,
        0,
        0,
        0,
        1
      ],
      "name": "Collada visual scene group"
    },
    {
      "children": [
        6
      ],
      "matrix": [
        100,
        0,
        0,
        0,
        0,
        -0.000016,
        -100,
        0,
        0,
        100,
        -0.000016,
        0,
        0,
        0,
        0,
        1
      ],
      "name": "CableSpool"
    },
    {
      "mesh": 2,
      "name": "defaultMaterial"
    },
    {
      "name": "Selected spool 1-1",
      "matrix": [
        0.013543682192147962,
        0,
        0,
        0,
        0,
        0.013543680013688412,
        0,
        0,
        0,
        0,
        0.013543680632882324,
        0,
        0,
        -0.6053903156227985,
        7.039999919647946e-8,
        1
      ],
      "children": [
        3
      ]
    }
  ],
  "scenes": [
    {
      "name": "Spool 1p2x1p2x1p2 Awmfnx",
      "nodes": [
        0
      ]
    }
  ]
}
