{
  "asset": {
    "version": "2.0",
    "generator": "Terminator build-unit-assets.mjs using Three.js and glTF Transform"
  },
  "scenes": [
    {
      "name": "AuxScene",
      "nodes": [
        34
      ]
    }
  ],
  "scene": 0,
  "nodes": [
    {
      "name": "Eye Emitters"
    },
    {
      "name": "Head",
      "extras": {
        "unitJoint": true
      },
      "children": [
        0
      ]
    },
    {
      "name": "Chest",
      "extras": {
        "unitJoint": true
      },
      "children": [
        1
      ]
    },
    {
      "name": "Spine",
      "extras": {
        "unitJoint": true
      },
      "children": [
        2
      ]
    },
    {
      "name": "Pelvis",
      "extras": {
        "unitJoint": true
      },
      "children": [
        3
      ]
    },
    {
      "matrix": [
        1,
        0,
        0,
        0,
        0,
        1,
        0,
        0,
        0,
        0,
        1,
        0,
        0,
        1.017,
        0,
        1
      ],
      "name": "Hull",
      "extras": {
        "unitJoint": true
      }
    },
    {
      "matrix": [
        1,
        0,
        0,
        0,
        0,
        1,
        0,
        0,
        0,
        0,
        1,
        0,
        -1.639,
        0.542,
        0,
        1
      ],
      "name": "Tread Left",
      "extras": {
        "unitJoint": true
      }
    },
    {
      "matrix": [
        1,
        0,
        0,
        0,
        0,
        1,
        0,
        0,
        0,
        0,
        1,
        0,
        1.639,
        0.542,
        0,
        1
      ],
      "name": "Tread Right",
      "extras": {
        "unitJoint": true
      }
    },
    {
      "matrix": [
        1,
        0,
        0,
        0,
        0,
        1,
        0,
        0,
        0,
        0,
        1,
        0,
        -0.091,
        0,
        0,
        1
      ],
      "name": "Cannon Left",
      "extras": {
        "unitJoint": true
      }
    },
    {
      "matrix": [
        1,
        0,
        0,
        0,
        0,
        1,
        0,
        0,
        0,
        0,
        1,
        0,
        0.091,
        0,
        0,
        1
      ],
      "name": "Cannon Right",
      "extras": {
        "unitJoint": true
      }
    },
    {
      "matrix": [
        1,
        0,
        0,
        0,
        0,
        1,
        0,
        0,
        0,
        0,
        1,
        0,
        0,
        0,
        2.58,
        1
      ],
      "name": "Muzzle",
      "extras": {
        "unitJoint": true
      }
    },
    {
      "matrix": [
        1,
        0,
        0,
        0,
        0,
        1,
        0,
        0,
        0,
        0,
        1,
        0,
        0,
        0.135,
        0,
        1
      ],
      "name": "Cannon",
      "extras": {
        "unitJoint": true
      },
      "children": [
        8,
        9,
        10
      ]
    },
    {
      "matrix": [
        1,
        0,
        0,
        0,
        0,
        1,
        0,
        0,
        0,
        0,
        1,
        0,
        0,
        1.944,
        0,
        1
      ],
      "name": "Turret",
      "extras": {
        "unitJoint": true
      },
      "children": [
        11
      ]
    },
    {
      "matrix": [
        1,
        0,
        0,
        0,
        0,
        1,
        0,
        0,
        0,
        0,
        1,
        0,
        0,
        1.187,
        -2.011,
        1
      ],
      "name": "Core",
      "extras": {
        "unitJoint": true
      }
    },
    {
      "name": "Combined articulated steel",
      "mesh": 0,
      "skin": 0
    },
    {
      "name": "Roster running lights",
      "mesh": 1,
      "skin": 1
    },
    {
      "name": "HK-Tank High",
      "extras": {
        "unitTemplateType": "hktank",
        "rosterBody": "tank",
        "unitAnatomy": {
          "triangles": 16676,
          "parts": 113,
          "joints": [
            "Pelvis",
            "Spine",
            "Chest",
            "Head",
            "Hull",
            "Tread Left",
            "Tread Right",
            "Turret",
            "Cannon",
            "Cannon Left",
            "Cannon Right",
            "Muzzle",
            "Core"
          ]
        },
        "roster": true,
        "unitAssetDetail": "high"
      },
      "children": [
        4,
        5,
        6,
        7,
        12,
        13,
        14,
        15
      ]
    },
    {
      "name": "Eye Emitters"
    },
    {
      "name": "Head",
      "extras": {
        "unitJoint": true
      },
      "children": [
        17
      ]
    },
    {
      "name": "Chest",
      "extras": {
        "unitJoint": true
      },
      "children": [
        18
      ]
    },
    {
      "name": "Spine",
      "extras": {
        "unitJoint": true
      },
      "children": [
        19
      ]
    },
    {
      "name": "Pelvis",
      "extras": {
        "unitJoint": true
      },
      "children": [
        20
      ]
    },
    {
      "matrix": [
        1,
        0,
        0,
        0,
        0,
        1,
        0,
        0,
        0,
        0,
        1,
        0,
        0,
        1.017,
        0,
        1
      ],
      "name": "Hull",
      "extras": {
        "unitJoint": true
      }
    },
    {
      "matrix": [
        1,
        0,
        0,
        0,
        0,
        1,
        0,
        0,
        0,
        0,
        1,
        0,
        -1.639,
        0.542,
        0,
        1
      ],
      "name": "Tread Left",
      "extras": {
        "unitJoint": true
      }
    },
    {
      "matrix": [
        1,
        0,
        0,
        0,
        0,
        1,
        0,
        0,
        0,
        0,
        1,
        0,
        1.639,
        0.542,
        0,
        1
      ],
      "name": "Tread Right",
      "extras": {
        "unitJoint": true
      }
    },
    {
      "matrix": [
        1,
        0,
        0,
        0,
        0,
        1,
        0,
        0,
        0,
        0,
        1,
        0,
        -0.091,
        0,
        0,
        1
      ],
      "name": "Cannon Left",
      "extras": {
        "unitJoint": true
      }
    },
    {
      "matrix": [
        1,
        0,
        0,
        0,
        0,
        1,
        0,
        0,
        0,
        0,
        1,
        0,
        0.091,
        0,
        0,
        1
      ],
      "name": "Cannon Right",
      "extras": {
        "unitJoint": true
      }
    },
    {
      "matrix": [
        1,
        0,
        0,
        0,
        0,
        1,
        0,
        0,
        0,
        0,
        1,
        0,
        0,
        0,
        2.58,
        1
      ],
      "name": "Muzzle",
      "extras": {
        "unitJoint": true
      }
    },
    {
      "matrix": [
        1,
        0,
        0,
        0,
        0,
        1,
        0,
        0,
        0,
        0,
        1,
        0,
        0,
        0.135,
        0,
        1
      ],
      "name": "Cannon",
      "extras": {
        "unitJoint": true
      },
      "children": [
        25,
        26,
        27
      ]
    },
    {
      "matrix": [
        1,
        0,
        0,
        0,
        0,
        1,
        0,
        0,
        0,
        0,
        1,
        0,
        0,
        1.944,
        0,
        1
      ],
      "name": "Turret",
      "extras": {
        "unitJoint": true
      },
      "children": [
        28
      ]
    },
    {
      "matrix": [
        1,
        0,
        0,
        0,
        0,
        1,
        0,
        0,
        0,
        0,
        1,
        0,
        0,
        1.187,
        -2.011,
        1
      ],
      "name": "Core",
      "extras": {
        "unitJoint": true
      }
    },
    {
      "name": "Combined articulated steel",
      "mesh": 2,
      "skin": 2
    },
    {
      "name": "Roster running lights",
      "mesh": 3,
      "skin": 3
    },
    {
      "name": "HK-Tank Far",
      "extras": {
        "unitTemplateType": "hktank",
        "rosterBody": "tank",
        "unitAnatomy": {
          "triangles": 8644,
          "parts": 113,
          "joints": [
            "Pelvis",
            "Spine",
            "Chest",
            "Head",
            "Hull",
            "Tread Left",
            "Tread Right",
            "Turret",
            "Cannon",
            "Cannon Left",
            "Cannon Right",
            "Muzzle",
            "Core"
          ]
        },
        "roster": true,
        "unitAssetDetail": "far"
      },
      "children": [
        21,
        22,
        23,
        24,
        29,
        30,
        31,
        32
      ],
      "extensions": {
        "WEBGI_object3d_extras": {
          "visible": false
        }
      }
    },
    {
      "name": "HK-Tank Asset",
      "extras": {
        "unitAsset": true,
        "unitTemplateType": "hktank"
      },
      "children": [
        16,
        33
      ]
    }
  ],
  "bufferViews": [
    {
      "buffer": 0,
      "byteOffset": 0,
      "byteLength": 600336,
      "target": 34962,
      "byteStride": 12
    },
    {
      "buffer": 0,
      "byteOffset": 600336,
      "byteLength": 600336,
      "target": 34962,
      "byteStride": 12
    },
    {
      "buffer": 0,
      "byteOffset": 1200672,
      "byteLength": 400224,
      "target": 34962,
      "byteStride": 8
    },
    {
      "buffer": 0,
      "byteOffset": 1600896,
      "byteLength": 800448,
      "target": 34962,
      "byteStride": 16
    },
    {
      "buffer": 0,
      "byteOffset": 2401344,
      "byteLength": 400224,
      "target": 34962,
      "byteStride": 8
    },
    {
      "buffer": 0,
      "byteOffset": 2801568,
      "byteLength": 46080,
      "target": 34962,
      "byteStride": 12
    },
    {
      "buffer": 0,
      "byteOffset": 2847648,
      "byteLength": 46080,
      "target": 34962,
      "byteStride": 12
    },
    {
      "buffer": 0,
      "byteOffset": 2893728,
      "byteLength": 30720,
      "target": 34962,
      "byteStride": 8
    },
    {
      "buffer": 0,
      "byteOffset": 2924448,
      "byteLength": 61440,
      "target": 34962,
      "byteStride": 16
    },
    {
      "buffer": 0,
      "byteOffset": 2985888,
      "byteLength": 30720,
      "target": 34962,
      "byteStride": 8
    },
    {
      "buffer": 0,
      "byteOffset": 3016608,
      "byteLength": 311184,
      "target": 34962,
      "byteStride": 12
    },
    {
      "buffer": 0,
      "byteOffset": 3327792,
      "byteLength": 311184,
      "target": 34962,
      "byteStride": 12
    },
    {
      "buffer": 0,
      "byteOffset": 3638976,
      "byteLength": 207456,
      "target": 34962,
      "byteStride": 8
    },
    {
      "buffer": 0,
      "byteOffset": 3846432,
      "byteLength": 414912,
      "target": 34962,
      "byteStride": 16
    },
    {
      "buffer": 0,
      "byteOffset": 4261344,
      "byteLength": 207456,
      "target": 34962,
      "byteStride": 8
    },
    {
      "buffer": 0,
      "byteOffset": 4468800,
      "byteLength": 18144,
      "target": 34962,
      "byteStride": 12
    },
    {
      "buffer": 0,
      "byteOffset": 4486944,
      "byteLength": 18144,
      "target": 34962,
      "byteStride": 12
    },
    {
      "buffer": 0,
      "byteOffset": 4505088,
      "byteLength": 12096,
      "target": 34962,
      "byteStride": 8
    },
    {
      "buffer": 0,
      "byteOffset": 4517184,
      "byteLength": 24192,
      "target": 34962,
      "byteStride": 16
    },
    {
      "buffer": 0,
      "byteOffset": 4541376,
      "byteLength": 12096,
      "target": 34962,
      "byteStride": 8
    },
    {
      "buffer": 0,
      "byteOffset": 4553472,
      "byteLength": 832
    },
    {
      "buffer": 0,
      "byteOffset": 4554304,
      "byteLength": 832
    },
    {
      "buffer": 0,
      "byteOffset": 4555136,
      "byteLength": 832
    },
    {
      "buffer": 0,
      "byteOffset": 4555968,
      "byteLength": 832
    }
  ],
  "buffers": [
    {
      "byteLength": 4556800,
      "uri": "hktank.bin"
    }
  ],
  "accessors": [
    {
      "bufferView": 0,
      "componentType": 5126,
      "count": 50028,
      "max": [
        2.006500005722046,
        2.2639999389648438,
        2.572000026702881
      ],
      "min": [
        -2.006500005722046,
        0.13499999046325684,
        -2.312030553817749
      ],
      "type": "VEC3"
    },
    {
      "bufferView": 1,
      "componentType": 5126,
      "count": 50028,
      "max": [
        1,
        1,
        1
      ],
      "min": [
        -1,
        -1,
        -1
      ],
      "type": "VEC3"
    },
    {
      "bufferView": 2,
      "componentType": 5126,
      "count": 50028,
      "max": [
        0.9919999837875366,
        0.9919999837875366
      ],
      "min": [
        0.00800000037997961,
        0.00800000037997961
      ],
      "type": "VEC2"
    },
    {
      "bufferView": 3,
      "componentType": 5126,
      "count": 50028,
      "max": [
        1,
        0,
        0,
        0
      ],
      "min": [
        1,
        0,
        0,
        0
      ],
      "type": "VEC4"
    },
    {
      "bufferView": 4,
      "componentType": 5123,
      "count": 50028,
      "max": [
        12,
        0,
        0,
        0
      ],
      "min": [
        4,
        0,
        0,
        0
      ],
      "type": "VEC4"
    },
    {
      "bufferView": 5,
      "componentType": 5126,
      "count": 3840,
      "max": [
        0.8299999833106995,
        2.301500082015991,
        2.5764999389648438
      ],
      "min": [
        -0.8299999833106995,
        0.8479999899864197,
        -2.3499999046325684
      ],
      "type": "VEC3"
    },
    {
      "bufferView": 6,
      "componentType": 5126,
      "count": 3840,
      "max": [
        1,
        1,
        1
      ],
      "min": [
        -1,
        -1,
        -1
      ],
      "type": "VEC3"
    },
    {
      "bufferView": 7,
      "componentType": 5126,
      "count": 3840,
      "max": [
        0.9919999837875366,
        0.9919999837875366
      ],
      "min": [
        0.5080000162124634,
        0.5080000162124634
      ],
      "type": "VEC2"
    },
    {
      "bufferView": 8,
      "componentType": 5126,
      "count": 3840,
      "max": [
        1,
        0,
        0,
        0
      ],
      "min": [
        1,
        0,
        0,
        0
      ],
      "type": "VEC4"
    },
    {
      "bufferView": 9,
      "componentType": 5123,
      "count": 3840,
      "max": [
        12,
        0,
        0,
        0
      ],
      "min": [
        4,
        0,
        0,
        0
      ],
      "type": "VEC4"
    },
    {
      "bufferView": 10,
      "componentType": 5126,
      "count": 25932,
      "max": [
        2.006500005722046,
        2.2639999389648438,
        2.572000026702881
      ],
      "min": [
        -2.006500005722046,
        0.13499999046325684,
        -2.312030553817749
      ],
      "type": "VEC3"
    },
    {
      "bufferView": 11,
      "componentType": 5126,
      "count": 25932,
      "max": [
        1,
        1,
        1
      ],
      "min": [
        -1,
        -1,
        -1
      ],
      "type": "VEC3"
    },
    {
      "bufferView": 12,
      "componentType": 5126,
      "count": 25932,
      "max": [
        0.9919999837875366,
        0.9919999837875366
      ],
      "min": [
        0.00800000037997961,
        0.00800000037997961
      ],
      "type": "VEC2"
    },
    {
      "bufferView": 13,
      "componentType": 5126,
      "count": 25932,
      "max": [
        1,
        0,
        0,
        0
      ],
      "min": [
        1,
        0,
        0,
        0
      ],
      "type": "VEC4"
    },
    {
      "bufferView": 14,
      "componentType": 5123,
      "count": 25932,
      "max": [
        12,
        0,
        0,
        0
      ],
      "min": [
        4,
        0,
        0,
        0
      ],
      "type": "VEC4"
    },
    {
      "bufferView": 15,
      "componentType": 5126,
      "count": 1512,
      "max": [
        0.8299999833106995,
        2.301500082015991,
        2.5764999389648438
      ],
      "min": [
        -0.8299999833106995,
        0.8479999899864197,
        -2.3499999046325684
      ],
      "type": "VEC3"
    },
    {
      "bufferView": 16,
      "componentType": 5126,
      "count": 1512,
      "max": [
        1,
        1,
        1
      ],
      "min": [
        -1,
        -1,
        -1
      ],
      "type": "VEC3"
    },
    {
      "bufferView": 17,
      "componentType": 5126,
      "count": 1512,
      "max": [
        0.9919999837875366,
        0.9919999837875366
      ],
      "min": [
        0.5080000162124634,
        0.5080000162124634
      ],
      "type": "VEC2"
    },
    {
      "bufferView": 18,
      "componentType": 5126,
      "count": 1512,
      "max": [
        1,
        0,
        0,
        0
      ],
      "min": [
        1,
        0,
        0,
        0
      ],
      "type": "VEC4"
    },
    {
      "bufferView": 19,
      "componentType": 5123,
      "count": 1512,
      "max": [
        12,
        0,
        0,
        0
      ],
      "min": [
        4,
        0,
        0,
        0
      ],
      "type": "VEC4"
    },
    {
      "bufferView": 20,
      "componentType": 5126,
      "count": 13,
      "max": [
        1,
        0,
        0,
        0,
        0,
        1,
        0,
        0,
        0,
        0,
        1,
        0,
        1.6390000581741333,
        0,
        2.010999917984009,
        1
      ],
      "min": [
        1,
        0,
        0,
        0,
        0,
        1,
        0,
        0,
        0,
        0,
        1,
        0,
        -1.6390000581741333,
        -2.0789999961853027,
        -2.5799999237060547,
        1
      ],
      "type": "MAT4"
    },
    {
      "bufferView": 21,
      "componentType": 5126,
      "count": 13,
      "max": [
        1,
        0,
        0,
        0,
        0,
        1,
        0,
        0,
        0,
        0,
        1,
        0,
        1.6390000581741333,
        0,
        2.010999917984009,
        1
      ],
      "min": [
        1,
        0,
        0,
        0,
        0,
        1,
        0,
        0,
        0,
        0,
        1,
        0,
        -1.6390000581741333,
        -2.0789999961853027,
        -2.5799999237060547,
        1
      ],
      "type": "MAT4"
    },
    {
      "bufferView": 22,
      "componentType": 5126,
      "count": 13,
      "max": [
        1,
        0,
        0,
        0,
        0,
        1,
        0,
        0,
        0,
        0,
        1,
        0,
        1.6390000581741333,
        0,
        2.010999917984009,
        1
      ],
      "min": [
        1,
        0,
        0,
        0,
        0,
        1,
        0,
        0,
        0,
        0,
        1,
        0,
        -1.6390000581741333,
        -2.0789999961853027,
        -2.5799999237060547,
        1
      ],
      "type": "MAT4"
    },
    {
      "bufferView": 23,
      "componentType": 5126,
      "count": 13,
      "max": [
        1,
        0,
        0,
        0,
        0,
        1,
        0,
        0,
        0,
        0,
        1,
        0,
        1.6390000581741333,
        0,
        2.010999917984009,
        1
      ],
      "min": [
        1,
        0,
        0,
        0,
        0,
        1,
        0,
        0,
        0,
        0,
        1,
        0,
        -1.6390000581741333,
        -2.0789999961853027,
        -2.5799999237060547,
        1
      ],
      "type": "MAT4"
    }
  ],
  "materials": [
    {
      "pbrMetallicRoughness": {
        "metallicFactor": 1,
        "roughnessFactor": 1,
        "baseColorTexture": {
          "index": 0
        },
        "metallicRoughnessTexture": {
          "index": 1
        }
      },
      "name": "Hunter Killer worn armor 1K",
      "occlusionTexture": {
        "index": 1
      },
      "normalTexture": {
        "index": 2,
        "scale": 1
      }
    },
    {
      "pbrMetallicRoughness": {
        "baseColorFactor": [
          0.10461648408208657,
          0.004024717016506897,
          0.002428215868235294,
          1
        ],
        "metallicFactor": 0.3,
        "roughnessFactor": 0.35,
        "baseColorTexture": {
          "index": 3
        },
        "metallicRoughnessTexture": {
          "index": 4
        }
      },
      "emissiveFactor": [
        1,
        0.02121901037134225,
        0.007499032040460618
      ],
      "name": "Hunter Killer optical glass",
      "extensions": {
        "KHR_materials_emissive_strength": {
          "emissiveStrength": 3
        }
      },
      "occlusionTexture": {
        "index": 4
      },
      "normalTexture": {
        "index": 5,
        "scale": 1
      },
      "emissiveTexture": {
        "index": 6
      }
    }
  ],
  "meshes": [
    {
      "primitives": [
        {
          "mode": 4,
          "attributes": {
            "POSITION": 0,
            "NORMAL": 1,
            "TEXCOORD_0": 2,
            "WEIGHTS_0": 3,
            "JOINTS_0": 4
          },
          "material": 0
        }
      ]
    },
    {
      "primitives": [
        {
          "mode": 4,
          "attributes": {
            "POSITION": 5,
            "NORMAL": 6,
            "TEXCOORD_0": 7,
            "WEIGHTS_0": 8,
            "JOINTS_0": 9
          },
          "material": 1
        }
      ]
    },
    {
      "primitives": [
        {
          "mode": 4,
          "attributes": {
            "POSITION": 10,
            "NORMAL": 11,
            "TEXCOORD_0": 12,
            "WEIGHTS_0": 13,
            "JOINTS_0": 14
          },
          "material": 0
        }
      ]
    },
    {
      "primitives": [
        {
          "mode": 4,
          "attributes": {
            "POSITION": 15,
            "NORMAL": 16,
            "TEXCOORD_0": 17,
            "WEIGHTS_0": 18,
            "JOINTS_0": 19
          },
          "material": 1
        }
      ]
    }
  ],
  "skins": [
    {
      "inverseBindMatrices": 20,
      "joints": [
        4,
        3,
        2,
        1,
        5,
        6,
        7,
        12,
        11,
        8,
        9,
        10,
        13
      ],
      "skeleton": 4
    },
    {
      "inverseBindMatrices": 21,
      "joints": [
        4,
        3,
        2,
        1,
        5,
        6,
        7,
        12,
        11,
        8,
        9,
        10,
        13
      ],
      "skeleton": 4
    },
    {
      "inverseBindMatrices": 22,
      "joints": [
        21,
        20,
        19,
        18,
        22,
        23,
        24,
        29,
        28,
        25,
        26,
        27,
        30
      ],
      "skeleton": 21
    },
    {
      "inverseBindMatrices": 23,
      "joints": [
        21,
        20,
        19,
        18,
        22,
        23,
        24,
        29,
        28,
        25,
        26,
        27,
        30
      ],
      "skeleton": 21
    }
  ],
  "extensionsUsed": [
    "KHR_materials_emissive_strength",
    "WEBGI_object3d_extras"
  ],
  "images": [
    {
      "name": "textures/roster/hk-albedo.jpg",
      "uri": "textures/roster/hk-albedo.jpg"
    },
    {
      "name": "textures/roster/hk-orm.png",
      "uri": "textures/roster/hk-orm.png"
    },
    {
      "name": "textures/roster/hk-normal.png",
      "uri": "textures/roster/hk-normal.png"
    },
    {
      "name": "textures/units/optic-albedo.png",
      "uri": "textures/units/optic-albedo.png"
    },
    {
      "name": "textures/units/optic-orm.png",
      "uri": "textures/units/optic-orm.png"
    },
    {
      "name": "textures/units/optic-normal.png",
      "uri": "textures/units/optic-normal.png"
    },
    {
      "name": "textures/units/optic-emissive.png",
      "uri": "textures/units/optic-emissive.png"
    }
  ],
  "textures": [
    {
      "name": "textures/roster/hk-albedo.jpg",
      "source": 0
    },
    {
      "name": "textures/roster/hk-orm.png",
      "source": 1
    },
    {
      "name": "textures/roster/hk-normal.png",
      "source": 2
    },
    {
      "name": "textures/units/optic-albedo.png",
      "source": 3
    },
    {
      "name": "textures/units/optic-orm.png",
      "source": 4
    },
    {
      "name": "textures/units/optic-normal.png",
      "source": 5
    },
    {
      "name": "textures/units/optic-emissive.png",
      "source": 6
    }
  ]
}
