{
  "asset": {
    "generator": "Khronos glTF Blender I/O v5.2.40",
    "version": "2.0"
  },
  "scene": 0,
  "scenes": [
    {
      "name": "Scene",
      "nodes": [
        2
      ]
    }
  ],
  "nodes": [
    {
      "mesh": 0,
      "name": "A-104 Rifle"
    },
    {
      "mesh": 1,
      "name": "Circle.805"
    },
    {
      "children": [
        0,
        1
      ],
      "name": "a104-ccby display"
    }
  ],
  "materials": [
    {
      "doubleSided": true,
      "name": "Candidate plasma a104-ccby main",
      "normalTexture": {
        "index": 0
      },
      "pbrMetallicRoughness": {
        "baseColorTexture": {
          "index": 1
        },
        "metallicRoughnessTexture": {
          "index": 2
        }
      },
      "occlusionTexture": {
        "index": 2,
        "strength": 1
      }
    }
  ],
  "meshes": [
    {
      "name": "Gun.001",
      "primitives": [
        {
          "attributes": {
            "POSITION": 0,
            "NORMAL": 1,
            "TEXCOORD_0": 2
          },
          "indices": 3,
          "material": 0
        },
        {
          "attributes": {
            "POSITION": 4,
            "NORMAL": 5,
            "TEXCOORD_0": 6
          },
          "indices": 7,
          "material": 0
        }
      ]
    },
    {
      "name": "Circle.001",
      "primitives": [
        {
          "attributes": {
            "POSITION": 8,
            "NORMAL": 9,
            "TEXCOORD_0": 10
          },
          "indices": 11,
          "material": 0
        }
      ]
    }
  ],
  "textures": [
    {
      "sampler": 0,
      "source": 0
    },
    {
      "sampler": 0,
      "source": 1
    },
    {
      "sampler": 0,
      "source": 2
    }
  ],
  "images": [
    {
      "mimeType": "image/png",
      "name": "main-normal",
      "uri": "main-normal.png"
    },
    {
      "mimeType": "image/png",
      "name": "main-albedo",
      "uri": "main-albedo.png"
    },
    {
      "mimeType": "image/png",
      "name": "main-orm",
      "uri": "main-orm.png"
    }
  ],
  "accessors": [
    {
      "bufferView": 0,
      "componentType": 5126,
      "count": 8391,
      "max": [
        0.3142082691192627,
        0.2781867980957031,
        0.041091252118349075
      ],
      "min": [
        -0.5357917547225952,
        -0.033207863569259644,
        -0.04890451952815056
      ],
      "type": "VEC3"
    },
    {
      "bufferView": 1,
      "componentType": 5126,
      "count": 8391,
      "type": "VEC3"
    },
    {
      "bufferView": 2,
      "componentType": 5126,
      "count": 8391,
      "type": "VEC2"
    },
    {
      "bufferView": 3,
      "componentType": 5123,
      "count": 18411,
      "type": "SCALAR"
    },
    {
      "bufferView": 4,
      "componentType": 5126,
      "count": 4436,
      "max": [
        -0.003504764288663864,
        0.20782284438610077,
        0.01881425641477108
      ],
      "min": [
        -0.15323975682258606,
        0.09372347593307495,
        -0.018813826143741608
      ],
      "type": "VEC3"
    },
    {
      "bufferView": 5,
      "componentType": 5126,
      "count": 4436,
      "type": "VEC3"
    },
    {
      "bufferView": 6,
      "componentType": 5126,
      "count": 4436,
      "type": "VEC2"
    },
    {
      "bufferView": 7,
      "componentType": 5123,
      "count": 14592,
      "type": "SCALAR"
    },
    {
      "bufferView": 8,
      "componentType": 5126,
      "count": 6,
      "max": [
        0.053902894258499146,
        0.2678828239440918,
        0.021874723955988884
      ],
      "min": [
        0.01233336329460144,
        0.23431162536144257,
        -0.021874187514185905
      ],
      "type": "VEC3"
    },
    {
      "bufferView": 9,
      "componentType": 5126,
      "count": 6,
      "type": "VEC3"
    },
    {
      "bufferView": 10,
      "componentType": 5126,
      "count": 6,
      "type": "VEC2"
    },
    {
      "bufferView": 11,
      "componentType": 5123,
      "count": 12,
      "type": "SCALAR"
    }
  ],
  "bufferViews": [
    {
      "buffer": 0,
      "byteLength": 100692,
      "byteOffset": 0,
      "target": 34962
    },
    {
      "buffer": 0,
      "byteLength": 100692,
      "byteOffset": 100692,
      "target": 34962
    },
    {
      "buffer": 0,
      "byteLength": 67128,
      "byteOffset": 201384,
      "target": 34962
    },
    {
      "buffer": 0,
      "byteLength": 36822,
      "byteOffset": 268512,
      "target": 34963
    },
    {
      "buffer": 0,
      "byteLength": 53232,
      "byteOffset": 305336,
      "target": 34962
    },
    {
      "buffer": 0,
      "byteLength": 53232,
      "byteOffset": 358568,
      "target": 34962
    },
    {
      "buffer": 0,
      "byteLength": 35488,
      "byteOffset": 411800,
      "target": 34962
    },
    {
      "buffer": 0,
      "byteLength": 29184,
      "byteOffset": 447288,
      "target": 34963
    },
    {
      "buffer": 0,
      "byteLength": 72,
      "byteOffset": 476472,
      "target": 34962
    },
    {
      "buffer": 0,
      "byteLength": 72,
      "byteOffset": 476544,
      "target": 34962
    },
    {
      "buffer": 0,
      "byteLength": 48,
      "byteOffset": 476616,
      "target": 34962
    },
    {
      "buffer": 0,
      "byteLength": 24,
      "byteOffset": 476664,
      "target": 34963
    }
  ],
  "samplers": [
    {
      "magFilter": 9729,
      "minFilter": 9987
    }
  ],
  "buffers": [
    {
      "byteLength": 476688,
      "uri": "a104-ccby.bin"
    }
  ]
}
