{
  "asset": {
    "version": "2.0",
    "generator": "Terminator build-unit-assets.mjs using Three.js and glTF Transform"
  },
  "scenes": [
    {
      "name": "AuxScene",
      "nodes": [
        82
      ]
    }
  ],
  "scene": 0,
  "nodes": [
    {
      "matrix": [
        1,
        0,
        0,
        0,
        0,
        1,
        0,
        0,
        0,
        0,
        1,
        0,
        0,
        -0.055,
        -0.012,
        1
      ],
      "name": "Jaw",
      "extras": {
        "unitJoint": true
      }
    },
    {
      "matrix": [
        1,
        0,
        0,
        0,
        0,
        0.85,
        0,
        0,
        0,
        0,
        0.48,
        0,
        -0.069,
        0.009,
        0.083,
        1
      ],
      "name": "Eye Left",
      "mesh": 0
    },
    {
      "matrix": [
        1,
        0,
        0,
        0,
        0,
        1,
        0,
        0,
        0,
        0,
        1,
        0,
        -0.069,
        0.009,
        0.137,
        1
      ],
      "name": "Eye Bloom",
      "mesh": 1
    },
    {
      "matrix": [
        1,
        0,
        0,
        0,
        0,
        1,
        0,
        0,
        0,
        0,
        1,
        0,
        -0.069,
        0.009,
        0.138,
        1
      ],
      "name": "Eye Flare",
      "mesh": 2
    },
    {
      "matrix": [
        1,
        0,
        0,
        0,
        0,
        1,
        0,
        0,
        0,
        0,
        1,
        0,
        -0.069,
        0.009,
        0.092,
        1
      ],
      "name": "Tracking Glint",
      "mesh": 3
    },
    {
      "matrix": [
        1,
        0,
        0,
        0,
        0,
        0.85,
        0,
        0,
        0,
        0,
        0.48,
        0,
        0.069,
        0.009,
        0.083,
        1
      ],
      "name": "Eye Right",
      "mesh": 4
    },
    {
      "matrix": [
        1,
        0,
        0,
        0,
        0,
        1,
        0,
        0,
        0,
        0,
        1,
        0,
        0.069,
        0.009,
        0.137,
        1
      ],
      "name": "Eye Bloom",
      "mesh": 5
    },
    {
      "matrix": [
        1,
        0,
        0,
        0,
        0,
        1,
        0,
        0,
        0,
        0,
        1,
        0,
        0.069,
        0.009,
        0.138,
        1
      ],
      "name": "Eye Flare",
      "mesh": 6
    },
    {
      "matrix": [
        1,
        0,
        0,
        0,
        0,
        1,
        0,
        0,
        0,
        0,
        1,
        0,
        0.069,
        0.009,
        0.092,
        1
      ],
      "name": "Tracking Glint",
      "mesh": 7
    },
    {
      "name": "Eye Emitters",
      "children": [
        1,
        2,
        3,
        4,
        5,
        6,
        7,
        8
      ]
    },
    {
      "matrix": [
        1,
        0,
        0,
        0,
        0,
        1,
        0,
        0,
        0,
        0,
        1,
        0,
        0,
        0.12,
        0,
        1
      ],
      "name": "Head",
      "extras": {
        "unitJoint": true
      },
      "children": [
        0,
        9
      ]
    },
    {
      "matrix": [
        1,
        0,
        0,
        0,
        0,
        1,
        0,
        0,
        0,
        0,
        1,
        0,
        0,
        0.29,
        -0.025,
        1
      ],
      "name": "Neck",
      "extras": {
        "unitJoint": true
      },
      "children": [
        10
      ]
    },
    {
      "matrix": [
        0.9993302354173859,
        0.03659286967545317,
        -0.00020608141003513626,
        0,
        -0.03659286967545317,
        0.9992668257527596,
        -0.011259344515524045,
        0,
        -0.00020608141003513626,
        0.011259344515524045,
        0.9999365903353739,
        0,
        -0.046,
        -0.105,
        0.061,
        1
      ],
      "name": "Elbow Left Rod",
      "extras": {
        "unitJoint": true,
        "actuator": {
          "target": "Upper Arm Left",
          "point": [
            -0.059,
            -0.06,
            0.057
          ],
          "restLength": 0.18,
          "shaft": true
        }
      }
    },
    {
      "matrix": [
        1,
        0,
        0,
        0,
        0,
        1,
        0,
        0,
        0,
        0,
        1,
        0,
        0,
        -0.32,
        0,
        1
      ],
      "name": "Hand Left",
      "extras": {
        "unitJoint": true
      }
    },
    {
      "matrix": [
        1,
        0,
        0,
        0,
        0,
        1,
        0,
        0,
        0,
        0,
        1,
        0,
        0,
        -0.31,
        0,
        1
      ],
      "name": "Forearm Left",
      "extras": {
        "unitJoint": true
      },
      "children": [
        12,
        13
      ]
    },
    {
      "matrix": [
        -0.8263572624444131,
        -0.03659286967545359,
        -0.5619560807521262,
        0,
        0.03659286967545359,
        -0.9992668257527593,
        0.011259344515524164,
        0,
        -0.5619560807521262,
        -0.011259344515524164,
        0.8270904366916538,
        0,
        -0.059,
        -0.06,
        0.057,
        1
      ],
      "name": "Elbow Left Cylinder",
      "extras": {
        "unitJoint": true,
        "actuator": {
          "target": "Forearm Left",
          "point": [
            -0.046,
            -0.105,
            0.061
          ],
          "restLength": 0.18,
          "shaft": false
        }
      }
    },
    {
      "matrix": [
        1,
        0,
        0,
        0,
        0,
        1,
        0,
        0,
        0,
        0,
        1,
        0,
        0,
        -0.034,
        0,
        1
      ],
      "name": "Upper Arm Left",
      "extras": {
        "unitJoint": true
      },
      "children": [
        14,
        15
      ]
    },
    {
      "matrix": [
        1,
        0,
        0,
        0,
        0,
        1,
        0,
        0,
        0,
        0,
        1,
        0,
        -0.32,
        0.19,
        0,
        1
      ],
      "name": "Shoulder Left",
      "extras": {
        "unitJoint": true
      },
      "children": [
        16
      ]
    },
    {
      "matrix": [
        0.9993302354173859,
        -0.03659286967545317,
        0.00020608141003513626,
        0,
        0.03659286967545317,
        0.9992668257527596,
        -0.011259344515524045,
        0,
        0.00020608141003513626,
        0.011259344515524045,
        0.9999365903353739,
        0,
        0.046,
        -0.105,
        0.061,
        1
      ],
      "name": "Elbow Right Rod",
      "extras": {
        "unitJoint": true,
        "actuator": {
          "target": "Upper Arm Right",
          "point": [
            0.059,
            -0.06,
            0.057
          ],
          "restLength": 0.18,
          "shaft": true
        }
      }
    },
    {
      "matrix": [
        1,
        0,
        0,
        0,
        0,
        1,
        0,
        0,
        0,
        0,
        1,
        0,
        0,
        0.16,
        0.603,
        1
      ],
      "name": "Muzzle",
      "extras": {
        "unitJoint": true,
        "unitMuzzle": true
      }
    },
    {
      "matrix": [
        1,
        0,
        0,
        0,
        0,
        1,
        0,
        0,
        0,
        0,
        1,
        0,
        0,
        -0.11,
        0.055,
        1
      ],
      "name": "Weapon",
      "extras": {
        "unitJoint": true
      },
      "children": [
        19
      ]
    },
    {
      "matrix": [
        1,
        0,
        0,
        0,
        0,
        1,
        0,
        0,
        0,
        0,
        1,
        0,
        0,
        -0.32,
        0,
        1
      ],
      "name": "Hand Right",
      "extras": {
        "unitJoint": true
      },
      "children": [
        20
      ]
    },
    {
      "matrix": [
        1,
        0,
        0,
        0,
        0,
        1,
        0,
        0,
        0,
        0,
        1,
        0,
        0,
        -0.31,
        0,
        1
      ],
      "name": "Forearm Right",
      "extras": {
        "unitJoint": true
      },
      "children": [
        18,
        21
      ]
    },
    {
      "matrix": [
        -0.8263572624444131,
        0.03659286967545359,
        0.5619560807521262,
        0,
        -0.03659286967545359,
        -0.9992668257527593,
        0.011259344515524164,
        0,
        0.5619560807521262,
        -0.011259344515524164,
        0.8270904366916538,
        0,
        0.059,
        -0.06,
        0.057,
        1
      ],
      "name": "Elbow Right Cylinder",
      "extras": {
        "unitJoint": true,
        "actuator": {
          "target": "Forearm Right",
          "point": [
            0.046,
            -0.105,
            0.061
          ],
          "restLength": 0.18,
          "shaft": false
        }
      }
    },
    {
      "matrix": [
        1,
        0,
        0,
        0,
        0,
        1,
        0,
        0,
        0,
        0,
        1,
        0,
        0,
        -0.034,
        0,
        1
      ],
      "name": "Upper Arm Right",
      "extras": {
        "unitJoint": true
      },
      "children": [
        22,
        23
      ]
    },
    {
      "matrix": [
        1,
        0,
        0,
        0,
        0,
        1,
        0,
        0,
        0,
        0,
        1,
        0,
        0.32,
        0.19,
        0,
        1
      ],
      "name": "Shoulder Right",
      "extras": {
        "unitJoint": true
      },
      "children": [
        24
      ]
    },
    {
      "matrix": [
        1,
        0,
        0,
        0,
        0,
        1,
        0,
        0,
        0,
        0,
        1,
        0,
        0,
        0.28,
        0,
        1
      ],
      "name": "Chest",
      "extras": {
        "unitJoint": true
      },
      "children": [
        11,
        17,
        25
      ]
    },
    {
      "matrix": [
        1,
        0,
        0,
        0,
        0,
        1,
        0,
        0,
        0,
        0,
        1,
        0,
        0,
        0.12,
        0,
        1
      ],
      "name": "Spine",
      "extras": {
        "unitJoint": true
      },
      "children": [
        26
      ]
    },
    {
      "matrix": [
        0.9996094539687821,
        0.027945037052808055,
        -0.00012016800960551494,
        0,
        -0.027945037052808055,
        0.9995724791965958,
        -0.008598472939325549,
        0,
        -0.00012016800960551494,
        0.008598472939325549,
        0.9999630252278137,
        0,
        -0.046,
        -0.105,
        0.061,
        1
      ],
      "name": "Knee Left Rod",
      "extras": {
        "unitJoint": true,
        "actuator": {
          "target": "Thigh Left",
          "point": [
            -0.059,
            -0.06,
            0.057
          ],
          "restLength": 0.18,
          "shaft": true
        }
      }
    },
    {
      "matrix": [
        1,
        0,
        0,
        0,
        0,
        1,
        0,
        0,
        0,
        0,
        1,
        0,
        0,
        -0.37,
        0,
        1
      ],
      "name": "Foot Left",
      "extras": {
        "unitJoint": true
      }
    },
    {
      "matrix": [
        1,
        0,
        0,
        0,
        0,
        1,
        0,
        0,
        0,
        0,
        1,
        0,
        0,
        -0.42,
        0,
        1
      ],
      "name": "Shin Left",
      "extras": {
        "unitJoint": true
      },
      "children": [
        28,
        29
      ]
    },
    {
      "matrix": [
        -0.82663648099581,
        -0.027945037052801464,
        -0.5620419941525558,
        0,
        0.027945037052801464,
        -0.9995724791965961,
        0.00859847293932351,
        0,
        -0.5620419941525558,
        -0.00859847293932351,
        0.8270640017992139,
        0,
        -0.059,
        -0.06,
        0.057,
        1
      ],
      "name": "Knee Left Cylinder",
      "extras": {
        "unitJoint": true,
        "actuator": {
          "target": "Shin Left",
          "point": [
            -0.046,
            -0.105,
            0.061
          ],
          "restLength": 0.18,
          "shaft": false
        }
      }
    },
    {
      "matrix": [
        1,
        0,
        0,
        0,
        0,
        1,
        0,
        0,
        0,
        0,
        1,
        0,
        -0.14,
        -0.07,
        0,
        1
      ],
      "name": "Thigh Left",
      "extras": {
        "unitJoint": true
      },
      "children": [
        30,
        31
      ]
    },
    {
      "matrix": [
        0.9996094539687821,
        -0.027945037052808055,
        0.00012016800960551494,
        0,
        0.027945037052808055,
        0.9995724791965958,
        -0.008598472939325549,
        0,
        0.00012016800960551494,
        0.008598472939325549,
        0.9999630252278137,
        0,
        0.046,
        -0.105,
        0.061,
        1
      ],
      "name": "Knee Right Rod",
      "extras": {
        "unitJoint": true,
        "actuator": {
          "target": "Thigh Right",
          "point": [
            0.059,
            -0.06,
            0.057
          ],
          "restLength": 0.18,
          "shaft": true
        }
      }
    },
    {
      "matrix": [
        1,
        0,
        0,
        0,
        0,
        1,
        0,
        0,
        0,
        0,
        1,
        0,
        0,
        -0.37,
        0,
        1
      ],
      "name": "Foot Right",
      "extras": {
        "unitJoint": true
      }
    },
    {
      "matrix": [
        1,
        0,
        0,
        0,
        0,
        1,
        0,
        0,
        0,
        0,
        1,
        0,
        0,
        -0.42,
        0,
        1
      ],
      "name": "Shin Right",
      "extras": {
        "unitJoint": true
      },
      "children": [
        33,
        34
      ]
    },
    {
      "matrix": [
        -0.82663648099581,
        0.027945037052801464,
        0.5620419941525558,
        0,
        -0.027945037052801464,
        -0.9995724791965961,
        0.00859847293932351,
        0,
        0.5620419941525558,
        -0.00859847293932351,
        0.8270640017992139,
        0,
        0.059,
        -0.06,
        0.057,
        1
      ],
      "name": "Knee Right Cylinder",
      "extras": {
        "unitJoint": true,
        "actuator": {
          "target": "Shin Right",
          "point": [
            0.046,
            -0.105,
            0.061
          ],
          "restLength": 0.18,
          "shaft": false
        }
      }
    },
    {
      "matrix": [
        1,
        0,
        0,
        0,
        0,
        1,
        0,
        0,
        0,
        0,
        1,
        0,
        0.14,
        -0.07,
        0,
        1
      ],
      "name": "Thigh Right",
      "extras": {
        "unitJoint": true
      },
      "children": [
        35,
        36
      ]
    },
    {
      "matrix": [
        1,
        0,
        0,
        0,
        0,
        1,
        0,
        0,
        0,
        0,
        1,
        0,
        0,
        0.94,
        0,
        1
      ],
      "name": "Pelvis",
      "extras": {
        "unitJoint": true
      },
      "children": [
        27,
        32,
        37
      ]
    },
    {
      "name": "Combined articulated steel",
      "mesh": 8,
      "skin": 0
    },
    {
      "name": "T-800 Endo High",
      "extras": {
        "unitTemplateType": "endo",
        "unitAnatomy": {
          "parts": 303,
          "triangles": 25492,
          "joints": [
            "Pelvis",
            "Spine",
            "Chest",
            "Neck",
            "Head",
            "Jaw",
            "Shoulder Left",
            "Upper Arm Left",
            "Forearm Left",
            "Elbow Left Cylinder",
            "Elbow Left Rod",
            "Hand Left",
            "Thigh Left",
            "Shin Left",
            "Knee Left Cylinder",
            "Knee Left Rod",
            "Foot Left",
            "Shoulder Right",
            "Upper Arm Right",
            "Forearm Right",
            "Elbow Right Cylinder",
            "Elbow Right Rod",
            "Hand Right",
            "Thigh Right",
            "Shin Right",
            "Knee Right Cylinder",
            "Knee Right Rod",
            "Foot Right",
            "Weapon",
            "Muzzle"
          ],
          "textureBytes": 0
        },
        "unitAssetDetail": "high"
      },
      "children": [
        38,
        39
      ]
    },
    {
      "matrix": [
        1,
        0,
        0,
        0,
        0,
        1,
        0,
        0,
        0,
        0,
        1,
        0,
        0,
        -0.055,
        -0.012,
        1
      ],
      "name": "Jaw",
      "extras": {
        "unitJoint": true
      }
    },
    {
      "matrix": [
        1,
        0,
        0,
        0,
        0,
        0.85,
        0,
        0,
        0,
        0,
        0.48,
        0,
        -0.069,
        0.009,
        0.083,
        1
      ],
      "name": "Eye Left",
      "mesh": 9
    },
    {
      "matrix": [
        1,
        0,
        0,
        0,
        0,
        1,
        0,
        0,
        0,
        0,
        1,
        0,
        -0.069,
        0.009,
        0.137,
        1
      ],
      "name": "Eye Bloom",
      "mesh": 10
    },
    {
      "matrix": [
        1,
        0,
        0,
        0,
        0,
        1,
        0,
        0,
        0,
        0,
        1,
        0,
        -0.069,
        0.009,
        0.138,
        1
      ],
      "name": "Eye Flare",
      "mesh": 11
    },
    {
      "matrix": [
        1,
        0,
        0,
        0,
        0,
        1,
        0,
        0,
        0,
        0,
        1,
        0,
        -0.069,
        0.009,
        0.092,
        1
      ],
      "name": "Tracking Glint",
      "mesh": 12
    },
    {
      "matrix": [
        1,
        0,
        0,
        0,
        0,
        0.85,
        0,
        0,
        0,
        0,
        0.48,
        0,
        0.069,
        0.009,
        0.083,
        1
      ],
      "name": "Eye Right",
      "mesh": 13
    },
    {
      "matrix": [
        1,
        0,
        0,
        0,
        0,
        1,
        0,
        0,
        0,
        0,
        1,
        0,
        0.069,
        0.009,
        0.137,
        1
      ],
      "name": "Eye Bloom",
      "mesh": 14
    },
    {
      "matrix": [
        1,
        0,
        0,
        0,
        0,
        1,
        0,
        0,
        0,
        0,
        1,
        0,
        0.069,
        0.009,
        0.138,
        1
      ],
      "name": "Eye Flare",
      "mesh": 15
    },
    {
      "matrix": [
        1,
        0,
        0,
        0,
        0,
        1,
        0,
        0,
        0,
        0,
        1,
        0,
        0.069,
        0.009,
        0.092,
        1
      ],
      "name": "Tracking Glint",
      "mesh": 16
    },
    {
      "name": "Eye Emitters",
      "children": [
        42,
        43,
        44,
        45,
        46,
        47,
        48,
        49
      ]
    },
    {
      "matrix": [
        1,
        0,
        0,
        0,
        0,
        1,
        0,
        0,
        0,
        0,
        1,
        0,
        0,
        0.12,
        0,
        1
      ],
      "name": "Head",
      "extras": {
        "unitJoint": true
      },
      "children": [
        41,
        50
      ]
    },
    {
      "matrix": [
        1,
        0,
        0,
        0,
        0,
        1,
        0,
        0,
        0,
        0,
        1,
        0,
        0,
        0.29,
        -0.025,
        1
      ],
      "name": "Neck",
      "extras": {
        "unitJoint": true
      },
      "children": [
        51
      ]
    },
    {
      "matrix": [
        0.9993302354173859,
        0.03659286967545317,
        -0.00020608141003513626,
        0,
        -0.03659286967545317,
        0.9992668257527596,
        -0.011259344515524045,
        0,
        -0.00020608141003513626,
        0.011259344515524045,
        0.9999365903353739,
        0,
        -0.046,
        -0.105,
        0.061,
        1
      ],
      "name": "Elbow Left Rod",
      "extras": {
        "unitJoint": true,
        "actuator": {
          "target": "Upper Arm Left",
          "point": [
            -0.059,
            -0.06,
            0.057
          ],
          "restLength": 0.18,
          "shaft": true
        }
      }
    },
    {
      "matrix": [
        1,
        0,
        0,
        0,
        0,
        1,
        0,
        0,
        0,
        0,
        1,
        0,
        0,
        -0.32,
        0,
        1
      ],
      "name": "Hand Left",
      "extras": {
        "unitJoint": true
      }
    },
    {
      "matrix": [
        1,
        0,
        0,
        0,
        0,
        1,
        0,
        0,
        0,
        0,
        1,
        0,
        0,
        -0.31,
        0,
        1
      ],
      "name": "Forearm Left",
      "extras": {
        "unitJoint": true
      },
      "children": [
        53,
        54
      ]
    },
    {
      "matrix": [
        -0.8263572624444131,
        -0.03659286967545359,
        -0.5619560807521262,
        0,
        0.03659286967545359,
        -0.9992668257527593,
        0.011259344515524164,
        0,
        -0.5619560807521262,
        -0.011259344515524164,
        0.8270904366916538,
        0,
        -0.059,
        -0.06,
        0.057,
        1
      ],
      "name": "Elbow Left Cylinder",
      "extras": {
        "unitJoint": true,
        "actuator": {
          "target": "Forearm Left",
          "point": [
            -0.046,
            -0.105,
            0.061
          ],
          "restLength": 0.18,
          "shaft": false
        }
      }
    },
    {
      "matrix": [
        1,
        0,
        0,
        0,
        0,
        1,
        0,
        0,
        0,
        0,
        1,
        0,
        0,
        -0.034,
        0,
        1
      ],
      "name": "Upper Arm Left",
      "extras": {
        "unitJoint": true
      },
      "children": [
        55,
        56
      ]
    },
    {
      "matrix": [
        1,
        0,
        0,
        0,
        0,
        1,
        0,
        0,
        0,
        0,
        1,
        0,
        -0.32,
        0.19,
        0,
        1
      ],
      "name": "Shoulder Left",
      "extras": {
        "unitJoint": true
      },
      "children": [
        57
      ]
    },
    {
      "matrix": [
        0.9993302354173859,
        -0.03659286967545317,
        0.00020608141003513626,
        0,
        0.03659286967545317,
        0.9992668257527596,
        -0.011259344515524045,
        0,
        0.00020608141003513626,
        0.011259344515524045,
        0.9999365903353739,
        0,
        0.046,
        -0.105,
        0.061,
        1
      ],
      "name": "Elbow Right Rod",
      "extras": {
        "unitJoint": true,
        "actuator": {
          "target": "Upper Arm Right",
          "point": [
            0.059,
            -0.06,
            0.057
          ],
          "restLength": 0.18,
          "shaft": true
        }
      }
    },
    {
      "matrix": [
        1,
        0,
        0,
        0,
        0,
        1,
        0,
        0,
        0,
        0,
        1,
        0,
        0,
        0.16,
        0.603,
        1
      ],
      "name": "Muzzle",
      "extras": {
        "unitJoint": true,
        "unitMuzzle": true
      }
    },
    {
      "matrix": [
        1,
        0,
        0,
        0,
        0,
        1,
        0,
        0,
        0,
        0,
        1,
        0,
        0,
        -0.11,
        0.055,
        1
      ],
      "name": "Weapon",
      "extras": {
        "unitJoint": true
      },
      "children": [
        60
      ]
    },
    {
      "matrix": [
        1,
        0,
        0,
        0,
        0,
        1,
        0,
        0,
        0,
        0,
        1,
        0,
        0,
        -0.32,
        0,
        1
      ],
      "name": "Hand Right",
      "extras": {
        "unitJoint": true
      },
      "children": [
        61
      ]
    },
    {
      "matrix": [
        1,
        0,
        0,
        0,
        0,
        1,
        0,
        0,
        0,
        0,
        1,
        0,
        0,
        -0.31,
        0,
        1
      ],
      "name": "Forearm Right",
      "extras": {
        "unitJoint": true
      },
      "children": [
        59,
        62
      ]
    },
    {
      "matrix": [
        -0.8263572624444131,
        0.03659286967545359,
        0.5619560807521262,
        0,
        -0.03659286967545359,
        -0.9992668257527593,
        0.011259344515524164,
        0,
        0.5619560807521262,
        -0.011259344515524164,
        0.8270904366916538,
        0,
        0.059,
        -0.06,
        0.057,
        1
      ],
      "name": "Elbow Right Cylinder",
      "extras": {
        "unitJoint": true,
        "actuator": {
          "target": "Forearm Right",
          "point": [
            0.046,
            -0.105,
            0.061
          ],
          "restLength": 0.18,
          "shaft": false
        }
      }
    },
    {
      "matrix": [
        1,
        0,
        0,
        0,
        0,
        1,
        0,
        0,
        0,
        0,
        1,
        0,
        0,
        -0.034,
        0,
        1
      ],
      "name": "Upper Arm Right",
      "extras": {
        "unitJoint": true
      },
      "children": [
        63,
        64
      ]
    },
    {
      "matrix": [
        1,
        0,
        0,
        0,
        0,
        1,
        0,
        0,
        0,
        0,
        1,
        0,
        0.32,
        0.19,
        0,
        1
      ],
      "name": "Shoulder Right",
      "extras": {
        "unitJoint": true
      },
      "children": [
        65
      ]
    },
    {
      "matrix": [
        1,
        0,
        0,
        0,
        0,
        1,
        0,
        0,
        0,
        0,
        1,
        0,
        0,
        0.28,
        0,
        1
      ],
      "name": "Chest",
      "extras": {
        "unitJoint": true
      },
      "children": [
        52,
        58,
        66
      ]
    },
    {
      "matrix": [
        1,
        0,
        0,
        0,
        0,
        1,
        0,
        0,
        0,
        0,
        1,
        0,
        0,
        0.12,
        0,
        1
      ],
      "name": "Spine",
      "extras": {
        "unitJoint": true
      },
      "children": [
        67
      ]
    },
    {
      "matrix": [
        0.9996094539687821,
        0.027945037052808055,
        -0.00012016800960551494,
        0,
        -0.027945037052808055,
        0.9995724791965958,
        -0.008598472939325549,
        0,
        -0.00012016800960551494,
        0.008598472939325549,
        0.9999630252278137,
        0,
        -0.046,
        -0.105,
        0.061,
        1
      ],
      "name": "Knee Left Rod",
      "extras": {
        "unitJoint": true,
        "actuator": {
          "target": "Thigh Left",
          "point": [
            -0.059,
            -0.06,
            0.057
          ],
          "restLength": 0.18,
          "shaft": true
        }
      }
    },
    {
      "matrix": [
        1,
        0,
        0,
        0,
        0,
        1,
        0,
        0,
        0,
        0,
        1,
        0,
        0,
        -0.37,
        0,
        1
      ],
      "name": "Foot Left",
      "extras": {
        "unitJoint": true
      }
    },
    {
      "matrix": [
        1,
        0,
        0,
        0,
        0,
        1,
        0,
        0,
        0,
        0,
        1,
        0,
        0,
        -0.42,
        0,
        1
      ],
      "name": "Shin Left",
      "extras": {
        "unitJoint": true
      },
      "children": [
        69,
        70
      ]
    },
    {
      "matrix": [
        -0.82663648099581,
        -0.027945037052801464,
        -0.5620419941525558,
        0,
        0.027945037052801464,
        -0.9995724791965961,
        0.00859847293932351,
        0,
        -0.5620419941525558,
        -0.00859847293932351,
        0.8270640017992139,
        0,
        -0.059,
        -0.06,
        0.057,
        1
      ],
      "name": "Knee Left Cylinder",
      "extras": {
        "unitJoint": true,
        "actuator": {
          "target": "Shin Left",
          "point": [
            -0.046,
            -0.105,
            0.061
          ],
          "restLength": 0.18,
          "shaft": false
        }
      }
    },
    {
      "matrix": [
        1,
        0,
        0,
        0,
        0,
        1,
        0,
        0,
        0,
        0,
        1,
        0,
        -0.14,
        -0.07,
        0,
        1
      ],
      "name": "Thigh Left",
      "extras": {
        "unitJoint": true
      },
      "children": [
        71,
        72
      ]
    },
    {
      "matrix": [
        0.9996094539687821,
        -0.027945037052808055,
        0.00012016800960551494,
        0,
        0.027945037052808055,
        0.9995724791965958,
        -0.008598472939325549,
        0,
        0.00012016800960551494,
        0.008598472939325549,
        0.9999630252278137,
        0,
        0.046,
        -0.105,
        0.061,
        1
      ],
      "name": "Knee Right Rod",
      "extras": {
        "unitJoint": true,
        "actuator": {
          "target": "Thigh Right",
          "point": [
            0.059,
            -0.06,
            0.057
          ],
          "restLength": 0.18,
          "shaft": true
        }
      }
    },
    {
      "matrix": [
        1,
        0,
        0,
        0,
        0,
        1,
        0,
        0,
        0,
        0,
        1,
        0,
        0,
        -0.37,
        0,
        1
      ],
      "name": "Foot Right",
      "extras": {
        "unitJoint": true
      }
    },
    {
      "matrix": [
        1,
        0,
        0,
        0,
        0,
        1,
        0,
        0,
        0,
        0,
        1,
        0,
        0,
        -0.42,
        0,
        1
      ],
      "name": "Shin Right",
      "extras": {
        "unitJoint": true
      },
      "children": [
        74,
        75
      ]
    },
    {
      "matrix": [
        -0.82663648099581,
        0.027945037052801464,
        0.5620419941525558,
        0,
        -0.027945037052801464,
        -0.9995724791965961,
        0.00859847293932351,
        0,
        0.5620419941525558,
        -0.00859847293932351,
        0.8270640017992139,
        0,
        0.059,
        -0.06,
        0.057,
        1
      ],
      "name": "Knee Right Cylinder",
      "extras": {
        "unitJoint": true,
        "actuator": {
          "target": "Shin Right",
          "point": [
            0.046,
            -0.105,
            0.061
          ],
          "restLength": 0.18,
          "shaft": false
        }
      }
    },
    {
      "matrix": [
        1,
        0,
        0,
        0,
        0,
        1,
        0,
        0,
        0,
        0,
        1,
        0,
        0.14,
        -0.07,
        0,
        1
      ],
      "name": "Thigh Right",
      "extras": {
        "unitJoint": true
      },
      "children": [
        76,
        77
      ]
    },
    {
      "matrix": [
        1,
        0,
        0,
        0,
        0,
        1,
        0,
        0,
        0,
        0,
        1,
        0,
        0,
        0.94,
        0,
        1
      ],
      "name": "Pelvis",
      "extras": {
        "unitJoint": true
      },
      "children": [
        68,
        73,
        78
      ]
    },
    {
      "name": "Combined articulated steel",
      "mesh": 17,
      "skin": 1
    },
    {
      "name": "T-800 Endo Far",
      "extras": {
        "unitTemplateType": "endo",
        "unitAnatomy": {
          "parts": 303,
          "triangles": 11712,
          "joints": [
            "Pelvis",
            "Spine",
            "Chest",
            "Neck",
            "Head",
            "Jaw",
            "Shoulder Left",
            "Upper Arm Left",
            "Forearm Left",
            "Elbow Left Cylinder",
            "Elbow Left Rod",
            "Hand Left",
            "Thigh Left",
            "Shin Left",
            "Knee Left Cylinder",
            "Knee Left Rod",
            "Foot Left",
            "Shoulder Right",
            "Upper Arm Right",
            "Forearm Right",
            "Elbow Right Cylinder",
            "Elbow Right Rod",
            "Hand Right",
            "Thigh Right",
            "Shin Right",
            "Knee Right Cylinder",
            "Knee Right Rod",
            "Foot Right",
            "Weapon",
            "Muzzle"
          ],
          "textureBytes": 0
        },
        "unitAssetDetail": "far"
      },
      "children": [
        79,
        80
      ],
      "extensions": {
        "WEBGI_object3d_extras": {
          "visible": false
        }
      }
    },
    {
      "name": "T-800 Endo Asset",
      "extras": {
        "unitAsset": true,
        "unitTemplateType": "endo"
      },
      "children": [
        40,
        81
      ]
    }
  ],
  "bufferViews": [
    {
      "buffer": 0,
      "byteOffset": 0,
      "byteLength": 1404,
      "target": 34962,
      "byteStride": 12
    },
    {
      "buffer": 0,
      "byteOffset": 1404,
      "byteLength": 1404,
      "target": 34962,
      "byteStride": 12
    },
    {
      "buffer": 0,
      "byteOffset": 2808,
      "byteLength": 936,
      "target": 34962,
      "byteStride": 8
    },
    {
      "buffer": 0,
      "byteOffset": 3744,
      "byteLength": 1008,
      "target": 34963
    },
    {
      "buffer": 0,
      "byteOffset": 4752,
      "byteLength": 48,
      "target": 34962,
      "byteStride": 12
    },
    {
      "buffer": 0,
      "byteOffset": 4800,
      "byteLength": 48,
      "target": 34962,
      "byteStride": 12
    },
    {
      "buffer": 0,
      "byteOffset": 4848,
      "byteLength": 32,
      "target": 34962,
      "byteStride": 8
    },
    {
      "buffer": 0,
      "byteOffset": 4880,
      "byteLength": 12,
      "target": 34963
    },
    {
      "buffer": 0,
      "byteOffset": 4892,
      "byteLength": 48,
      "target": 34962,
      "byteStride": 12
    },
    {
      "buffer": 0,
      "byteOffset": 4940,
      "byteLength": 48,
      "target": 34962,
      "byteStride": 12
    },
    {
      "buffer": 0,
      "byteOffset": 4988,
      "byteLength": 32,
      "target": 34962,
      "byteStride": 8
    },
    {
      "buffer": 0,
      "byteOffset": 5020,
      "byteLength": 12,
      "target": 34963
    },
    {
      "buffer": 0,
      "byteOffset": 5032,
      "byteLength": 48,
      "target": 34962,
      "byteStride": 12
    },
    {
      "buffer": 0,
      "byteOffset": 5080,
      "byteLength": 48,
      "target": 34962,
      "byteStride": 12
    },
    {
      "buffer": 0,
      "byteOffset": 5128,
      "byteLength": 32,
      "target": 34962,
      "byteStride": 8
    },
    {
      "buffer": 0,
      "byteOffset": 5160,
      "byteLength": 12,
      "target": 34963
    },
    {
      "buffer": 0,
      "byteOffset": 5172,
      "byteLength": 1404,
      "target": 34962,
      "byteStride": 12
    },
    {
      "buffer": 0,
      "byteOffset": 6576,
      "byteLength": 1404,
      "target": 34962,
      "byteStride": 12
    },
    {
      "buffer": 0,
      "byteOffset": 7980,
      "byteLength": 936,
      "target": 34962,
      "byteStride": 8
    },
    {
      "buffer": 0,
      "byteOffset": 8916,
      "byteLength": 1008,
      "target": 34963
    },
    {
      "buffer": 0,
      "byteOffset": 9924,
      "byteLength": 48,
      "target": 34962,
      "byteStride": 12
    },
    {
      "buffer": 0,
      "byteOffset": 9972,
      "byteLength": 48,
      "target": 34962,
      "byteStride": 12
    },
    {
      "buffer": 0,
      "byteOffset": 10020,
      "byteLength": 32,
      "target": 34962,
      "byteStride": 8
    },
    {
      "buffer": 0,
      "byteOffset": 10052,
      "byteLength": 12,
      "target": 34963
    },
    {
      "buffer": 0,
      "byteOffset": 10064,
      "byteLength": 48,
      "target": 34962,
      "byteStride": 12
    },
    {
      "buffer": 0,
      "byteOffset": 10112,
      "byteLength": 48,
      "target": 34962,
      "byteStride": 12
    },
    {
      "buffer": 0,
      "byteOffset": 10160,
      "byteLength": 32,
      "target": 34962,
      "byteStride": 8
    },
    {
      "buffer": 0,
      "byteOffset": 10192,
      "byteLength": 12,
      "target": 34963
    },
    {
      "buffer": 0,
      "byteOffset": 10204,
      "byteLength": 48,
      "target": 34962,
      "byteStride": 12
    },
    {
      "buffer": 0,
      "byteOffset": 10252,
      "byteLength": 48,
      "target": 34962,
      "byteStride": 12
    },
    {
      "buffer": 0,
      "byteOffset": 10300,
      "byteLength": 32,
      "target": 34962,
      "byteStride": 8
    },
    {
      "buffer": 0,
      "byteOffset": 10332,
      "byteLength": 12,
      "target": 34963
    },
    {
      "buffer": 0,
      "byteOffset": 10344,
      "byteLength": 917712,
      "target": 34962,
      "byteStride": 12
    },
    {
      "buffer": 0,
      "byteOffset": 928056,
      "byteLength": 917712,
      "target": 34962,
      "byteStride": 12
    },
    {
      "buffer": 0,
      "byteOffset": 1845768,
      "byteLength": 611808,
      "target": 34962,
      "byteStride": 8
    },
    {
      "buffer": 0,
      "byteOffset": 2457576,
      "byteLength": 1223616,
      "target": 34962,
      "byteStride": 16
    },
    {
      "buffer": 0,
      "byteOffset": 3681192,
      "byteLength": 611808,
      "target": 34962,
      "byteStride": 8
    },
    {
      "buffer": 0,
      "byteOffset": 4293000,
      "byteLength": 1404,
      "target": 34962,
      "byteStride": 12
    },
    {
      "buffer": 0,
      "byteOffset": 4294404,
      "byteLength": 1404,
      "target": 34962,
      "byteStride": 12
    },
    {
      "buffer": 0,
      "byteOffset": 4295808,
      "byteLength": 936,
      "target": 34962,
      "byteStride": 8
    },
    {
      "buffer": 0,
      "byteOffset": 4296744,
      "byteLength": 1008,
      "target": 34963
    },
    {
      "buffer": 0,
      "byteOffset": 4297752,
      "byteLength": 48,
      "target": 34962,
      "byteStride": 12
    },
    {
      "buffer": 0,
      "byteOffset": 4297800,
      "byteLength": 48,
      "target": 34962,
      "byteStride": 12
    },
    {
      "buffer": 0,
      "byteOffset": 4297848,
      "byteLength": 32,
      "target": 34962,
      "byteStride": 8
    },
    {
      "buffer": 0,
      "byteOffset": 4297880,
      "byteLength": 12,
      "target": 34963
    },
    {
      "buffer": 0,
      "byteOffset": 4297892,
      "byteLength": 48,
      "target": 34962,
      "byteStride": 12
    },
    {
      "buffer": 0,
      "byteOffset": 4297940,
      "byteLength": 48,
      "target": 34962,
      "byteStride": 12
    },
    {
      "buffer": 0,
      "byteOffset": 4297988,
      "byteLength": 32,
      "target": 34962,
      "byteStride": 8
    },
    {
      "buffer": 0,
      "byteOffset": 4298020,
      "byteLength": 12,
      "target": 34963
    },
    {
      "buffer": 0,
      "byteOffset": 4298032,
      "byteLength": 48,
      "target": 34962,
      "byteStride": 12
    },
    {
      "buffer": 0,
      "byteOffset": 4298080,
      "byteLength": 48,
      "target": 34962,
      "byteStride": 12
    },
    {
      "buffer": 0,
      "byteOffset": 4298128,
      "byteLength": 32,
      "target": 34962,
      "byteStride": 8
    },
    {
      "buffer": 0,
      "byteOffset": 4298160,
      "byteLength": 12,
      "target": 34963
    },
    {
      "buffer": 0,
      "byteOffset": 4298172,
      "byteLength": 1404,
      "target": 34962,
      "byteStride": 12
    },
    {
      "buffer": 0,
      "byteOffset": 4299576,
      "byteLength": 1404,
      "target": 34962,
      "byteStride": 12
    },
    {
      "buffer": 0,
      "byteOffset": 4300980,
      "byteLength": 936,
      "target": 34962,
      "byteStride": 8
    },
    {
      "buffer": 0,
      "byteOffset": 4301916,
      "byteLength": 1008,
      "target": 34963
    },
    {
      "buffer": 0,
      "byteOffset": 4302924,
      "byteLength": 48,
      "target": 34962,
      "byteStride": 12
    },
    {
      "buffer": 0,
      "byteOffset": 4302972,
      "byteLength": 48,
      "target": 34962,
      "byteStride": 12
    },
    {
      "buffer": 0,
      "byteOffset": 4303020,
      "byteLength": 32,
      "target": 34962,
      "byteStride": 8
    },
    {
      "buffer": 0,
      "byteOffset": 4303052,
      "byteLength": 12,
      "target": 34963
    },
    {
      "buffer": 0,
      "byteOffset": 4303064,
      "byteLength": 48,
      "target": 34962,
      "byteStride": 12
    },
    {
      "buffer": 0,
      "byteOffset": 4303112,
      "byteLength": 48,
      "target": 34962,
      "byteStride": 12
    },
    {
      "buffer": 0,
      "byteOffset": 4303160,
      "byteLength": 32,
      "target": 34962,
      "byteStride": 8
    },
    {
      "buffer": 0,
      "byteOffset": 4303192,
      "byteLength": 12,
      "target": 34963
    },
    {
      "buffer": 0,
      "byteOffset": 4303204,
      "byteLength": 48,
      "target": 34962,
      "byteStride": 12
    },
    {
      "buffer": 0,
      "byteOffset": 4303252,
      "byteLength": 48,
      "target": 34962,
      "byteStride": 12
    },
    {
      "buffer": 0,
      "byteOffset": 4303300,
      "byteLength": 32,
      "target": 34962,
      "byteStride": 8
    },
    {
      "buffer": 0,
      "byteOffset": 4303332,
      "byteLength": 12,
      "target": 34963
    },
    {
      "buffer": 0,
      "byteOffset": 4303344,
      "byteLength": 421632,
      "target": 34962,
      "byteStride": 12
    },
    {
      "buffer": 0,
      "byteOffset": 4724976,
      "byteLength": 421632,
      "target": 34962,
      "byteStride": 12
    },
    {
      "buffer": 0,
      "byteOffset": 5146608,
      "byteLength": 281088,
      "target": 34962,
      "byteStride": 8
    },
    {
      "buffer": 0,
      "byteOffset": 5427696,
      "byteLength": 562176,
      "target": 34962,
      "byteStride": 16
    },
    {
      "buffer": 0,
      "byteOffset": 5989872,
      "byteLength": 281088,
      "target": 34962,
      "byteStride": 8
    },
    {
      "buffer": 0,
      "byteOffset": 6270960,
      "byteLength": 1920
    },
    {
      "buffer": 0,
      "byteOffset": 6272880,
      "byteLength": 1920
    }
  ],
  "buffers": [
    {
      "byteLength": 6274800,
      "uri": "endo.bin"
    }
  ],
  "accessors": [
    {
      "bufferView": 0,
      "componentType": 5126,
      "count": 117,
      "max": [
        0.012000000104308128,
        0.012000000104308128,
        0.012000000104308128
      ],
      "min": [
        -0.012000000104308128,
        -0.012000000104308128,
        -0.012000000104308128
      ],
      "type": "VEC3"
    },
    {
      "bufferView": 1,
      "componentType": 5126,
      "count": 117,
      "max": [
        1,
        1,
        1
      ],
      "min": [
        -1,
        -1,
        -1
      ],
      "type": "VEC3"
    },
    {
      "bufferView": 2,
      "componentType": 5126,
      "count": 117,
      "max": [
        1.0416666269302368,
        1
      ],
      "min": [
        -0.0416666679084301,
        0
      ],
      "type": "VEC2"
    },
    {
      "bufferView": 3,
      "componentType": 5123,
      "count": 504,
      "max": [
        116
      ],
      "min": [
        0
      ],
      "type": "SCALAR"
    },
    {
      "bufferView": 4,
      "componentType": 5126,
      "count": 4,
      "max": [
        0.042500000447034836,
        0.042500000447034836,
        0
      ],
      "min": [
        -0.042500000447034836,
        -0.042500000447034836,
        0
      ],
      "type": "VEC3"
    },
    {
      "bufferView": 5,
      "componentType": 5126,
      "count": 4,
      "max": [
        0,
        0,
        1
      ],
      "min": [
        0,
        0,
        1
      ],
      "type": "VEC3"
    },
    {
      "bufferView": 6,
      "componentType": 5126,
      "count": 4,
      "max": [
        1,
        1
      ],
      "min": [
        0,
        0
      ],
      "type": "VEC2"
    },
    {
      "bufferView": 7,
      "componentType": 5123,
      "count": 6,
      "max": [
        3
      ],
      "min": [
        0
      ],
      "type": "SCALAR"
    },
    {
      "bufferView": 8,
      "componentType": 5126,
      "count": 4,
      "max": [
        0.08500000089406967,
        0.004000000189989805,
        0
      ],
      "min": [
        -0.08500000089406967,
        -0.004000000189989805,
        0
      ],
      "type": "VEC3"
    },
    {
      "bufferView": 9,
      "componentType": 5126,
      "count": 4,
      "max": [
        0,
        0,
        1
      ],
      "min": [
        0,
        0,
        1
      ],
      "type": "VEC3"
    },
    {
      "bufferView": 10,
      "componentType": 5126,
      "count": 4,
      "max": [
        1,
        1
      ],
      "min": [
        0,
        0
      ],
      "type": "VEC2"
    },
    {
      "bufferView": 11,
      "componentType": 5123,
      "count": 6,
      "max": [
        3
      ],
      "min": [
        0
      ],
      "type": "SCALAR"
    },
    {
      "bufferView": 12,
      "componentType": 5126,
      "count": 4,
      "max": [
        0.007000000216066837,
        0.007000000216066837,
        0
      ],
      "min": [
        -0.007000000216066837,
        -0.007000000216066837,
        0
      ],
      "type": "VEC3"
    },
    {
      "bufferView": 13,
      "componentType": 5126,
      "count": 4,
      "max": [
        0,
        0,
        1
      ],
      "min": [
        0,
        0,
        1
      ],
      "type": "VEC3"
    },
    {
      "bufferView": 14,
      "componentType": 5126,
      "count": 4,
      "max": [
        1,
        1
      ],
      "min": [
        0,
        0
      ],
      "type": "VEC2"
    },
    {
      "bufferView": 15,
      "componentType": 5123,
      "count": 6,
      "max": [
        3
      ],
      "min": [
        0
      ],
      "type": "SCALAR"
    },
    {
      "bufferView": 16,
      "componentType": 5126,
      "count": 117,
      "max": [
        0.012000000104308128,
        0.012000000104308128,
        0.012000000104308128
      ],
      "min": [
        -0.012000000104308128,
        -0.012000000104308128,
        -0.012000000104308128
      ],
      "type": "VEC3"
    },
    {
      "bufferView": 17,
      "componentType": 5126,
      "count": 117,
      "max": [
        1,
        1,
        1
      ],
      "min": [
        -1,
        -1,
        -1
      ],
      "type": "VEC3"
    },
    {
      "bufferView": 18,
      "componentType": 5126,
      "count": 117,
      "max": [
        1.0416666269302368,
        1
      ],
      "min": [
        -0.0416666679084301,
        0
      ],
      "type": "VEC2"
    },
    {
      "bufferView": 19,
      "componentType": 5123,
      "count": 504,
      "max": [
        116
      ],
      "min": [
        0
      ],
      "type": "SCALAR"
    },
    {
      "bufferView": 20,
      "componentType": 5126,
      "count": 4,
      "max": [
        0.042500000447034836,
        0.042500000447034836,
        0
      ],
      "min": [
        -0.042500000447034836,
        -0.042500000447034836,
        0
      ],
      "type": "VEC3"
    },
    {
      "bufferView": 21,
      "componentType": 5126,
      "count": 4,
      "max": [
        0,
        0,
        1
      ],
      "min": [
        0,
        0,
        1
      ],
      "type": "VEC3"
    },
    {
      "bufferView": 22,
      "componentType": 5126,
      "count": 4,
      "max": [
        1,
        1
      ],
      "min": [
        0,
        0
      ],
      "type": "VEC2"
    },
    {
      "bufferView": 23,
      "componentType": 5123,
      "count": 6,
      "max": [
        3
      ],
      "min": [
        0
      ],
      "type": "SCALAR"
    },
    {
      "bufferView": 24,
      "componentType": 5126,
      "count": 4,
      "max": [
        0.08500000089406967,
        0.004000000189989805,
        0
      ],
      "min": [
        -0.08500000089406967,
        -0.004000000189989805,
        0
      ],
      "type": "VEC3"
    },
    {
      "bufferView": 25,
      "componentType": 5126,
      "count": 4,
      "max": [
        0,
        0,
        1
      ],
      "min": [
        0,
        0,
        1
      ],
      "type": "VEC3"
    },
    {
      "bufferView": 26,
      "componentType": 5126,
      "count": 4,
      "max": [
        1,
        1
      ],
      "min": [
        0,
        0
      ],
      "type": "VEC2"
    },
    {
      "bufferView": 27,
      "componentType": 5123,
      "count": 6,
      "max": [
        3
      ],
      "min": [
        0
      ],
      "type": "SCALAR"
    },
    {
      "bufferView": 28,
      "componentType": 5126,
      "count": 4,
      "max": [
        0.007000000216066837,
        0.007000000216066837,
        0
      ],
      "min": [
        -0.007000000216066837,
        -0.007000000216066837,
        0
      ],
      "type": "VEC3"
    },
    {
      "bufferView": 29,
      "componentType": 5126,
      "count": 4,
      "max": [
        0,
        0,
        1
      ],
      "min": [
        0,
        0,
        1
      ],
      "type": "VEC3"
    },
    {
      "bufferView": 30,
      "componentType": 5126,
      "count": 4,
      "max": [
        1,
        1
      ],
      "min": [
        0,
        0
      ],
      "type": "VEC2"
    },
    {
      "bufferView": 31,
      "componentType": 5123,
      "count": 6,
      "max": [
        3
      ],
      "min": [
        0
      ],
      "type": "SCALAR"
    },
    {
      "bufferView": 32,
      "componentType": 5126,
      "count": 76476,
      "max": [
        0.45764628052711487,
        1.9739999771118164,
        0.6548965573310852
      ],
      "min": [
        -0.45764628052711487,
        0.007364998571574688,
        -0.18693289160728455
      ],
      "type": "VEC3"
    },
    {
      "bufferView": 33,
      "componentType": 5126,
      "count": 76476,
      "max": [
        1,
        1,
        1
      ],
      "min": [
        -1,
        -1,
        -1
      ],
      "type": "VEC3"
    },
    {
      "bufferView": 34,
      "componentType": 5126,
      "count": 76476,
      "max": [
        0.9919999837875366,
        0.9919999837875366
      ],
      "min": [
        0.00800000037997961,
        0.00800000037997961
      ],
      "type": "VEC2"
    },
    {
      "bufferView": 35,
      "componentType": 5126,
      "count": 76476,
      "max": [
        1,
        0,
        0,
        0
      ],
      "min": [
        1,
        0,
        0,
        0
      ],
      "type": "VEC4"
    },
    {
      "bufferView": 36,
      "componentType": 5123,
      "count": 76476,
      "max": [
        28,
        0,
        0,
        0
      ],
      "min": [
        0,
        0,
        0,
        0
      ],
      "type": "VEC4"
    },
    {
      "bufferView": 37,
      "componentType": 5126,
      "count": 117,
      "max": [
        0.012000000104308128,
        0.012000000104308128,
        0.012000000104308128
      ],
      "min": [
        -0.012000000104308128,
        -0.012000000104308128,
        -0.012000000104308128
      ],
      "type": "VEC3"
    },
    {
      "bufferView": 38,
      "componentType": 5126,
      "count": 117,
      "max": [
        1,
        1,
        1
      ],
      "min": [
        -1,
        -1,
        -1
      ],
      "type": "VEC3"
    },
    {
      "bufferView": 39,
      "componentType": 5126,
      "count": 117,
      "max": [
        1.0416666269302368,
        1
      ],
      "min": [
        -0.0416666679084301,
        0
      ],
      "type": "VEC2"
    },
    {
      "bufferView": 40,
      "componentType": 5123,
      "count": 504,
      "max": [
        116
      ],
      "min": [
        0
      ],
      "type": "SCALAR"
    },
    {
      "bufferView": 41,
      "componentType": 5126,
      "count": 4,
      "max": [
        0.042500000447034836,
        0.042500000447034836,
        0
      ],
      "min": [
        -0.042500000447034836,
        -0.042500000447034836,
        0
      ],
      "type": "VEC3"
    },
    {
      "bufferView": 42,
      "componentType": 5126,
      "count": 4,
      "max": [
        0,
        0,
        1
      ],
      "min": [
        0,
        0,
        1
      ],
      "type": "VEC3"
    },
    {
      "bufferView": 43,
      "componentType": 5126,
      "count": 4,
      "max": [
        1,
        1
      ],
      "min": [
        0,
        0
      ],
      "type": "VEC2"
    },
    {
      "bufferView": 44,
      "componentType": 5123,
      "count": 6,
      "max": [
        3
      ],
      "min": [
        0
      ],
      "type": "SCALAR"
    },
    {
      "bufferView": 45,
      "componentType": 5126,
      "count": 4,
      "max": [
        0.08500000089406967,
        0.004000000189989805,
        0
      ],
      "min": [
        -0.08500000089406967,
        -0.004000000189989805,
        0
      ],
      "type": "VEC3"
    },
    {
      "bufferView": 46,
      "componentType": 5126,
      "count": 4,
      "max": [
        0,
        0,
        1
      ],
      "min": [
        0,
        0,
        1
      ],
      "type": "VEC3"
    },
    {
      "bufferView": 47,
      "componentType": 5126,
      "count": 4,
      "max": [
        1,
        1
      ],
      "min": [
        0,
        0
      ],
      "type": "VEC2"
    },
    {
      "bufferView": 48,
      "componentType": 5123,
      "count": 6,
      "max": [
        3
      ],
      "min": [
        0
      ],
      "type": "SCALAR"
    },
    {
      "bufferView": 49,
      "componentType": 5126,
      "count": 4,
      "max": [
        0.007000000216066837,
        0.007000000216066837,
        0
      ],
      "min": [
        -0.007000000216066837,
        -0.007000000216066837,
        0
      ],
      "type": "VEC3"
    },
    {
      "bufferView": 50,
      "componentType": 5126,
      "count": 4,
      "max": [
        0,
        0,
        1
      ],
      "min": [
        0,
        0,
        1
      ],
      "type": "VEC3"
    },
    {
      "bufferView": 51,
      "componentType": 5126,
      "count": 4,
      "max": [
        1,
        1
      ],
      "min": [
        0,
        0
      ],
      "type": "VEC2"
    },
    {
      "bufferView": 52,
      "componentType": 5123,
      "count": 6,
      "max": [
        3
      ],
      "min": [
        0
      ],
      "type": "SCALAR"
    },
    {
      "bufferView": 53,
      "componentType": 5126,
      "count": 117,
      "max": [
        0.012000000104308128,
        0.012000000104308128,
        0.012000000104308128
      ],
      "min": [
        -0.012000000104308128,
        -0.012000000104308128,
        -0.012000000104308128
      ],
      "type": "VEC3"
    },
    {
      "bufferView": 54,
      "componentType": 5126,
      "count": 117,
      "max": [
        1,
        1,
        1
      ],
      "min": [
        -1,
        -1,
        -1
      ],
      "type": "VEC3"
    },
    {
      "bufferView": 55,
      "componentType": 5126,
      "count": 117,
      "max": [
        1.0416666269302368,
        1
      ],
      "min": [
        -0.0416666679084301,
        0
      ],
      "type": "VEC2"
    },
    {
      "bufferView": 56,
      "componentType": 5123,
      "count": 504,
      "max": [
        116
      ],
      "min": [
        0
      ],
      "type": "SCALAR"
    },
    {
      "bufferView": 57,
      "componentType": 5126,
      "count": 4,
      "max": [
        0.042500000447034836,
        0.042500000447034836,
        0
      ],
      "min": [
        -0.042500000447034836,
        -0.042500000447034836,
        0
      ],
      "type": "VEC3"
    },
    {
      "bufferView": 58,
      "componentType": 5126,
      "count": 4,
      "max": [
        0,
        0,
        1
      ],
      "min": [
        0,
        0,
        1
      ],
      "type": "VEC3"
    },
    {
      "bufferView": 59,
      "componentType": 5126,
      "count": 4,
      "max": [
        1,
        1
      ],
      "min": [
        0,
        0
      ],
      "type": "VEC2"
    },
    {
      "bufferView": 60,
      "componentType": 5123,
      "count": 6,
      "max": [
        3
      ],
      "min": [
        0
      ],
      "type": "SCALAR"
    },
    {
      "bufferView": 61,
      "componentType": 5126,
      "count": 4,
      "max": [
        0.08500000089406967,
        0.004000000189989805,
        0
      ],
      "min": [
        -0.08500000089406967,
        -0.004000000189989805,
        0
      ],
      "type": "VEC3"
    },
    {
      "bufferView": 62,
      "componentType": 5126,
      "count": 4,
      "max": [
        0,
        0,
        1
      ],
      "min": [
        0,
        0,
        1
      ],
      "type": "VEC3"
    },
    {
      "bufferView": 63,
      "componentType": 5126,
      "count": 4,
      "max": [
        1,
        1
      ],
      "min": [
        0,
        0
      ],
      "type": "VEC2"
    },
    {
      "bufferView": 64,
      "componentType": 5123,
      "count": 6,
      "max": [
        3
      ],
      "min": [
        0
      ],
      "type": "SCALAR"
    },
    {
      "bufferView": 65,
      "componentType": 5126,
      "count": 4,
      "max": [
        0.007000000216066837,
        0.007000000216066837,
        0
      ],
      "min": [
        -0.007000000216066837,
        -0.007000000216066837,
        0
      ],
      "type": "VEC3"
    },
    {
      "bufferView": 66,
      "componentType": 5126,
      "count": 4,
      "max": [
        0,
        0,
        1
      ],
      "min": [
        0,
        0,
        1
      ],
      "type": "VEC3"
    },
    {
      "bufferView": 67,
      "componentType": 5126,
      "count": 4,
      "max": [
        1,
        1
      ],
      "min": [
        0,
        0
      ],
      "type": "VEC2"
    },
    {
      "bufferView": 68,
      "componentType": 5123,
      "count": 6,
      "max": [
        3
      ],
      "min": [
        0
      ],
      "type": "SCALAR"
    },
    {
      "bufferView": 69,
      "componentType": 5126,
      "count": 35136,
      "max": [
        0.4563367962837219,
        1.9739999771118164,
        0.6543693542480469
      ],
      "min": [
        -0.4563367962837219,
        0.007364998571574688,
        -0.18693289160728455
      ],
      "type": "VEC3"
    },
    {
      "bufferView": 70,
      "componentType": 5126,
      "count": 35136,
      "max": [
        1,
        1,
        1
      ],
      "min": [
        -1,
        -1,
        -1
      ],
      "type": "VEC3"
    },
    {
      "bufferView": 71,
      "componentType": 5126,
      "count": 35136,
      "max": [
        0.9919999837875366,
        0.9919999837875366
      ],
      "min": [
        0.00800000037997961,
        0.00800000037997961
      ],
      "type": "VEC2"
    },
    {
      "bufferView": 72,
      "componentType": 5126,
      "count": 35136,
      "max": [
        1,
        0,
        0,
        0
      ],
      "min": [
        1,
        0,
        0,
        0
      ],
      "type": "VEC4"
    },
    {
      "bufferView": 73,
      "componentType": 5123,
      "count": 35136,
      "max": [
        28,
        0,
        0,
        0
      ],
      "min": [
        0,
        0,
        0,
        0
      ],
      "type": "VEC4"
    },
    {
      "bufferView": 74,
      "componentType": 5126,
      "count": 30,
      "max": [
        1,
        0.03659287095069885,
        0.5620419979095459,
        0,
        0.03659287095069885,
        1,
        0.011259344406425953,
        0,
        0.5620419979095459,
        0.011259344406425953,
        1,
        0,
        0.32621055841445923,
        1.4481741189956665,
        0.03700000047683716,
        1
      ],
      "min": [
        -0.8266364932060242,
        -0.03659287095069885,
        -0.5620419979095459,
        0,
        -0.03659287095069885,
        -0.9995724558830261,
        -0.011259344406425953,
        0,
        -0.5620419979095459,
        -0.011259344406425953,
        0.8270639777183533,
        0,
        -0.32621055841445923,
        -1.75,
        -0.6579999923706055,
        1
      ],
      "type": "MAT4"
    },
    {
      "bufferView": 75,
      "componentType": 5126,
      "count": 30,
      "max": [
        1,
        0.03659287095069885,
        0.5620419979095459,
        0,
        0.03659287095069885,
        1,
        0.011259344406425953,
        0,
        0.5620419979095459,
        0.011259344406425953,
        1,
        0,
        0.32621055841445923,
        1.4481741189956665,
        0.03700000047683716,
        1
      ],
      "min": [
        -0.8266364932060242,
        -0.03659287095069885,
        -0.5620419979095459,
        0,
        -0.03659287095069885,
        -0.9995724558830261,
        -0.011259344406425953,
        0,
        -0.5620419979095459,
        -0.011259344406425953,
        0.8270639777183533,
        0,
        -0.32621055841445923,
        -1.75,
        -0.6579999923706055,
        1
      ],
      "type": "MAT4"
    }
  ],
  "materials": [
    {
      "pbrMetallicRoughness": {
        "baseColorFactor": [
          0.07036009568874305,
          0.002428215868235294,
          0.0009105809505882353,
          1
        ],
        "metallicFactor": 0.65,
        "roughnessFactor": 0.5,
        "baseColorTexture": {
          "index": 3
        },
        "metallicRoughnessTexture": {
          "index": 4
        }
      },
      "emissiveFactor": [
        1,
        0.033104766565152086,
        0.015996293361446288
      ],
      "name": "Machined red optical glass",
      "extensions": {
        "KHR_materials_emissive_strength": {
          "emissiveStrength": 3
        }
      },
      "occlusionTexture": {
        "index": 4
      },
      "normalTexture": {
        "index": 5,
        "scale": 0.55
      },
      "emissiveTexture": {
        "index": 6
      }
    },
    {
      "pbrMetallicRoughness": {
        "baseColorFactor": [
          1,
          0.006048833020386069,
          0.0009105809505882353,
          0.35
        ],
        "metallicFactor": 0,
        "roughnessFactor": 0.9
      },
      "alphaMode": "BLEND",
      "doubleSided": true,
      "name": "Optical scattering",
      "extensions": {
        "KHR_materials_unlit": {}
      }
    },
    {
      "pbrMetallicRoughness": {
        "metallicFactor": 1,
        "roughnessFactor": 1,
        "baseColorTexture": {
          "index": 0
        },
        "metallicRoughnessTexture": {
          "index": 1
        }
      },
      "name": "Endoskeleton 1K worn metal atlas",
      "occlusionTexture": {
        "index": 1
      },
      "normalTexture": {
        "index": 2,
        "scale": 1
      }
    }
  ],
  "meshes": [
    {
      "primitives": [
        {
          "mode": 4,
          "attributes": {
            "POSITION": 0,
            "NORMAL": 1,
            "TEXCOORD_0": 2
          },
          "indices": 3,
          "material": 0
        }
      ]
    },
    {
      "primitives": [
        {
          "mode": 4,
          "attributes": {
            "POSITION": 4,
            "NORMAL": 5,
            "TEXCOORD_0": 6
          },
          "indices": 7,
          "material": 1
        }
      ]
    },
    {
      "primitives": [
        {
          "mode": 4,
          "attributes": {
            "POSITION": 8,
            "NORMAL": 9,
            "TEXCOORD_0": 10
          },
          "indices": 11,
          "material": 1
        }
      ]
    },
    {
      "primitives": [
        {
          "mode": 4,
          "attributes": {
            "POSITION": 12,
            "NORMAL": 13,
            "TEXCOORD_0": 14
          },
          "indices": 15,
          "material": 1
        }
      ]
    },
    {
      "primitives": [
        {
          "mode": 4,
          "attributes": {
            "POSITION": 16,
            "NORMAL": 17,
            "TEXCOORD_0": 18
          },
          "indices": 19,
          "material": 0
        }
      ]
    },
    {
      "primitives": [
        {
          "mode": 4,
          "attributes": {
            "POSITION": 20,
            "NORMAL": 21,
            "TEXCOORD_0": 22
          },
          "indices": 23,
          "material": 1
        }
      ]
    },
    {
      "primitives": [
        {
          "mode": 4,
          "attributes": {
            "POSITION": 24,
            "NORMAL": 25,
            "TEXCOORD_0": 26
          },
          "indices": 27,
          "material": 1
        }
      ]
    },
    {
      "primitives": [
        {
          "mode": 4,
          "attributes": {
            "POSITION": 28,
            "NORMAL": 29,
            "TEXCOORD_0": 30
          },
          "indices": 31,
          "material": 1
        }
      ]
    },
    {
      "primitives": [
        {
          "mode": 4,
          "attributes": {
            "POSITION": 32,
            "NORMAL": 33,
            "TEXCOORD_0": 34,
            "WEIGHTS_0": 35,
            "JOINTS_0": 36
          },
          "material": 2
        }
      ]
    },
    {
      "primitives": [
        {
          "mode": 4,
          "attributes": {
            "POSITION": 37,
            "NORMAL": 38,
            "TEXCOORD_0": 39
          },
          "indices": 40,
          "material": 0
        }
      ]
    },
    {
      "primitives": [
        {
          "mode": 4,
          "attributes": {
            "POSITION": 41,
            "NORMAL": 42,
            "TEXCOORD_0": 43
          },
          "indices": 44,
          "material": 1
        }
      ]
    },
    {
      "primitives": [
        {
          "mode": 4,
          "attributes": {
            "POSITION": 45,
            "NORMAL": 46,
            "TEXCOORD_0": 47
          },
          "indices": 48,
          "material": 1
        }
      ]
    },
    {
      "primitives": [
        {
          "mode": 4,
          "attributes": {
            "POSITION": 49,
            "NORMAL": 50,
            "TEXCOORD_0": 51
          },
          "indices": 52,
          "material": 1
        }
      ]
    },
    {
      "primitives": [
        {
          "mode": 4,
          "attributes": {
            "POSITION": 53,
            "NORMAL": 54,
            "TEXCOORD_0": 55
          },
          "indices": 56,
          "material": 0
        }
      ]
    },
    {
      "primitives": [
        {
          "mode": 4,
          "attributes": {
            "POSITION": 57,
            "NORMAL": 58,
            "TEXCOORD_0": 59
          },
          "indices": 60,
          "material": 1
        }
      ]
    },
    {
      "primitives": [
        {
          "mode": 4,
          "attributes": {
            "POSITION": 61,
            "NORMAL": 62,
            "TEXCOORD_0": 63
          },
          "indices": 64,
          "material": 1
        }
      ]
    },
    {
      "primitives": [
        {
          "mode": 4,
          "attributes": {
            "POSITION": 65,
            "NORMAL": 66,
            "TEXCOORD_0": 67
          },
          "indices": 68,
          "material": 1
        }
      ]
    },
    {
      "primitives": [
        {
          "mode": 4,
          "attributes": {
            "POSITION": 69,
            "NORMAL": 70,
            "TEXCOORD_0": 71,
            "WEIGHTS_0": 72,
            "JOINTS_0": 73
          },
          "material": 2
        }
      ]
    }
  ],
  "skins": [
    {
      "inverseBindMatrices": 74,
      "joints": [
        38,
        27,
        26,
        11,
        10,
        0,
        17,
        16,
        14,
        15,
        12,
        13,
        32,
        30,
        31,
        28,
        29,
        25,
        24,
        22,
        23,
        18,
        21,
        37,
        35,
        36,
        33,
        34,
        20,
        19
      ],
      "skeleton": 38
    },
    {
      "inverseBindMatrices": 75,
      "joints": [
        79,
        68,
        67,
        52,
        51,
        41,
        58,
        57,
        55,
        56,
        53,
        54,
        73,
        71,
        72,
        69,
        70,
        66,
        65,
        63,
        64,
        59,
        62,
        78,
        76,
        77,
        74,
        75,
        61,
        60
      ],
      "skeleton": 79
    }
  ],
  "extensionsUsed": [
    "KHR_materials_emissive_strength",
    "KHR_materials_unlit",
    "WEBGI_object3d_extras"
  ],
  "images": [
    {
      "name": "textures/units/endoskeleton-albedo.jpg",
      "uri": "textures/units/endoskeleton-albedo.jpg"
    },
    {
      "name": "textures/units/endoskeleton-orm.png",
      "uri": "textures/units/endoskeleton-orm.png"
    },
    {
      "name": "textures/units/endoskeleton-normal.png",
      "uri": "textures/units/endoskeleton-normal.png"
    },
    {
      "name": "textures/units/optic-albedo.png",
      "uri": "textures/units/optic-albedo.png"
    },
    {
      "name": "textures/units/optic-orm.png",
      "uri": "textures/units/optic-orm.png"
    },
    {
      "name": "textures/units/optic-normal.png",
      "uri": "textures/units/optic-normal.png"
    },
    {
      "name": "textures/units/optic-emissive.png",
      "uri": "textures/units/optic-emissive.png"
    }
  ],
  "textures": [
    {
      "name": "textures/units/endoskeleton-albedo.jpg",
      "source": 0
    },
    {
      "name": "textures/units/endoskeleton-orm.png",
      "source": 1
    },
    {
      "name": "textures/units/endoskeleton-normal.png",
      "source": 2
    },
    {
      "name": "textures/units/optic-albedo.png",
      "source": 3
    },
    {
      "name": "textures/units/optic-orm.png",
      "source": 4
    },
    {
      "name": "textures/units/optic-normal.png",
      "source": 5
    },
    {
      "name": "textures/units/optic-emissive.png",
      "source": 6
    }
  ]
}
