{
  "asset": {
    "generator": "Khronos glTF Blender I/O v5.2.40",
    "version": "2.0"
  },
  "scene": 0,
  "scenes": [
    {
      "name": "Scene",
      "nodes": [
        1
      ]
    }
  ],
  "nodes": [
    {
      "mesh": 0,
      "name": "Revolver"
    },
    {
      "children": [
        0
      ],
      "name": "detective-cc0 display"
    }
  ],
  "materials": [
    {
      "doubleSided": true,
      "name": "Candidate revolver detective-cc0 main",
      "normalTexture": {
        "index": 0
      },
      "pbrMetallicRoughness": {
        "baseColorTexture": {
          "index": 1
        },
        "metallicRoughnessTexture": {
          "index": 2
        }
      },
      "occlusionTexture": {
        "index": 2,
        "strength": 1
      }
    },
    {
      "doubleSided": true,
      "name": "Candidate revolver detective-cc0 bullet",
      "normalTexture": {
        "index": 3
      },
      "pbrMetallicRoughness": {
        "baseColorTexture": {
          "index": 4
        },
        "metallicRoughnessTexture": {
          "index": 5
        }
      },
      "occlusionTexture": {
        "index": 5,
        "strength": 1
      }
    }
  ],
  "meshes": [
    {
      "name": "Revolver.001",
      "primitives": [
        {
          "attributes": {
            "POSITION": 0,
            "NORMAL": 1,
            "TEXCOORD_0": 2
          },
          "indices": 3,
          "material": 0
        },
        {
          "attributes": {
            "POSITION": 4,
            "NORMAL": 5,
            "TEXCOORD_0": 6
          },
          "indices": 7,
          "material": 1
        }
      ]
    }
  ],
  "textures": [
    {
      "sampler": 0,
      "source": 0
    },
    {
      "sampler": 0,
      "source": 1
    },
    {
      "sampler": 0,
      "source": 2
    },
    {
      "sampler": 0,
      "source": 3
    },
    {
      "sampler": 0,
      "source": 4
    },
    {
      "sampler": 0,
      "source": 5
    }
  ],
  "images": [
    {
      "mimeType": "image/png",
      "name": "main-normal",
      "uri": "main-normal.png"
    },
    {
      "mimeType": "image/png",
      "name": "main-albedo",
      "uri": "main-albedo.png"
    },
    {
      "mimeType": "image/png",
      "name": "main-orm",
      "uri": "main-orm.png"
    },
    {
      "mimeType": "image/png",
      "name": "bullet-normal",
      "uri": "bullet-normal.png"
    },
    {
      "mimeType": "image/png",
      "name": "bullet-albedo",
      "uri": "bullet-albedo.png"
    },
    {
      "mimeType": "image/png",
      "name": "bullet-orm",
      "uri": "bullet-orm.png"
    }
  ],
  "accessors": [
    {
      "bufferView": 0,
      "componentType": 5126,
      "count": 2425,
      "max": [
        0.0237855464220047,
        0.11559383571147919,
        0.0197184756398201
      ],
      "min": [
        -0.16621443629264832,
        -0.014844287186861038,
        -0.019690297544002533
      ],
      "type": "VEC3"
    },
    {
      "bufferView": 1,
      "componentType": 5126,
      "count": 2425,
      "type": "VEC3"
    },
    {
      "bufferView": 2,
      "componentType": 5126,
      "count": 2425,
      "type": "VEC2"
    },
    {
      "bufferView": 3,
      "componentType": 5123,
      "count": 9276,
      "type": "SCALAR"
    },
    {
      "bufferView": 4,
      "componentType": 5126,
      "count": 972,
      "max": [
        -0.06343293190002441,
        0.10700054466724396,
        0.016564561054110527
      ],
      "min": [
        -0.10174190998077393,
        0.07058095932006836,
        -0.01655031554400921
      ],
      "type": "VEC3"
    },
    {
      "bufferView": 5,
      "componentType": 5126,
      "count": 972,
      "type": "VEC3"
    },
    {
      "bufferView": 6,
      "componentType": 5126,
      "count": 972,
      "type": "VEC2"
    },
    {
      "bufferView": 7,
      "componentType": 5123,
      "count": 4536,
      "type": "SCALAR"
    }
  ],
  "bufferViews": [
    {
      "buffer": 0,
      "byteLength": 29100,
      "byteOffset": 0,
      "target": 34962
    },
    {
      "buffer": 0,
      "byteLength": 29100,
      "byteOffset": 29100,
      "target": 34962
    },
    {
      "buffer": 0,
      "byteLength": 19400,
      "byteOffset": 58200,
      "target": 34962
    },
    {
      "buffer": 0,
      "byteLength": 18552,
      "byteOffset": 77600,
      "target": 34963
    },
    {
      "buffer": 0,
      "byteLength": 11664,
      "byteOffset": 96152,
      "target": 34962
    },
    {
      "buffer": 0,
      "byteLength": 11664,
      "byteOffset": 107816,
      "target": 34962
    },
    {
      "buffer": 0,
      "byteLength": 7776,
      "byteOffset": 119480,
      "target": 34962
    },
    {
      "buffer": 0,
      "byteLength": 9072,
      "byteOffset": 127256,
      "target": 34963
    }
  ],
  "samplers": [
    {
      "magFilter": 9729,
      "minFilter": 9987
    }
  ],
  "buffers": [
    {
      "byteLength": 136328,
      "uri": "detective-cc0.bin"
    }
  ]
}
