{
  "accessors": [
    {
      "bufferView": 2,
      "componentType": 5126,
      "count": 1419,
      "max": [
        36.59819793701172,
        161.8539276123047,
        125.20794677734375
      ],
      "min": [
        -38.989707946777344,
        -163.71810913085938,
        -4.264750003814697
      ],
      "type": "VEC3"
    },
    {
      "bufferView": 2,
      "byteOffset": 17028,
      "componentType": 5126,
      "count": 1419,
      "max": [
        0.9998038411140442,
        0.9999520778656006,
        0.9996310472488403
      ],
      "min": [
        -0.9999247789382935,
        -0.9990625977516174,
        -0.9984480142593384
      ],
      "type": "VEC3"
    },
    {
      "bufferView": 1,
      "componentType": 5126,
      "count": 1419,
      "max": [
        0.9951539635658264,
        0.9987601041793823
      ],
      "min": [
        0.008392281830310822,
        0.010897134430706501
      ],
      "type": "VEC2"
    },
    {
      "bufferView": 1,
      "byteOffset": 11352,
      "componentType": 5126,
      "count": 1419,
      "max": [
        0.9951539635658264,
        0.9987601041793823
      ],
      "min": [
        0.008392281830310822,
        0.010897134430706501
      ],
      "type": "VEC2"
    },
    {
      "bufferView": 0,
      "componentType": 5125,
      "count": 7290,
      "type": "SCALAR"
    },
    {
      "bufferView": 2,
      "byteOffset": 34056,
      "componentType": 5126,
      "count": 1419,
      "max": [
        36.59819793701172,
        161.8539276123047,
        125.20794677734375
      ],
      "min": [
        -38.989707946777344,
        -163.71810913085938,
        -4.264750003814697
      ],
      "type": "VEC3"
    },
    {
      "bufferView": 2,
      "byteOffset": 51084,
      "componentType": 5126,
      "count": 1419,
      "max": [
        0.9998038411140442,
        0.9999520778656006,
        0.9996310472488403
      ],
      "min": [
        -0.9999247789382935,
        -0.9990625977516174,
        -0.9984480142593384
      ],
      "type": "VEC3"
    },
    {
      "bufferView": 1,
      "byteOffset": 22704,
      "componentType": 5126,
      "count": 1419,
      "max": [
        0.9951539635658264,
        0.9987601041793823
      ],
      "min": [
        0.008392281830310822,
        0.010897134430706501
      ],
      "type": "VEC2"
    },
    {
      "bufferView": 1,
      "byteOffset": 34056,
      "componentType": 5126,
      "count": 1419,
      "max": [
        0.9951539635658264,
        0.9987601041793823
      ],
      "min": [
        0.008392281830310822,
        0.010897134430706501
      ],
      "type": "VEC2"
    },
    {
      "bufferView": 0,
      "byteOffset": 29160,
      "componentType": 5125,
      "count": 7290,
      "type": "SCALAR"
    },
    {
      "bufferView": 3,
      "componentType": 5126,
      "count": 1,
      "max": [
        0.0
      ],
      "min": [
        0.0
      ],
      "type": "SCALAR"
    },
    {
      "bufferView": 4,
      "componentType": 5126,
      "count": 1,
      "max": [
        -0.5241794586181641,
        0.4745646119117737,
        0.47433289885520935,
        0.5244355201721191
      ],
      "min": [
        -0.5241794586181641,
        0.4745646119117737,
        0.47433289885520935,
        0.5244355201721191
      ],
      "type": "VEC4"
    },
    {
      "bufferView": 3,
      "byteOffset": 4,
      "componentType": 5126,
      "count": 1,
      "max": [
        0.0
      ],
      "min": [
        0.0
      ],
      "type": "SCALAR"
    },
    {
      "bufferView": 4,
      "byteOffset": 16,
      "componentType": 5126,
      "count": 1,
      "max": [
        -0.5241794586181641,
        0.4745646119117737,
        0.47433289885520935,
        0.5244355201721191
      ],
      "min": [
        -0.5241794586181641,
        0.4745646119117737,
        0.47433289885520935,
        0.5244355201721191
      ],
      "type": "VEC4"
    }
  ],
  "asset": {
    "extras": {
      "author": "usedm (https://sketchfab.com/usedm)",
      "license": "CC-BY-4.0 (http://creativecommons.org/licenses/by/4.0/)",
      "source": "https://sketchfab.com/3d-models/sandbags-b917a79cdc884eee9d44018c38b4df5e",
      "title": "Sandbags"
    },
    "generator": "Sketchfab-16.74.0",
    "version": "2.0",
    "copyright": "Sandbags by usedm (https://sketchfab.com/usedm); CC-BY-4.0; https://sketchfab.com/3d-models/sandbags-b917a79cdc884eee9d44018c38b4df5e"
  },
  "bufferViews": [
    {
      "buffer": 0,
      "byteLength": 58320,
      "name": "floatBufferViews",
      "target": 34963
    },
    {
      "buffer": 0,
      "byteLength": 45408,
      "byteOffset": 58320,
      "byteStride": 8,
      "name": "floatBufferViews",
      "target": 34962
    },
    {
      "buffer": 0,
      "byteLength": 68112,
      "byteOffset": 103728,
      "byteStride": 12,
      "name": "floatBufferViews",
      "target": 34962
    },
    {
      "buffer": 0,
      "byteLength": 8,
      "byteOffset": 171840,
      "name": "floatBufferViews"
    },
    {
      "buffer": 0,
      "byteLength": 32,
      "byteOffset": 171848,
      "byteStride": 16,
      "name": "floatBufferViews"
    }
  ],
  "buffers": [
    {
      "byteLength": 171880,
      "uri": "/kite3d/assets/models/selected/b917a79cdc884eee9d44018c38b4df5e/scene.bin"
    }
  ],
  "images": [
    {
      "uri": "/kite3d/assets/models/selected/b917a79cdc884eee9d44018c38b4df5e/Material_38_baseColor.png"
    }
  ],
  "materials": [
    {
      "doubleSided": true,
      "name": "Selected sandbags 1: Material_38",
      "pbrMetallicRoughness": {
        "baseColorTexture": {
          "index": 0
        },
        "metallicFactor": 0.0,
        "roughnessFactor": 0.8929713596497552
      }
    }
  ],
  "meshes": [
    {
      "name": "model_lod0_Material #38_0",
      "primitives": [
        {
          "attributes": {
            "NORMAL": 1,
            "POSITION": 0,
            "TEXCOORD_0": 2,
            "TEXCOORD_1": 3
          },
          "indices": 4,
          "material": 0,
          "mode": 4
        }
      ]
    }
  ],
  "nodes": [
    {
      "children": [
        1
      ],
      "matrix": [
        1.0,
        0.0,
        0.0,
        0.0,
        0.0,
        2.220446049250313e-16,
        -1.0,
        0.0,
        0.0,
        1.0,
        2.220446049250313e-16,
        0.0,
        0.0,
        0.0,
        0.0,
        1.0
      ],
      "name": "Sketchfab_model"
    },
    {
      "children": [
        2
      ],
      "matrix": [
        0.02539999969303608,
        0.0,
        0.0,
        0.0,
        0.0,
        0.0,
        0.02539999969303608,
        0.0,
        0.0,
        -0.02539999969303608,
        0.0,
        0.0,
        0.0,
        0.0,
        0.0,
        1.0
      ],
      "name": "sandbags.fbx"
    },
    {
      "children": [
        3
      ],
      "name": "Object_2"
    },
    {
      "children": [
        4,
        6
      ],
      "name": "RootNode"
    },
    {
      "children": [
        5
      ],
      "name": "model_lod0",
      "rotation": [
        -0.5241794586181641,
        0.47433289885520935,
        0.4745646119117737,
        0.5244355201721191
      ],
      "scale": [
        0.3937009871006012,
        0.3937009871006012,
        0.3937009871006012
      ]
    },
    {
      "mesh": 0,
      "name": "model_lod0_Material #38_0"
    },
    {
      "children": [
        7
      ],
      "name": "model_lod001",
      "rotation": [
        -0.5241794586181641,
        0.47433289885520935,
        0.4745646119117737,
        0.5244355201721191
      ],
      "scale": [
        0.3937009871006012,
        0.3937009871006012,
        0.3937009871006012
      ],
      "translation": [
        -126.9849853515625,
        0.0,
        0.0
      ]
    },
    {
      "name": "model_lod001_Material #25_0"
    }
  ],
  "samplers": [
    {
      "magFilter": 9729,
      "minFilter": 9987,
      "wrapS": 10497,
      "wrapT": 10497
    }
  ],
  "scene": 0,
  "scenes": [
    {
      "name": "Sketchfab_Scene",
      "nodes": [
        0
      ]
    }
  ],
  "textures": [
    {
      "sampler": 0,
      "source": 0
    }
  ]
}
