{
  "asset": {
    "generator": "Terminator tools/build-map-assets.mjs with glTF-Transform 4.5.0 and three.js",
    "version": "2.0"
  },
  "accessors": [
    {
      "name": "Barrel rust POSITION",
      "type": "VEC3",
      "componentType": 5126,
      "count": 192,
      "max": [
        0.39500001072883606,
        0.6419999599456787,
        0.39500001072883606
      ],
      "min": [
        -0.39500001072883606,
        -0.6200000047683716,
        -0.39500001072883606
      ],
      "bufferView": 0,
      "byteOffset": 0
    },
    {
      "name": "Barrel rust NORMAL",
      "type": "VEC3",
      "componentType": 5126,
      "count": 192,
      "bufferView": 0,
      "byteOffset": 12
    },
    {
      "name": "Barrel rust TEXCOORD_0",
      "type": "VEC2",
      "componentType": 5126,
      "count": 192,
      "bufferView": 0,
      "byteOffset": 24
    },
    {
      "name": "Barrel steel POSITION",
      "type": "VEC3",
      "componentType": 5126,
      "count": 768,
      "max": [
        0.39500001072883606,
        0.6150000095367432,
        0.39500001072883606
      ],
      "min": [
        -0.39500001072883606,
        -0.5249999761581421,
        -0.39500001072883606
      ],
      "bufferView": 1,
      "byteOffset": 0
    },
    {
      "name": "Barrel steel NORMAL",
      "type": "VEC3",
      "componentType": 5126,
      "count": 768,
      "bufferView": 1,
      "byteOffset": 12
    },
    {
      "name": "Barrel steel TEXCOORD_0",
      "type": "VEC2",
      "componentType": 5126,
      "count": 768,
      "bufferView": 1,
      "byteOffset": 24
    }
  ],
  "bufferViews": [
    {
      "buffer": 0,
      "byteOffset": 0,
      "byteLength": 6144,
      "byteStride": 32,
      "target": 34962
    },
    {
      "buffer": 0,
      "byteOffset": 6144,
      "byteLength": 24576,
      "byteStride": 32,
      "target": 34962
    }
  ],
  "samplers": [
    {
      "wrapS": 10497,
      "wrapT": 10497
    }
  ],
  "textures": [
    {
      "source": 0,
      "sampler": 0
    },
    {
      "source": 1,
      "sampler": 0
    },
    {
      "source": 2,
      "sampler": 0
    },
    {
      "source": 3,
      "sampler": 0
    },
    {
      "source": 4,
      "sampler": 0
    },
    {
      "source": 5,
      "sampler": 0
    }
  ],
  "images": [
    {
      "name": "rusty_metal_02_diff_1k.jpg",
      "mimeType": "image/jpeg",
      "uri": "/kite3d/assets/textures/map/rusty_metal_02_diff_1k.jpg"
    },
    {
      "name": "rusty_metal_02_nor_gl_1k.jpg",
      "mimeType": "image/jpeg",
      "uri": "/kite3d/assets/textures/map/rusty_metal_02_nor_gl_1k.jpg"
    },
    {
      "name": "rusty_metal_02_arm_1k.jpg",
      "mimeType": "image/jpeg",
      "uri": "/kite3d/assets/textures/map/rusty_metal_02_arm_1k.jpg"
    },
    {
      "name": "paint_albedo.jpg",
      "mimeType": "image/jpeg",
      "uri": "/kite3d/assets/textures/map/paint_albedo.jpg"
    },
    {
      "name": "paint_normal.jpg",
      "mimeType": "image/jpeg",
      "uri": "/kite3d/assets/textures/map/paint_normal.jpg"
    },
    {
      "name": "paint_arm.jpg",
      "mimeType": "image/jpeg",
      "uri": "/kite3d/assets/textures/map/paint_arm.jpg"
    }
  ],
  "buffers": [
    {
      "name": "Map piece geometry",
      "uri": "barrel-0p8x1p3x0p8-103qszk.bin",
      "byteLength": 30720
    }
  ],
  "materials": [
    {
      "name": "Map rust",
      "pbrMetallicRoughness": {
        "baseColorFactor": [
          0.48,
          0.3,
          0.18,
          1
        ],
        "roughnessFactor": 0.92,
        "metallicFactor": 0.42,
        "baseColorTexture": {
          "index": 0
        },
        "metallicRoughnessTexture": {
          "index": 2
        }
      },
      "normalTexture": {
        "index": 1
      },
      "occlusionTexture": {
        "index": 2
      }
    },
    {
      "name": "Map steel",
      "pbrMetallicRoughness": {
        "baseColorFactor": [
          0.44,
          0.49,
          0.51,
          1
        ],
        "roughnessFactor": 0.68,
        "metallicFactor": 0.82,
        "baseColorTexture": {
          "index": 3
        },
        "metallicRoughnessTexture": {
          "index": 5
        }
      },
      "normalTexture": {
        "index": 4
      },
      "occlusionTexture": {
        "index": 5
      }
    }
  ],
  "meshes": [
    {
      "name": "Barrel rust",
      "primitives": [
        {
          "attributes": {
            "POSITION": 0,
            "NORMAL": 1,
            "TEXCOORD_0": 2
          },
          "mode": 4,
          "material": 0
        }
      ]
    },
    {
      "name": "Barrel steel",
      "primitives": [
        {
          "attributes": {
            "POSITION": 3,
            "NORMAL": 4,
            "TEXCOORD_0": 5
          },
          "mode": 4,
          "material": 1
        }
      ]
    }
  ],
  "nodes": [
    {
      "name": "Barrel asset",
      "extras": {
        "mapPieceAsset": true
      },
      "children": [
        1,
        2
      ]
    },
    {
      "name": "Barrel rust",
      "extras": {
        "material": "rust"
      },
      "mesh": 0
    },
    {
      "name": "Barrel steel",
      "extras": {
        "material": "steel"
      },
      "mesh": 1
    }
  ],
  "scenes": [
    {
      "name": "Barrel 0p8x1p3x0p8 103qszk",
      "nodes": [
        0
      ]
    }
  ]
}
