{
  "accessors": [
    {
      "bufferView": 2,
      "componentType": 5126,
      "count": 600,
      "max": [
        0.9545686841011047,
        1.064453125,
        1.1174756288528442
      ],
      "min": [
        -1.1185498237609863,
        -1.0086653232574463,
        -0.964756429195404
      ],
      "type": "VEC3"
    },
    {
      "bufferView": 2,
      "byteOffset": 7200,
      "componentType": 5126,
      "count": 600,
      "max": [
        1.0,
        1.0,
        1.0
      ],
      "min": [
        -1.0,
        -1.0,
        -1.0
      ],
      "type": "VEC3"
    },
    {
      "bufferView": 1,
      "componentType": 5126,
      "count": 600,
      "max": [
        0.9978058934211731,
        0.9980780482292175
      ],
      "min": [
        0.005098789930343628,
        0.0035872943699359894
      ],
      "type": "VEC2"
    },
    {
      "bufferView": 0,
      "componentType": 5125,
      "count": 1140,
      "type": "SCALAR"
    },
    {
      "bufferView": 2,
      "byteOffset": 14400,
      "componentType": 5126,
      "count": 600,
      "max": [
        0.9545686841011047,
        1.064453125,
        1.1174756288528442
      ],
      "min": [
        -1.1185498237609863,
        -1.0086653232574463,
        -0.964756429195404
      ],
      "type": "VEC3"
    },
    {
      "bufferView": 2,
      "byteOffset": 21600,
      "componentType": 5126,
      "count": 600,
      "max": [
        1.0,
        1.0,
        1.0
      ],
      "min": [
        -1.0,
        -1.0,
        -1.0
      ],
      "type": "VEC3"
    },
    {
      "bufferView": 1,
      "byteOffset": 4800,
      "componentType": 5126,
      "count": 600,
      "max": [
        0.9978058934211731,
        0.9980780482292175
      ],
      "min": [
        0.005098789930343628,
        0.007408276200294495
      ],
      "type": "VEC2"
    },
    {
      "bufferView": 0,
      "byteOffset": 4560,
      "componentType": 5125,
      "count": 1140,
      "type": "SCALAR"
    },
    {
      "bufferView": 2,
      "byteOffset": 28800,
      "componentType": 5126,
      "count": 600,
      "max": [
        0.9545686841011047,
        1.064453125,
        1.1174756288528442
      ],
      "min": [
        -1.1185498237609863,
        -1.0086653232574463,
        -0.964756429195404
      ],
      "type": "VEC3"
    },
    {
      "bufferView": 2,
      "byteOffset": 36000,
      "componentType": 5126,
      "count": 600,
      "max": [
        1.0,
        1.0,
        1.0
      ],
      "min": [
        -1.0,
        -1.0,
        -1.0
      ],
      "type": "VEC3"
    },
    {
      "bufferView": 1,
      "byteOffset": 9600,
      "componentType": 5126,
      "count": 600,
      "max": [
        0.9978058934211731,
        0.9980780482292175
      ],
      "min": [
        0.005098789930343628,
        0.009027251042425632
      ],
      "type": "VEC2"
    },
    {
      "bufferView": 0,
      "byteOffset": 9120,
      "componentType": 5125,
      "count": 1140,
      "type": "SCALAR"
    },
    {
      "bufferView": 2,
      "byteOffset": 43200,
      "componentType": 5126,
      "count": 600,
      "max": [
        0.9545686841011047,
        1.064453125,
        1.1174756288528442
      ],
      "min": [
        -1.1185498237609863,
        -1.0086653232574463,
        -0.964756429195404
      ],
      "type": "VEC3"
    },
    {
      "bufferView": 2,
      "byteOffset": 50400,
      "componentType": 5126,
      "count": 600,
      "max": [
        1.0,
        1.0,
        1.0
      ],
      "min": [
        -1.0,
        -1.0,
        -1.0
      ],
      "type": "VEC3"
    },
    {
      "bufferView": 1,
      "byteOffset": 14400,
      "componentType": 5126,
      "count": 600,
      "max": [
        0.9986968040466309,
        0.9980780482292175
      ],
      "min": [
        0.005098789930343628,
        0.004883334040641785
      ],
      "type": "VEC2"
    },
    {
      "bufferView": 0,
      "byteOffset": 13680,
      "componentType": 5125,
      "count": 1140,
      "type": "SCALAR"
    },
    {
      "bufferView": 2,
      "byteOffset": 57600,
      "componentType": 5126,
      "count": 600,
      "max": [
        0.9545686841011047,
        1.064453125,
        1.1174756288528442
      ],
      "min": [
        -1.1185498237609863,
        -1.0086653232574463,
        -0.964756429195404
      ],
      "type": "VEC3"
    },
    {
      "bufferView": 2,
      "byteOffset": 64800,
      "componentType": 5126,
      "count": 600,
      "max": [
        1.0,
        1.0,
        1.0
      ],
      "min": [
        -1.0,
        -1.0,
        -1.0
      ],
      "type": "VEC3"
    },
    {
      "bufferView": 1,
      "byteOffset": 19200,
      "componentType": 5126,
      "count": 600,
      "max": [
        0.9978058934211731,
        0.9980780482292175
      ],
      "min": [
        0.005098789930343628,
        0.002098292112350464
      ],
      "type": "VEC2"
    },
    {
      "bufferView": 0,
      "byteOffset": 18240,
      "componentType": 5125,
      "count": 1140,
      "type": "SCALAR"
    }
  ],
  "asset": {
    "extras": {
      "author": "Vlaxled (https://sketchfab.com/Vo_plex)",
      "license": "CC-BY-4.0 (http://creativecommons.org/licenses/by/4.0/)",
      "source": "https://sketchfab.com/3d-models/barrel-pack-low-poly-props-99483dc2d26548e1955898b063ad87cb",
      "title": "Barrel Pack - Low Poly Props"
    },
    "generator": "Sketchfab-0.3.0",
    "version": "2.0",
    "copyright": "Barrel Pack - Low Poly Props by Vlaxled (https://sketchfab.com/Vo_plex); CC-BY-4.0; https://sketchfab.com/3d-models/barrel-pack-low-poly-props-99483dc2d26548e1955898b063ad87cb"
  },
  "bufferViews": [
    {
      "buffer": 0,
      "byteLength": 22800,
      "name": "floatBufferViews",
      "target": 34963
    },
    {
      "buffer": 0,
      "byteLength": 24000,
      "byteOffset": 22800,
      "byteStride": 8,
      "name": "floatBufferViews",
      "target": 34962
    },
    {
      "buffer": 0,
      "byteLength": 72000,
      "byteOffset": 46800,
      "byteStride": 12,
      "name": "floatBufferViews",
      "target": 34962
    }
  ],
  "buffers": [
    {
      "byteLength": 118800,
      "uri": "/kite3d/assets/models/selected/99483dc2d26548e1955898b063ad87cb/scene.bin"
    }
  ],
  "images": [
    {
      "uri": "/kite3d/assets/models/selected/99483dc2d26548e1955898b063ad87cb/Material.010_baseColor.jpeg"
    }
  ],
  "materials": [
    {
      "doubleSided": true,
      "name": "Selected barrel 1: Material.010",
      "pbrMetallicRoughness": {
        "baseColorTexture": {
          "index": 0
        },
        "metallicFactor": 0.0,
        "roughnessFactor": 0.7470177871865296
      }
    }
  ],
  "meshes": [
    {
      "name": "Cylinder_Material.010_0",
      "primitives": [
        {
          "attributes": {
            "NORMAL": 1,
            "POSITION": 0,
            "TEXCOORD_0": 2
          },
          "indices": 3,
          "material": 0,
          "mode": 4
        }
      ]
    }
  ],
  "nodes": [
    {
      "children": [
        1
      ],
      "matrix": [
        1.0,
        0.0,
        0.0,
        0.0,
        0.0,
        2.220446049250313e-16,
        -1.0,
        0.0,
        0.0,
        1.0,
        2.220446049250313e-16,
        0.0,
        0.0,
        0.0,
        0.0,
        1.0
      ],
      "name": "Sketchfab_model"
    },
    {
      "children": [
        2
      ],
      "matrix": [
        0.009999999776482582,
        0.0,
        0.0,
        0.0,
        0.0,
        0.0,
        0.009999999776482582,
        0.0,
        0.0,
        -0.009999999776482582,
        0.0,
        0.0,
        0.0,
        0.0,
        0.0,
        1.0
      ],
      "name": "7bb9a797b52e4a38947027097e186016.fbx"
    },
    {
      "children": [
        3,
        5,
        7,
        9,
        11
      ],
      "name": "RootNode"
    },
    {
      "children": [
        4
      ],
      "matrix": [
        100.0,
        0.0,
        0.0,
        0.0,
        0.0,
        -2.8212996916465727e-05,
        -99.99999999999602,
        0.0,
        0.0,
        143.5407714843693,
        -4.0497153432757834e-05,
        0.0,
        2.7370810508728027,
        140.27749633789062,
        440.66888427734375,
        1.0
      ],
      "name": "Cylinder"
    },
    {
      "mesh": 0,
      "name": "Cylinder_Material.010_0"
    },
    {
      "children": [
        6
      ],
      "matrix": [
        100.0,
        0.0,
        0.0,
        0.0,
        -0.0,
        -2.8212996916465727e-05,
        -99.99999999999602,
        0.0,
        0.0,
        143.5407714843693,
        -4.0497153432757834e-05,
        0.0,
        -5.805087089538574,
        138.41233825683594,
        -209.05303955078125,
        1.0
      ],
      "name": "Cylinder.001"
    },
    {
      "name": "Cylinder.001_Material.001_0"
    },
    {
      "children": [
        8
      ],
      "matrix": [
        100.0,
        0.0,
        0.0,
        0.0,
        -0.0,
        -2.8212996916465727e-05,
        -99.99999999999602,
        0.0,
        0.0,
        143.5407714843693,
        -4.0497153432757834e-05,
        0.0,
        -2.619457244873047,
        139.76889038085938,
        -427.65411376953125,
        1.0
      ],
      "name": "Cylinder.002"
    },
    {
      "name": "Cylinder.002_Material.002_0"
    },
    {
      "children": [
        10
      ],
      "matrix": [
        100.0,
        0.0,
        0.0,
        0.0,
        -0.0,
        -2.8212996916465727e-05,
        -99.99999999999602,
        0.0,
        0.0,
        143.5407714843693,
        -4.0497153432757834e-05,
        0.0,
        -3.776693344116211,
        139.70399475097656,
        222.87220764160156,
        1.0
      ],
      "name": "Cylinder.003"
    },
    {
      "name": "Cylinder.003_Material.003_0"
    },
    {
      "children": [
        12
      ],
      "matrix": [
        100.0,
        0.0,
        0.0,
        0.0,
        -0.0,
        -2.8212996916465727e-05,
        -99.99999999999602,
        0.0,
        0.0,
        143.5407714843693,
        -4.0497153432757834e-05,
        0.0,
        -2.6539742946624756,
        140.6915740966797,
        4.946744441986084,
        1.0
      ],
      "name": "Cylinder.004"
    },
    {
      "name": "Cylinder.004_Material.004_0"
    }
  ],
  "samplers": [
    {
      "magFilter": 9729,
      "minFilter": 9987,
      "wrapS": 10497,
      "wrapT": 10497
    }
  ],
  "scene": 0,
  "scenes": [
    {
      "name": "Sketchfab_Scene",
      "nodes": [
        0
      ]
    }
  ],
  "textures": [
    {
      "sampler": 0,
      "source": 0
    }
  ]
}
