{
  "asset": {
    "generator": "Khronos glTF Blender I/O v3.6.28",
    "version": "2.0"
  },
  "scene": 0,
  "scenes": [
    {
      "name": "blend_export",
      "nodes": [
        0
      ]
    }
  ],
  "nodes": [
    {
      "mesh": 0,
      "name": "drain_cleaner"
    }
  ],
  "materials": [
    {
      "doubleSided": true,
      "name": "drain_cleaner",
      "normalTexture": {
        "index": 0
      },
      "pbrMetallicRoughness": {
        "baseColorTexture": {
          "index": 1
        },
        "metallicFactor": 0,
        "metallicRoughnessTexture": {
          "index": 2
        }
      }
    }
  ],
  "meshes": [
    {
      "name": "Cube.003",
      "primitives": [
        {
          "attributes": {
            "POSITION": 0,
            "NORMAL": 1,
            "TEXCOORD_0": 2
          },
          "indices": 3,
          "material": 0
        }
      ]
    }
  ],
  "textures": [
    {
      "sampler": 0,
      "source": 0
    },
    {
      "sampler": 0,
      "source": 1
    },
    {
      "sampler": 0,
      "source": 2
    }
  ],
  "images": [
    {
      "mimeType": "image/jpeg",
      "name": "drain_cleaner_nor_gl",
      "uri": "textures/drain_cleaner_nor_gl_1k.jpg"
    },
    {
      "mimeType": "image/jpeg",
      "name": "drain_cleaner_diff",
      "uri": "textures/drain_cleaner_diff_1k.jpg"
    },
    {
      "mimeType": "image/jpeg",
      "name": "drain_cleaner_rough",
      "uri": "textures/drain_cleaner_arm_1k.jpg"
    }
  ],
  "accessors": [
    {
      "bufferView": 0,
      "componentType": 5126,
      "count": 2990,
      "max": [
        0.08025747537612915,
        0.17849822342395782,
        0.028167670592665672
      ],
      "min": [
        -0.0851396694779396,
        -0.00005495836740010418,
        -0.028167670592665672
      ],
      "type": "VEC3"
    },
    {
      "bufferView": 1,
      "componentType": 5126,
      "count": 2990,
      "type": "VEC3"
    },
    {
      "bufferView": 2,
      "componentType": 5126,
      "count": 2990,
      "type": "VEC2"
    },
    {
      "bufferView": 3,
      "componentType": 5123,
      "count": 13014,
      "type": "SCALAR"
    }
  ],
  "bufferViews": [
    {
      "buffer": 0,
      "byteLength": 35880,
      "byteOffset": 0,
      "target": 34962
    },
    {
      "buffer": 0,
      "byteLength": 35880,
      "byteOffset": 35880,
      "target": 34962
    },
    {
      "buffer": 0,
      "byteLength": 23920,
      "byteOffset": 71760,
      "target": 34962
    },
    {
      "buffer": 0,
      "byteLength": 26028,
      "byteOffset": 95680,
      "target": 34963
    }
  ],
  "samplers": [
    {
      "magFilter": 9729,
      "minFilter": 9987
    }
  ],
  "buffers": [
    {
      "byteLength": 121708,
      "uri": "drain_cleaner.bin"
    }
  ]
}
