{
  "asset": {
    "generator": "Terminator tools/build-map-assets.mjs with glTF-Transform 4.5.0 and three.js",
    "version": "2.0"
  },
  "accessors": [
    {
      "name": "Stair tread steel POSITION",
      "type": "VEC3",
      "componentType": 5126,
      "count": 36,
      "max": [
        1.5,
        0.75,
        0.5
      ],
      "min": [
        -1.5,
        -0.75,
        -0.5
      ],
      "bufferView": 0,
      "byteOffset": 0
    },
    {
      "name": "Stair tread steel NORMAL",
      "type": "VEC3",
      "componentType": 5126,
      "count": 36,
      "bufferView": 0,
      "byteOffset": 12
    },
    {
      "name": "Stair tread steel TEXCOORD_0",
      "type": "VEC2",
      "componentType": 5126,
      "count": 36,
      "bufferView": 0,
      "byteOffset": 24
    }
  ],
  "bufferViews": [
    {
      "buffer": 0,
      "byteOffset": 0,
      "byteLength": 1152,
      "byteStride": 32,
      "target": 34962
    }
  ],
  "samplers": [
    {
      "wrapS": 10497,
      "wrapT": 10497
    }
  ],
  "textures": [
    {
      "source": 0,
      "sampler": 0
    },
    {
      "source": 1,
      "sampler": 0
    },
    {
      "source": 2,
      "sampler": 0
    }
  ],
  "images": [
    {
      "name": "paint_albedo.jpg",
      "mimeType": "image/jpeg",
      "uri": "/kite3d/assets/textures/map/paint_albedo.jpg"
    },
    {
      "name": "paint_normal.jpg",
      "mimeType": "image/jpeg",
      "uri": "/kite3d/assets/textures/map/paint_normal.jpg"
    },
    {
      "name": "paint_arm.jpg",
      "mimeType": "image/jpeg",
      "uri": "/kite3d/assets/textures/map/paint_arm.jpg"
    }
  ],
  "buffers": [
    {
      "name": "Map piece geometry",
      "uri": "stair-3x1p5x1.bin",
      "byteLength": 1152
    }
  ],
  "materials": [
    {
      "name": "Map steel",
      "pbrMetallicRoughness": {
        "baseColorFactor": [
          0.44,
          0.49,
          0.51,
          1
        ],
        "roughnessFactor": 0.68,
        "metallicFactor": 0.82,
        "baseColorTexture": {
          "index": 0
        },
        "metallicRoughnessTexture": {
          "index": 2
        }
      },
      "normalTexture": {
        "index": 1
      },
      "occlusionTexture": {
        "index": 2
      }
    }
  ],
  "meshes": [
    {
      "name": "Stair tread steel",
      "primitives": [
        {
          "attributes": {
            "POSITION": 0,
            "NORMAL": 1,
            "TEXCOORD_0": 2
          },
          "mode": 4,
          "material": 0
        }
      ]
    }
  ],
  "nodes": [
    {
      "name": "Stair tread asset",
      "extras": {
        "mapPieceAsset": true
      },
      "children": [
        1
      ]
    },
    {
      "name": "Stair tread steel",
      "extras": {
        "material": "steel"
      },
      "mesh": 0
    }
  ],
  "scenes": [
    {
      "name": "Stair 3x1p5x1",
      "nodes": [
        0
      ]
    }
  ]
}
